<?xml version="1.0" encoding="UTF-8" standalone="no"?>
<!-- Created with Inkscape (http://www.inkscape.org/) -->

<svg
   xmlns:dc="http://purl.org/dc/elements/1.1/"
   xmlns:cc="http://creativecommons.org/ns#"
   xmlns:rdf="http://www.w3.org/1999/02/22-rdf-syntax-ns#"
   xmlns:svg="http://www.w3.org/2000/svg"
   xmlns="http://www.w3.org/2000/svg"
   xmlns:sodipodi="http://sodipodi.sourceforge.net/DTD/sodipodi-0.dtd"
   xmlns:inkscape="http://www.inkscape.org/namespaces/inkscape"
   width="300"
   height="300"
   id="svg2"
   version="1.1"
   inkscape:version="0.48.3.1 r9886"
   sodipodi:docname="imgmap.svg">
  <defs
     id="defs4" />
  <sodipodi:namedview
     id="base"
     pagecolor="#ffffff"
     bordercolor="#666666"
     borderopacity="1.0"
     inkscape:pageopacity="0.0"
     inkscape:pageshadow="2"
     inkscape:zoom="2.8"
     inkscape:cx="49.244063"
     inkscape:cy="61.521967"
     inkscape:document-units="px"
     inkscape:current-layer="layer1"
     showgrid="true"
     inkscape:window-width="1600"
     inkscape:window-height="844"
     inkscape:window-x="0"
     inkscape:window-y="27"
     inkscape:window-maximized="1">
    <inkscape:grid
       type="xygrid"
       id="grid2985"
       empspacing="5"
       visible="true"
       enabled="true"
       snapvisiblegridlinesonly="true" />
  </sodipodi:namedview>
  <metadata
     id="metadata7">
    <rdf:RDF>
      <cc:Work
         rdf:about="">
        <dc:format>image/svg+xml</dc:format>
        <dc:type
           rdf:resource="http://purl.org/dc/dcmitype/StillImage" />
        <dc:title></dc:title>
      </cc:Work>
    </rdf:RDF>
  </metadata>
  <g
     inkscape:label="Layer 1"
     inkscape:groupmode="layer"
     id="layer1"
     transform="translate(0,-752.36205)">
    <text
       xml:space="preserve"
       style="font-size:15px;font-style:normal;font-weight:normal;line-height:125%;letter-spacing:0px;word-spacing:0px;fill:#0f9793;fill-opacity:1;stroke:none;font-family:Sans"
       x="5"
       y="772.36206"
       id="text3019"
       sodipodi:linespacing="125%"><tspan
         sodipodi:role="line"
         id="tspan3021"
         x="5"
         y="772.36206"
         style="font-style:normal;font-variant:normal;font-weight:normal;font-stretch:normal;fill:#0f9793;fill-opacity:1;font-family:Droid Sans Mono;-inkscape-font-specification:Droid Sans Mono">1ab34f12be</tspan><tspan
         sodipodi:role="line"
         x="5"
         y="791.11206"
         id="tspan3023"
         style="font-style:normal;font-variant:normal;font-weight:normal;font-stretch:normal;fill:#0f9793;fill-opacity:1;font-family:Droid Sans Mono;-inkscape-font-specification:Droid Sans Mono">12b13b1231</tspan><tspan
         sodipodi:role="line"
         x="5"
         y="809.86206"
         id="tspan3025"
         style="font-style:normal;font-variant:normal;font-weight:normal;font-stretch:normal;fill:#0f9793;fill-opacity:1;font-family:Droid Sans Mono;-inkscape-font-specification:Droid Sans Mono">122b12bb31</tspan><tspan
         sodipodi:role="line"
         x="5"
         y="828.61206"
         id="tspan3027"
         style="font-style:normal;font-variant:normal;font-weight:normal;font-stretch:normal;fill:#0f9793;fill-opacity:1;font-family:Droid Sans Mono;-inkscape-font-specification:Droid Sans Mono">41bf1f2ef1</tspan><tspan
         sodipodi:role="line"
         x="5"
         y="847.36206"
         id="tspan3029"
         style="font-style:normal;font-variant:normal;font-weight:normal;font-stretch:normal;fill:#0f9793;fill-opacity:1;font-family:Droid Sans Mono;-inkscape-font-specification:Droid Sans Mono">122f21fb12</tspan></text>
    <rect
       style="fill:#0f9793;fill-opacity:1;fill-rule:nonzero;stroke:none"
       id="rect3049"
       width="25"
       height="25"
       x="110"
       y="772.36206"
       ry="12.5" />
    <rect
       style="fill:#0f9793;fill-opacity:1;fill-rule:nonzero;stroke:none"
       id="rect3049-7"
       width="25"
       height="25"
       x="160"
       y="802.36206"
       ry="12.5" />
    <rect
       style="fill:#0f9793;fill-opacity:1;fill-rule:nonzero;stroke:none"
       id="rect3049-7-3"
       width="25"
       height="25"
       x="120"
       y="817.36206"
       ry="12.5" />
    <rect
       style="fill:#0f9793;fill-opacity:1;fill-rule:nonzero;stroke:none"
       id="rect3049-7-3-8"
       width="10.00001"
       height="10.00001"
       x="144.99998"
       y="792.36206"
       ry="5.0000052" />
    <rect
       style="fill:#0f9793;fill-opacity:1;fill-rule:nonzero;stroke:none"
       id="rect3049-7-3-8-2"
       width="10.00001"
       height="10.00001"
       x="165"
       y="837.36206"
       ry="5.0000052" />
    <rect
       style="fill:#0f9793;fill-opacity:1;fill-rule:nonzero;stroke:none"
       id="rect3049-7-3-8-8"
       width="10.00001"
       height="10.00001"
       x="169.99998"
       y="772.36206"
       ry="5.0000052" />
    <path
       style="fill:none;stroke:#0f9793;stroke-width:1px;stroke-linecap:butt;stroke-linejoin:miter;stroke-opacity:1"
       d="m 120,787.36204 55,-10 0,40 -45,15 40,10 5,-25 -25,-20"
       id="path3141"
       inkscape:connector-curvature="0" />
    <path
       style="fill:#0f9793;fill-opacity:1;fill-rule:nonzero;stroke:none"
       d="M 14.24092,936.2494 37,910.36205 c 0.494451,-0.56242 1.345281,-0.61713 1.907695,-0.12268 l 8.121529,7.14011 c 0.562414,0.49445 0.617128,1.34528 0.122677,1.9077 L 24.39282,945.17453 c -0.494451,0.56241 -1.34528,0.61712 -1.907694,0.12267 l -8.12153,-7.14011 c -0.562414,-0.49445 -0.617127,-1.34528 -0.122676,-1.90769 z"
       id="rect6299"
       inkscape:connector-curvature="0" />
    <path
       style="fill:#0f9793;fill-opacity:1;fill-rule:nonzero;stroke:none"
       d="m 60,864.38829 c -16.009017,0 -28.986885,12.97786 -28.986885,28.98687 0,16.00905 12.977868,28.98689 28.986885,28.98689 16.009017,0 28.986889,-12.97784 28.986889,-28.98689 0,-16.00901 -12.977872,-28.98687 -28.986889,-28.98687 z m 0,6.44153 c 12.451455,0 22.545355,10.09389 22.545355,22.54534 0,12.45145 -10.0939,22.54538 -22.545355,22.54538 -12.451458,0 -22.545356,-10.09393 -22.545356,-22.54538 0,-12.45145 10.093898,-22.54534 22.545356,-22.54534 z"
       id="path3955"
       inkscape:connector-curvature="0" />
    <rect
       style="fill:#ffffff;fill-opacity:1;fill-rule:nonzero;stroke:#0f9793;stroke-width:2.08;stroke-linecap:round;stroke-linejoin:round;stroke-miterlimit:4;stroke-opacity:1;stroke-dasharray:none;stroke-dashoffset:0"
       id="rect4187"
       width="45.499992"
       height="64.999977"
       x="111.40385"
       y="867.36206"
       ry="1.9999887" />
    <rect
       style="fill:#ffffff;fill-opacity:1;fill-rule:nonzero;stroke:#0f9793;stroke-width:2.08;stroke-linecap:round;stroke-linejoin:round;stroke-miterlimit:4;stroke-opacity:1;stroke-dasharray:none;stroke-dashoffset:0"
       id="rect4187-9"
       width="22.500006"
       height="32.500011"
       x="163.40384"
       y="899.86206"
       ry="2.5000007" />
    <path
       style="fill:#ffffff;fill-opacity:1;fill-rule:nonzero;stroke:none;display:inline"
       d="m 58.928631,980.57633 0,38.57147 c 0,1.7749 7.195409,3.2142 16.071369,3.2142 8.87596,0 16.071369,-1.4393 16.071369,-3.2142 l 0,-38.57147 z"
       id="rect4347"
       inkscape:connector-curvature="0"
       sodipodi:nodetypes="cssscc" />
    <path
       sodipodi:type="arc"
       style="fill:#0f9793;fill-opacity:1;fill-rule:nonzero;stroke:none;display:inline"
       id="path4327"
       sodipodi:cx="136"
       sodipodi:cy="83.5"
       sodipodi:rx="5"
       sodipodi:ry="1.5"
       d="m 141,83.5 a 5,1.5 0 1 1 -10,0 5,1.5 0 1 1 10,0 z"
       transform="matrix(3.2142738,0,0,2.1428492,-362.14123,801.64841)" />
    <path
       style="fill:#0f9793;fill-opacity:1;fill-rule:nonzero;stroke:none;display:inline"
       d="m 58.928631,987.00488 0,3.21427 c 0,1.77521 7.195409,3.21428 16.071369,3.21428 8.87596,0 16.071369,-1.43907 16.071369,-3.21428 l 0,-3.21427 c 0,1.77521 -7.195409,3.21427 -16.071369,3.21427 -8.87596,0 -16.071369,-1.43906 -16.071369,-3.21427 z"
       id="path4327-2"
       inkscape:connector-curvature="0" />
    <path
       style="fill:#0f9793;fill-opacity:1;fill-rule:nonzero;stroke:none;display:inline"
       d="m 58.928631,996.6477 0,3.21427 c 0,1.77523 7.195409,3.21423 16.071369,3.21423 8.87596,0 16.071369,-1.439 16.071369,-3.21423 l 0,-3.21427 c 0,1.77521 -7.195409,3.21427 -16.071369,3.21427 -8.87596,0 -16.071369,-1.43906 -16.071369,-3.21427 z"
       id="path4327-2-1"
       inkscape:connector-curvature="0" />
    <path
       style="fill:#0f9793;fill-opacity:1;fill-rule:nonzero;stroke:none;display:inline"
       d="m 58.928631,1006.2905 0,3.2143 c 0,1.7752 7.195409,3.2143 16.071369,3.2143 8.87596,0 16.071369,-1.4391 16.071369,-3.2143 l 0,-3.2143 c 0,1.7752 -7.195409,3.2143 -16.071369,3.2143 -8.87596,0 -16.071369,-1.4391 -16.071369,-3.2143 z"
       id="path4327-2-1-8"
       inkscape:connector-curvature="0" />
    <path
       style="fill:#0f9793;fill-opacity:1;fill-rule:nonzero;stroke:none;display:inline"
       d="m 58.928631,1015.9333 0,3.2145 c 0,1.7749 7.195409,3.2142 16.071369,3.2142 8.87596,0 16.071369,-1.4393 16.071369,-3.2142 l 0,-3.2145 c 0,1.7753 -7.195409,3.2145 -16.071369,3.2145 -8.87596,0 -16.071369,-1.4392 -16.071369,-3.2145 z"
       id="path4327-2-1-8-3"
       inkscape:connector-curvature="0" />
    <path
       style="fill:#ffffff;fill-opacity:1;fill-rule:nonzero;stroke:none;display:inline"
       d="m 24.795943,985.32123 0,24.48987 c 0,1.127 4.568518,2.0408 10.204053,2.0408 5.635535,0 10.204053,-0.9138 10.204053,-2.0408 l 0,-24.48987 z"
       id="rect4347-7"
       inkscape:connector-curvature="0"
       sodipodi:nodetypes="cssscc" />
    <path
       sodipodi:type="arc"
       style="fill:#0f9793;fill-opacity:1;fill-rule:nonzero;stroke:none;display:inline"
       id="path4327-4"
       sodipodi:cx="136"
       sodipodi:cy="83.5"
       sodipodi:rx="5"
       sodipodi:ry="1.5"
       d="m 141,83.5 a 5,1.5 0 1 1 -10,0 5,1.5 0 1 1 10,0 z"
       transform="matrix(2.0408105,0,0,1.3605403,-242.55023,871.71612)" />
    <path
       style="fill:#0f9793;fill-opacity:1;fill-rule:nonzero;stroke:none;display:inline"
       d="m 24.795943,989.40288 0,2.0408 c 0,1.1271 4.568518,2.0408 10.204053,2.0408 5.635535,0 10.204053,-0.9137 10.204053,-2.0408 l 0,-2.0408 c 0,1.1271 -4.568518,2.0408 -10.204053,2.0408 -5.635535,0 -10.204053,-0.9137 -10.204053,-2.0408 z"
       id="path4327-2-5"
       inkscape:connector-curvature="0" />
    <path
       style="fill:#0f9793;fill-opacity:1;fill-rule:nonzero;stroke:none;display:inline"
       d="m 24.795943,995.52528 0,2.0409 c 0,1.1271 4.568518,2.0407 10.204053,2.0407 5.635535,0 10.204053,-0.9136 10.204053,-2.0407 l 0,-2.0409 c 0,1.1272 -4.568518,2.0409 -10.204053,2.0409 -5.635535,0 -10.204053,-0.9137 -10.204053,-2.0409 z"
       id="path4327-2-1-6"
       inkscape:connector-curvature="0" />
    <path
       style="fill:#0f9793;fill-opacity:1;fill-rule:nonzero;stroke:none;display:inline"
       d="m 24.795943,1001.6478 0,2.0408 c 0,1.1271 4.568518,2.0408 10.204053,2.0408 5.635535,0 10.204053,-0.9137 10.204053,-2.0408 l 0,-2.0408 c 0,1.1271 -4.568518,2.0408 -10.204053,2.0408 -5.635535,0 -10.204053,-0.9137 -10.204053,-2.0408 z"
       id="path4327-2-1-8-6"
       inkscape:connector-curvature="0" />
    <path
       style="fill:#0f9793;fill-opacity:1;fill-rule:nonzero;stroke:none;display:inline"
       d="m 24.795943,1007.7702 0,2.0409 c 0,1.127 4.568518,2.0408 10.204053,2.0408 5.635535,0 10.204053,-0.9138 10.204053,-2.0408 l 0,-2.0409 c 0,1.1272 -4.568518,2.0409 -10.204053,2.0409 -5.635535,0 -10.204053,-0.9137 -10.204053,-2.0409 z"
       id="path4327-2-1-8-3-4"
       inkscape:connector-curvature="0" />
    <path
       transform="matrix(0.84545455,0,0,0.8363637,38.045453,793.36204)"
       sodipodi:type="arc"
       style="fill:#ffffff;fill-opacity:1;fill-rule:nonzero;stroke:#0f9793;stroke-width:1.18920651;stroke-linecap:round;stroke-linejoin:round;stroke-miterlimit:4;stroke-opacity:1;stroke-dasharray:none;stroke-dashoffset:0"
       id="path6205-5"
       sodipodi:cx="147.5"
       sodipodi:cy="247.5"
       sodipodi:rx="27.5"
       sodipodi:ry="27.5"
       d="m 175,247.5 a 27.5,27.5 0 1 1 -55,0 27.5,27.5 0 1 1 55,0 z" />
    <rect
       style="fill:#0f9793;fill-opacity:1;fill-rule:nonzero;stroke:none"
       id="rect6225"
       width="47"
       height="7"
       x="111"
       y="924.36206"
       ry="1.9999887" />
    <path
       style="fill:#0f9793;fill-opacity:1;fill-rule:nonzero;stroke:none"
       d="m 61.672021,881.11496 c -0.182974,0 -0.347898,0.0325 -0.453271,0.11332 -0.104554,0.08 -0.141647,0.19782 -0.141647,0.33995 0,0.13233 0.03981,0.22831 0.113318,0.31163 0.07434,0.0825 0.198378,0.16698 0.368282,0.22663 0.175621,0.0629 0.282769,0.12429 0.339954,0.16998 0.05799,0.0458 0.08499,0.11336 0.08499,0.1983 -10e-7,0.19604 -0.139047,0.2833 -0.424942,0.2833 -0.16582,0 -0.337575,-0.0431 -0.50993,-0.11332 l 0,0.22664 c 0.12171,0.0564 0.293466,0.0849 0.50993,0.0849 0.208295,0 0.368875,-0.0526 0.481601,-0.14165 0.113544,-0.0898 0.169975,-0.21145 0.169976,-0.36828 -10e-7,-0.12007 -0.04552,-0.20733 -0.113317,-0.28329 -0.06699,-0.0768 -0.195669,-0.15475 -0.396613,-0.22664 -0.167453,-0.058 -0.286041,-0.1193 -0.339953,-0.16998 -0.0531,-0.0507 -0.08499,-0.11499 -0.08499,-0.1983 0,-0.17069 0.128947,-0.25497 0.368283,-0.25497 0.136412,0 0.295619,0.0213 0.453271,0.0849 l 0.08499,-0.1983 c -0.152751,-0.0636 -0.322873,-0.0849 -0.50993,-0.0849 z m -2.068049,0.0283 0,1.78475 0.226635,0 0,-0.73657 0.283295,0 0.424941,0.73657 0.254965,0 -0.4816,-0.79322 c 0.236067,-0.0858 0.368282,-0.24716 0.368283,-0.4816 -1e-6,-0.33899 -0.22682,-0.50993 -0.651577,-0.50993 l -0.424942,0 z m 3.399533,0 -0.594919,1.78475 0.254965,0 0.169977,-0.56659 0.594918,0 0.169977,0.56659 0.254965,0 -0.594918,-1.78475 -0.254965,0 z m 1.133177,0 0,1.78475 0.226636,0 0,-0.70824 0.169976,-0.14164 0.566589,0.84988 0.254965,0 -0.651577,-1.01986 0.623248,-0.76489 -0.254965,0 -0.566589,0.6799 -0.141647,0.19831 0,-0.87821 -0.226636,0 z m 5.155958,0 c -0.362679,0.29651 -0.538259,0.64195 -0.538259,1.07651 0,0.43947 0.17558,0.81651 0.538259,1.10485 l 0.254965,0 c -0.365131,-0.30386 -0.56659,-0.67927 -0.566589,-1.10485 -10e-7,-0.4223 0.199825,-0.76939 0.566589,-1.07651 l -0.254965,0 z m 0.963201,0 c 0.365946,0.30631 0.566588,0.65339 0.566589,1.07651 -10e-7,0.4264 -0.202277,0.8018 -0.566589,1.10485 l 0.254965,0 c 0.363495,-0.28671 0.538259,-0.66375 0.538259,-1.10485 0,-0.43619 -0.174764,-0.78163 -0.538259,-1.07651 l -0.254965,0 z m -10.425234,0.1983 0.198307,0 c 0.145397,0 0.246271,0.006 0.311623,0.0567 0.06535,0.0507 0.08499,0.13979 0.08499,0.25497 -1e-6,0.11762 -0.01882,0.20102 -0.08499,0.25496 -0.06617,0.0539 -0.171943,0.085 -0.311623,0.0849 l -0.198307,0 0,-0.65157 z m 3.286215,0.0284 c 0.01879,0.0833 0.05313,0.182 0.08499,0.28329 l 0.169976,0.50993 -0.4816,0 0.169977,-0.56659 c 0.02123,-0.0686 0.04032,-0.14577 0.05666,-0.22663 z m 9.037092,0.16997 c -0.103737,0 -0.141649,0.0565 -0.141648,0.16998 -10e-7,0.11356 0.0379,0.16998 0.141648,0.16998 0.103736,0 0.169975,-0.0564 0.169976,-0.16998 -1e-6,-0.11356 -0.06624,-0.16998 -0.169976,-0.16998 z m -26.827979,0.0283 c -0.103741,0 -0.183902,0.0149 -0.254965,0.0567 -0.07106,0.0417 -0.136226,0.1011 -0.198306,0.1983 l -0.02833,0 -0.02833,-0.22663 -0.169977,0 0,1.33148 0.226636,0 0,-0.73657 c 0,-0.14294 0.04144,-0.23647 0.113317,-0.31162 0.0727,-0.076 0.178478,-0.11332 0.311624,-0.11332 0.08251,0 0.154491,0.0199 0.254965,0.0567 l 0.05666,-0.1983 c -0.09966,-0.0367 -0.186908,-0.0567 -0.283294,-0.0567 z m 1.076518,0 c -0.0631,0.016 -0.124233,0.0531 -0.169976,0.0849 -0.09067,0.0629 -0.141648,0.14388 -0.141648,0.25496 0,0.0809 0.03598,0.16699 0.08499,0.22664 0.04982,0.0588 0.149627,0.12723 0.339953,0.19831 0.144581,0.0523 0.243271,0.0791 0.283294,0.11331 0.04002,0.0343 0.05666,0.0667 0.05666,0.11332 -10e-7,0.13232 -0.115322,0.19831 -0.339953,0.19831 -0.144583,0 -0.295621,-0.0147 -0.453271,-0.0849 l 0,0.1983 c 0.103739,0.0564 0.279022,0.0849 0.4816,0.0849 0.174804,0 0.30104,-0.0439 0.396613,-0.11331 0.09557,-0.0703 0.141646,-0.16077 0.141647,-0.2833 0,-0.0882 -0.02781,-0.16617 -0.08499,-0.22663 -0.05636,-0.0613 -0.167599,-0.10707 -0.339953,-0.16998 -0.148666,-0.0531 -0.241639,-0.11228 -0.283294,-0.14165 -0.04084,-0.0303 -0.05666,-0.0635 -0.05666,-0.11332 -10e-7,-0.10865 0.09052,-0.16997 0.283294,-0.16997 0.111908,0 0.247945,0.0262 0.396612,0.0849 l 0.05666,-0.16998 c -0.139681,-0.0605 -0.291536,-0.0849 -0.453271,-0.0849 -0.08045,0 -0.135205,-0.0159 -0.198306,0 z m 1.671437,0 c -0.15275,0 -0.3215,0.0349 -0.4816,0.11331 l 0.08499,0.16998 c 0.147848,-0.067 0.276535,-0.11332 0.396612,-0.11332 0.19931,0 0.283293,0.0906 0.283295,0.2833 l 0,0.0849 -0.226636,0.0283 c -0.416591,0.0131 -0.623249,0.15374 -0.623248,0.42494 -10e-7,0.12661 0.03817,0.21303 0.113318,0.28329 0.07597,0.0703 0.178477,0.11332 0.311624,0.11332 0.104555,0 0.188796,-0.0265 0.254965,-0.0567 0.06616,-0.031 0.13541,-0.0907 0.198306,-0.16998 l 0.02833,0.19831 0.169977,0 0,-0.93487 c -1e-6,-0.15683 -0.03,-0.26888 -0.113318,-0.33996 -0.0825,-0.0711 -0.211189,-0.0849 -0.396612,-0.0849 z m 6.119159,0 c -0.190326,0 -0.340805,0.0611 -0.424942,0.1983 l -0.02833,-0.16997 -0.198306,0 0,1.33148 0.226635,0 0,-0.70824 c 0,-0.3251 0.117512,-0.4816 0.368283,-0.4816 0.194409,0 0.311623,0.0992 0.311624,0.31163 l 0,0.87821 0.198306,0 0,-0.87821 c -10e-7,-0.32756 -0.13552,-0.4816 -0.453271,-0.4816 z m 1.444801,0 c -0.185424,0 -0.34218,0.0425 -0.453271,0.16997 -0.110274,0.12661 -0.169977,0.32098 -0.169976,0.53826 -1e-6,0.21402 0.0499,0.35908 0.169976,0.4816 0.120076,0.12173 0.281474,0.19831 0.481601,0.19831 0.161734,0 0.317674,-0.0237 0.453271,-0.0849 l 0,-0.19831 c -0.142949,0.0621 -0.293988,0.0849 -0.453271,0.0849 -0.274461,0 -0.418415,-0.14696 -0.424942,-0.45327 l 0.963201,0 0,-0.14164 c -10e-7,-0.18217 -0.06624,-0.34381 -0.169976,-0.45328 -0.102924,-0.10942 -0.223442,-0.14164 -0.396613,-0.14164 z m 10.510222,0 c -0.185424,0 -0.313851,0.0425 -0.424941,0.16997 -0.110276,0.12661 -0.169977,0.32098 -0.169977,0.53826 0,0.21402 0.04991,0.35908 0.169977,0.4816 0.120076,0.12173 0.281473,0.19831 0.4816,0.19831 0.161735,0 0.317674,-0.0237 0.453271,-0.0849 l 0,-0.19831 c -0.142949,0.0621 -0.293987,0.0849 -0.453271,0.0849 -0.27446,0 -0.418414,-0.14696 -0.424941,-0.45327 l 0.963201,0 0,-0.14164 c -10e-7,-0.18217 -0.06624,-0.34381 -0.169977,-0.45328 -0.102923,-0.10942 -0.251771,-0.14164 -0.424942,-0.14164 z m -23.626752,0.0283 c -0.03872,0.0655 -0.07518,0.13249 -0.113318,0.19831 0.04795,0.01 0.09141,0.01 0.141648,0.0283 l 0.05666,-0.1983 c -0.03067,-0.0113 -0.05604,-0.0203 -0.08499,-0.0283 z m 13.824766,0 0.283295,1.33148 0.226635,0 0.169977,-0.73656 0.08499,-0.39661 0.08499,0.39661 0.169976,0.73656 0.226636,0 0.283294,-1.33148 -0.198306,0 -0.113318,0.65158 c -0.02369,0.12334 -0.05967,0.28393 -0.08499,0.4816 -0.01961,-0.13315 -0.04987,-0.26566 -0.08499,-0.42494 l -0.169977,-0.70815 -0.226635,0 -0.169977,0.70824 c -0.03022,0.14131 -0.05967,0.27383 -0.08499,0.42494 -0.01879,-0.16908 -0.02888,-0.32966 -0.05666,-0.4816 l -0.141647,-0.65158 -0.198307,0 z m 10.65187,0 0.566588,1.33148 -0.08499,0.19831 c -0.0343,0.0817 -0.06921,0.13644 -0.113318,0.16998 -0.0433,0.0335 -0.11989,0.0567 -0.198306,0.0567 -0.06045,0 -0.091,-0.0185 -0.141647,-0.0283 l 0,0.19831 c 0.06698,0.0136 0.128058,0 0.198306,0 0.128245,0 0.21059,-0.0414 0.283295,-0.11332 0.07269,-0.0711 0.143578,-0.1695 0.198306,-0.31162 l 0.594918,-1.50146 -0.226636,0 -0.311624,0.79322 c -0.05473,0.14703 -0.09453,0.24847 -0.113317,0.33995 -0.0057,-0.0694 -0.04633,-0.1725 -0.113318,-0.33995 l -0.311624,-0.79322 -0.226635,0 z m -16.459405,0.11332 0,0.16998 1.133178,0 0,-0.16998 -1.133178,0 z m 5.07097,0.0283 c 0.222181,0 0.339951,0.11915 0.339953,0.36829 l -0.708236,0 c 0.02124,-0.24914 0.14365,-0.36829 0.368283,-0.36829 z m 10.538551,0 c 0.222181,0 0.339953,0.11915 0.339954,0.36829 l -0.708236,0 c 0.02124,-0.24914 0.143649,-0.36829 0.368282,-0.36829 z m -15.609521,0.45327 0,0.19831 1.133178,0 0,-0.19831 -1.133178,0 z m -2.379672,0.085 0.198306,0 0,0.11331 c -1e-6,0.12089 -0.01311,0.21631 -0.08499,0.2833 -0.07106,0.0662 -0.191548,0.11332 -0.311624,0.11332 -0.163364,0 -0.226636,-0.0812 -0.226635,-0.22664 -10e-7,-0.0898 0.018,-0.15497 0.08499,-0.1983 0.06699,-0.0441 0.179851,-0.0786 0.339954,-0.0849 z m 23.881717,0.36828 c -0.03104,0.20176 -0.09101,0.38662 -0.141647,0.59492 l 0.169976,0 c 0.102105,-0.23035 0.184971,-0.40567 0.226636,-0.56659 l -0.02833,-0.0283 -0.226635,0 z m -30.170853,0.14183 c -0.02596,0.05 -0.05935,0.0915 -0.08499,0.14165 l 0.08499,0 0,-0.14165 z m 10.736857,4.50438 c -0.0874,10e-6 -0.113317,0.0485 -0.113317,0.14165 0,0.094 0.02592,0.14164 0.113317,0.14164 0.03513,0 0.088,-0.005 0.113318,-0.0283 0.02614,-0.0237 0.02833,-0.0659 0.02833,-0.11332 -10e-7,-0.0931 -0.05506,-0.14164 -0.141648,-0.14165 z m 11.530082,0 0,1.89807 0.226636,0 0,-0.50993 0.169976,-0.0849 0.50993,0.59492 0.254965,0 -0.623247,-0.7649 0.594918,-0.56659 -0.254965,0 -0.50993,0.4816 -0.141647,0.19831 -0.02833,0 0.02833,-0.36828 0,-0.87822 -0.226636,0 z m 10.538552,0 0,1.89807 0.226635,0 0,-0.50993 0.141647,-0.0849 0.53826,0.59492 0.254965,0 -0.623248,-0.7649 0.594918,-0.56659 -0.283294,0 -0.481601,0.4816 -0.169976,0.19831 0.02833,-0.36833 0,-0.87821 -0.226635,0 z m 10.538551,0 0,1.89807 0.226636,0 0,-0.50993 0.141647,-0.0849 0.538259,0.59492 0.254965,0 -0.651577,-0.7649 0.623248,-0.56659 -0.283295,0 -0.4816,0.4816 -0.169977,0.19831 0.02833,-0.36828 0,-0.87822 -0.226636,0 z m -36.148364,0.11332 0,1.78475 0.226635,0 0,-0.67991 0.226636,0 c 0.215645,0 0.368874,-0.0412 0.4816,-0.14164 0.113544,-0.10047 0.169976,-0.24606 0.169977,-0.42494 -10e-7,-0.34961 -0.20339,-0.53826 -0.623248,-0.53826 l -0.4816,0 z m 10.56688,0 0,1.78475 1.01986,0 0,-0.1983 -0.793224,0 0,-0.62325 0.764895,0 0,-0.19831 -0.764895,0 0,-0.56659 0.793224,0 0,-0.1983 -1.01986,0 z m 3.654498,0 c -0.36268,0.29652 -0.538259,0.67028 -0.538259,1.10484 0,0.43947 0.175579,0.78818 0.538259,1.07652 l 0.226636,0 c -0.365131,-0.30386 -0.53826,-0.65094 -0.53826,-1.07652 0,-0.42231 0.171495,-0.79771 0.53826,-1.10484 l -0.226636,0 z m -15.354556,0.0849 -0.113318,0.36828 -0.311624,0.0567 0,0.11332 0.311624,0 0,0.76489 c -10e-7,0.281 0.157573,0.42495 0.453271,0.42495 0.09965,0 0.205433,-0.002 0.311624,-0.0283 l 0,-0.16998 c -0.120078,0.0176 -0.207326,0.0283 -0.283294,0.0283 -0.156836,0 -0.254966,-0.0957 -0.254965,-0.25497 l 0,-0.76489 0.538259,0 0,-0.16998 -0.538259,0 0,-0.36828 -0.113318,0 z m 9.008762,0 -0.08499,0.36828 -0.339953,0.0567 0,0.11332 0.339953,0 0,0.76489 c 0,0.281 0.157574,0.42495 0.453271,0.42495 0.09966,0 0.205434,-0.002 0.311624,-0.0283 l 0,-0.16998 c -0.120077,0.0176 -0.235655,0.0283 -0.311624,0.0283 -0.156835,0 -0.226635,-0.0957 -0.226635,-0.25497 l 0,-0.76489 0.538259,0 0,-0.16998 -0.538259,0 0,-0.36828 -0.141647,0 z m -7.648949,0.11332 0.226636,0 c 0.276092,10e-6 0.424939,0.11205 0.424941,0.33995 -2e-6,0.12498 -0.04307,0.22446 -0.113318,0.2833 -0.06943,0.0588 -0.178218,0.0849 -0.339953,0.0849 l -0.198306,0 0,-0.70824 z m -8.697138,0.22663 c -0.160919,0 -0.305126,0.0213 -0.396612,0.085 -0.09067,0.0629 -0.113319,0.1722 -0.113318,0.28329 0,0.0809 0.0076,0.13866 0.05666,0.19831 0.04982,0.0588 0.177958,0.12723 0.368283,0.1983 0.144581,0.0523 0.24327,0.10738 0.283294,0.14165 0.04002,0.0343 0.05666,0.0667 0.05666,0.11332 -10e-7,0.13231 -0.115322,0.1983 -0.339953,0.1983 -0.144582,0 -0.295621,-0.0431 -0.453271,-0.11331 l 0,0.1983 c 0.103739,0.0564 0.250693,0.0849 0.453271,0.0849 0.174804,0 0.329369,-0.0155 0.424941,-0.0849 0.09557,-0.0703 0.141647,-0.18909 0.141648,-0.31162 0,-0.0882 -0.02781,-0.13784 -0.08499,-0.19831 -0.05636,-0.0613 -0.195929,-0.13539 -0.368282,-0.1983 -0.148667,-0.0531 -0.241639,-0.0839 -0.283295,-0.11332 -0.04084,-0.0302 -0.05666,-0.0918 -0.05666,-0.14165 0,-0.10866 0.09052,-0.14165 0.283295,-0.14165 0.111906,0 0.247945,0.0262 0.396612,0.085 l 0.08499,-0.19831 c -0.139682,-0.0605 -0.291536,-0.0849 -0.453271,-0.0849 z m 1.444802,0 c -0.152751,0 -0.293171,0.0349 -0.453271,0.11332 l 0.05666,0.16998 c 0.147849,-0.067 0.276536,-0.085 0.396613,-0.085 0.199308,0 0.311623,0.0906 0.311623,0.2833 l 0,0.0849 -0.254964,0 c -0.416592,0.0131 -0.623248,0.15375 -0.623248,0.42494 0,0.12662 0.03816,0.24137 0.113318,0.31163 0.07597,0.0702 0.178477,0.0849 0.311623,0.0849 0.104556,0 0.188797,0.002 0.254965,-0.0283 0.06616,-0.031 0.135411,-0.0907 0.198306,-0.16998 l 0.05666,0.16998 0.169977,0 0,-0.90655 c -2e-6,-0.15683 -0.05833,-0.26888 -0.141647,-0.33995 -0.0825,-0.0711 -0.211189,-0.11332 -0.396612,-0.11332 z m 3.059579,0 c -0.160919,0 -0.276797,0.0213 -0.368283,0.085 -0.09067,0.0629 -0.141647,0.1722 -0.141647,0.28329 0,0.0809 0.03598,0.13866 0.08499,0.19831 0.04982,0.0588 0.149628,0.12723 0.339954,0.1983 0.14458,0.0523 0.24327,0.10738 0.283294,0.14165 0.04002,0.0343 0.05666,0.0667 0.05666,0.11332 -10e-7,0.13231 -0.115322,0.1983 -0.339953,0.1983 -0.144583,0 -0.295621,-0.0431 -0.453271,-0.11331 l 0,0.1983 c 0.103738,0.0564 0.279022,0.0849 0.4816,0.0849 0.174804,0 0.30104,-0.0155 0.396612,-0.0849 0.09557,-0.0703 0.141646,-0.18909 0.141648,-0.31162 0,-0.0882 -0.02781,-0.13784 -0.08499,-0.19831 -0.05636,-0.0613 -0.1676,-0.13539 -0.339953,-0.1983 -0.148667,-0.0531 -0.241639,-0.0839 -0.283294,-0.11332 -0.04084,-0.0302 -0.05666,-0.0918 -0.05666,-0.14165 -1e-6,-0.10866 0.09052,-0.14165 0.283294,-0.14165 0.111907,0 0.247946,0.0262 0.396612,0.085 l 0.05666,-0.19831 c -0.139681,-0.0605 -0.291537,-0.0849 -0.453271,-0.0849 z m 1.50146,0 c -0.185425,0 -0.34218,0.0709 -0.453271,0.19831 -0.110275,0.12662 -0.169976,0.29265 -0.169976,0.50993 0,0.21402 0.07823,0.38741 0.198306,0.50993 0.120076,0.12174 0.281472,0.16998 0.4816,0.16998 0.161734,0 0.289344,-0.0237 0.424942,-0.0849 l 0,-0.1983 c -0.142949,0.0621 -0.293987,0.0849 -0.453271,0.0849 -0.27446,0 -0.390085,-0.14695 -0.396612,-0.45327 l 0.934871,0 0,-0.14165 c -2e-6,-0.18215 -0.03791,-0.31548 -0.141647,-0.42494 -0.102923,-0.10943 -0.251772,-0.16998 -0.424942,-0.16998 z m 4.731017,0 c -0.10374,0 -0.183901,0.015 -0.254965,0.0567 -0.07106,0.0417 -0.136226,0.12943 -0.198306,0.22664 l -0.02833,-0.25497 -0.198306,0 0,1.33149 0.226636,0 0,-0.70824 c -10e-7,-0.14294 0.04144,-0.2648 0.113317,-0.33995 0.0727,-0.076 0.178478,-0.11332 0.311624,-0.11332 0.0825,0 0.182821,0.0199 0.283295,0.0567 l 0.05666,-0.19831 c -0.09966,-0.0367 -0.215238,-0.0566 -0.311624,-0.0566 z m 4.249416,0 c -0.152751,0 -0.29317,0.0349 -0.453271,0.11332 l 0.05666,0.16998 c 0.147849,-0.067 0.276537,-0.085 0.396613,-0.085 0.199309,0 0.311623,0.0906 0.311623,0.2833 l 0,0.0849 -0.254965,0 c -0.41659,0.0131 -0.623247,0.15375 -0.623247,0.42494 0,0.12662 0.03816,0.24137 0.113318,0.31163 0.07597,0.0702 0.178477,0.0849 0.311623,0.0849 0.104556,0 0.188797,0.002 0.254965,-0.0283 0.06616,-0.031 0.135411,-0.0907 0.198306,-0.16998 l 0.05666,0.16998 0.169977,0 0,-0.90655 c -2e-6,-0.15683 -0.05833,-0.26888 -0.141647,-0.33995 -0.0825,-0.0711 -0.21119,-0.11332 -0.396612,-0.11332 z m 3.059579,0 c -0.185425,0 -0.342181,0.0709 -0.453271,0.19831 -0.110275,0.12662 -0.169977,0.29265 -0.169977,0.50993 0,0.21402 0.07823,0.38741 0.198306,0.50993 0.120076,0.12174 0.281473,0.16998 0.481601,0.16998 0.161734,0 0.289345,-0.0237 0.424941,-0.0849 l 0,-0.1983 c -0.142948,0.0621 -0.293987,0.0849 -0.453271,0.0849 -0.27446,0 -0.418414,-0.14695 -0.424941,-0.45327 l 0.963201,0 0,-0.14165 c -1e-6,-0.18215 -0.06624,-0.31548 -0.169977,-0.42494 -0.102923,-0.10943 -0.223442,-0.16998 -0.396612,-0.16998 z m 7.507301,0 c -0.185424,0 -0.313851,0.0709 -0.424941,0.19831 -0.110276,0.12662 -0.169977,0.29265 -0.169977,0.50993 0,0.21402 0.04991,0.38741 0.169977,0.50993 0.120076,0.12174 0.281473,0.16998 0.4816,0.16998 0.161735,0 0.317674,-0.0237 0.453271,-0.0849 l 0,-0.1983 c -0.142949,0.0621 -0.293987,0.0849 -0.453271,0.0849 -0.27446,0 -0.418414,-0.14695 -0.424941,-0.45327 l 0.963201,0 0,-0.14165 c -10e-7,-0.18215 -0.06624,-0.31548 -0.169977,-0.42494 -0.102923,-0.10943 -0.251771,-0.16998 -0.424942,-0.16998 z m 4.58937,0 c -0.190325,0 -0.340806,0.0611 -0.424942,0.19831 l -0.02833,-0.16998 -0.198307,0 0,1.33149 0.226636,0 0,-0.67991 c 0,-0.3251 0.145841,-0.4816 0.396612,-0.4816 0.194408,0 0.283294,0.0992 0.283295,0.31162 l 0,0.84989 0.226635,0 0,-0.87822 c -10e-7,-0.32755 -0.163848,-0.4816 -0.4816,-0.4816 z m 5.949182,0 c -0.185424,0 -0.342181,0.0709 -0.453271,0.19831 -0.110276,0.12662 -0.141647,0.29265 -0.141647,0.50993 0,0.21402 0.0499,0.38741 0.169976,0.50993 0.120076,0.12174 0.281472,0.16998 0.481601,0.16998 0.161734,0 0.317674,-0.0237 0.453271,-0.0849 l 0,-0.1983 c -0.142949,0.0621 -0.293987,0.0849 -0.453271,0.0849 -0.27446,0 -0.418415,-0.14695 -0.424942,-0.45327 l 0.934872,0 0,-0.14165 c -10e-7,-0.18215 -0.03791,-0.31548 -0.141648,-0.42494 -0.102923,-0.10943 -0.251771,-0.16998 -0.424941,-0.16998 z m 4.53271,0 c -0.185425,0 -0.342181,0.0709 -0.453271,0.19831 -0.110275,0.12662 -0.169977,0.29265 -0.169977,0.50993 0,0.21402 0.0499,0.38741 0.169977,0.50993 0.120075,0.12174 0.281473,0.16998 0.481601,0.16998 0.161734,0 0.317673,-0.0237 0.453271,-0.0849 l 0,-0.1983 c -0.142949,0.0621 -0.293987,0.0849 -0.453271,0.0849 -0.274461,0 -0.418415,-0.14695 -0.424942,-0.45327 l 0.963201,0 0,-0.14165 c -2e-6,-0.18215 -0.06624,-0.31548 -0.169977,-0.42494 -0.102923,-0.10943 -0.223442,-0.16998 -0.396612,-0.16998 z m 6.005841,0 c -0.185425,0 -0.34218,0.0709 -0.453271,0.19831 -0.110275,0.12662 -0.169976,0.29265 -0.169976,0.50993 0,0.21402 0.07823,0.38741 0.198306,0.50993 0.120075,0.12174 0.281472,0.16998 0.4816,0.16998 0.161734,0 0.289344,-0.0237 0.424942,-0.0849 l 0,-0.1983 c -0.142949,0.0621 -0.293987,0.0849 -0.453271,0.0849 -0.27446,0 -0.390085,-0.14695 -0.396612,-0.45327 l 0.934871,0 0,-0.14165 c -2e-6,-0.18215 -0.03791,-0.31548 -0.141647,-0.42494 -0.102924,-0.10943 -0.251772,-0.16998 -0.424942,-0.16998 z m -35.043516,0.0283 0,0.14164 0.339953,0.0283 0,0.99153 -0.424941,0.0283 0,0.14165 1.076518,0 0,-0.14165 -0.453271,-0.0283 0,-1.16151 -0.538259,0 z m 1.274825,0 0.50993,1.33148 0.283294,0 0.50993,-1.33148 -0.226636,0 -0.311623,0.79322 c -0.07679,0.22954 -0.107607,0.36062 -0.113318,0.39661 -0.01226,-0.0768 -0.07221,-0.20791 -0.141647,-0.39661 l -0.283295,-0.79322 -0.226635,0 z m 7.56396,0 0.4816,0.65157 -0.50993,0.67991 0.254965,0 0.368283,-0.50993 0.396612,0.50993 0.254965,0 -0.50993,-0.67991 0.481601,-0.65157 -0.254965,0 -0.368283,0.50993 -0.339953,-0.50993 -0.254965,0 z m 5.977512,0 0.566588,1.35981 -0.08499,0.16998 c -0.0343,0.0817 -0.06921,0.13652 -0.113318,0.16997 -0.0433,0.0335 -0.11989,0.0567 -0.198306,0.0567 -0.06045,0 -0.091,0.01 -0.141647,0 l 0,0.16998 c 0.06698,0.0136 0.128058,0.0283 0.198306,0.0283 0.128245,0 0.21059,-0.0414 0.283295,-0.11331 0.07269,-0.0711 0.143578,-0.16949 0.198306,-0.31163 l 0.594918,-1.52979 -0.226636,0 -0.311624,0.79323 c -0.05473,0.14703 -0.09453,0.2768 -0.113317,0.36828 -0.0057,-0.0694 -0.04633,-0.20083 -0.113318,-0.36828 l -0.311624,-0.79323 -0.226635,0 z m 10.538551,0 0.538259,1.35981 -0.05666,0.16998 c -0.0343,0.0817 -0.0692,0.13652 -0.113317,0.16997 -0.0433,0.0335 -0.11989,0.0567 -0.198306,0.0567 -0.06045,0 -0.119328,0.01 -0.169977,0 l 0,0.16998 c 0.06698,0.0136 0.156388,0.0283 0.226636,0.0283 0.128243,0 0.210589,-0.0414 0.283294,-0.11331 0.0727,-0.0711 0.143578,-0.16949 0.198306,-0.31163 l 0.594918,-1.52979 -0.254965,0 -0.283294,0.79323 c -0.05473,0.14703 -0.09453,0.2768 -0.113318,0.36828 -0.0057,-0.0694 -0.04633,-0.20083 -0.113318,-0.36828 l -0.311623,-0.79323 -0.226636,0 z m 10.510222,0 0.08499,0.16997 c -0.01482,-0.0576 -0.04144,-0.11253 -0.05666,-0.16997 l -0.02833,0 z m -41.587617,0.16997 c 0.04344,-0.0156 0.08549,0 0.141647,0 0.222181,0 0.339953,0.11915 0.339954,0.36829 l -0.708236,0 c 0.01593,-0.18685 0.0963,-0.32157 0.226635,-0.36829 z m 12.011682,0 c 0.04344,-0.0156 0.113819,0 0.169977,0 0.222181,0 0.311623,0.11915 0.311624,0.36829 l -0.679907,0 c 0.01593,-0.18685 0.06797,-0.32157 0.198306,-0.36829 z m 7.535631,0 c 0.04345,-0.0156 0.08549,0 0.141647,0 0.222181,0 0.339953,0.11915 0.339954,0.36829 l -0.708236,0 c 0.01593,-0.18685 0.0963,-0.32157 0.226635,-0.36829 z m 10.538552,0 c 0.04345,-0.0156 0.08549,0 0.141647,0 0.222181,0 0.339952,0.11915 0.339953,0.36829 l -0.708236,0 c 0.01593,-0.18685 0.0963,-0.32157 0.226636,-0.36829 z m 4.50438,0 c 0.04345,-0.0156 0.08549,0 0.141648,0 0.22218,0 0.339952,0.11915 0.339953,0.36829 l -0.708236,0 c 0.01593,-0.18685 0.0963,-0.32157 0.226635,-0.36829 z m 6.034171,0 c 0.04345,-0.0156 0.08549,0 0.141647,0 0.222181,0 0.339953,0.11915 0.339954,0.36829 l -0.708236,0 c 0.01593,-0.18685 0.0963,-0.32157 0.226635,-0.36829 z m -44.732185,0.50993 0,0.11332 c 0,0.1209 -0.04144,0.2163 -0.113317,0.2833 -0.07106,0.0662 -0.16322,0.11331 -0.283295,0.11331 -0.163374,0 -0.254965,-0.0812 -0.254965,-0.22663 0,-0.0898 0.04633,-0.15507 0.113318,-0.19831 0.06698,-0.0441 0.179852,-0.0503 0.339953,-0.0567 l 0.198306,-0.0283 z m 13.541472,0 0,0.11332 c -10e-7,0.1209 -0.04144,0.2163 -0.113317,0.2833 -0.07106,0.0662 -0.16322,0.11331 -0.283295,0.11331 -0.163365,0 -0.254965,-0.0812 -0.254965,-0.22663 0,-0.0898 0.04633,-0.15507 0.113318,-0.19831 0.06698,-0.0441 0.179851,-0.0503 0.339953,-0.0567 l 0.198306,-0.0283 z m -12.323306,0.2833 c -0.123343,0 -0.198307,0.091 -0.198306,0.22663 -1e-6,0.1356 0.07496,0.19831 0.198306,0.19831 0.12416,0 0.198306,-0.0627 0.198306,-0.19831 0,-0.13558 -0.07415,-0.22663 -0.198306,-0.22663 z m 25.581484,0 c -0.123344,0 -0.198306,0.091 -0.198306,0.22663 0,0.1356 0.07496,0.19831 0.198306,0.19831 0.12416,0 0.169976,-0.0627 0.169977,-0.19831 -10e-7,-0.13558 -0.04582,-0.22663 -0.169977,-0.22663 z m 10.538551,0 c -0.123343,0 -0.198306,0.091 -0.198306,0.22663 0,0.1356 0.07496,0.19831 0.198306,0.19831 0.124161,0 0.169976,-0.0627 0.169977,-0.19831 -10e-7,-0.13558 -0.04582,-0.22663 -0.169977,-0.22663 z m -7.620619,0.0567 c -0.02859,0.18624 -0.05124,0.41605 -0.113318,0.6799 l 0.169977,0 c 0.111907,-0.2475 0.208405,-0.4686 0.254965,-0.65157 l -0.02833,-0.0283 -0.283295,0 z m 10.538552,0 c -0.02859,0.18624 -0.07957,0.41605 -0.141648,0.6799 l 0.198307,0 c 0.111907,-0.2475 0.180075,-0.4686 0.226635,-0.65157 l 0,-0.0283 -0.283294,0 z m 5.864194,0.62324 c -0.01863,0.0179 -0.04075,0.0446 -0.05666,0.0567 -0.0433,0.0335 -0.09156,0.0567 -0.169977,0.0567 -0.06045,0 -0.119337,0.01 -0.169977,0 l 0,0.16998 c 0.06699,0.0136 0.128059,0.0283 0.198306,0.0283 0.08864,0 0.161519,-0.0207 0.226636,-0.0567 -0.01544,-0.0844 -0.01205,-0.17088 -0.02833,-0.25496 z m -46.885222,0.93497 0,1.89807 0.198306,0 0,-0.50993 0.169976,-0.11332 0.50993,0.62325 0.283295,0 -0.651577,-0.7649 0.594918,-0.56658 -0.254965,0 -0.481601,0.4816 -0.169976,0.16997 0,-0.33995 0,-0.87821 -0.198306,0 z m 10.510222,0 0,1.89807 0.226635,0 0,-0.50993 0.169977,-0.11332 0.50993,0.62325 0.254965,0 -0.623248,-0.7649 0.594918,-0.56658 -0.254965,0 -0.4816,0.4816 -0.169977,0.16997 0,-0.33995 0,-0.87821 -0.226635,0 z m 10.538551,0 0,1.89807 0.226635,0 0,-0.50993 0.169977,-0.11332 0.50993,0.62325 0.254965,0 -0.623248,-0.7649 0.594919,-0.56658 -0.283295,0 -0.4816,0.4816 -0.169977,0.16997 0.02833,-0.33995 0,-0.87821 -0.226635,0 z m 6.855724,0 0,0.53826 c 0,0.0269 -0.0098,0.0929 0,0.1983 -0.09475,-0.13068 -0.228342,-0.1983 -0.396612,-0.1983 -0.16337,0 -0.302675,0.0466 -0.396612,0.16997 -0.09394,0.12253 -0.141647,0.31772 -0.141647,0.53826 0,0.21892 0.04853,0.3874 0.141647,0.50993 0.09394,0.12173 0.232426,0.16998 0.396612,0.16998 0.17072,0 0.304308,-0.0619 0.396612,-0.19831 l 0.02833,0.16998 0.198306,0 0,-1.89807 -0.226636,0 z m 4.164428,0.11331 -0.481601,0.36829 0.141648,0.14164 0.169976,-0.14164 c 0.06698,-0.0571 0.109792,-0.10657 0.141647,-0.14165 -0.0065,0.19523 -10e-7,0.35361 0,0.45327 l 0,1.10485 0.198306,0 0,-1.78476 -0.169976,0 z m -30.057535,0.42495 c -0.185425,0 -0.342181,0.0709 -0.453271,0.1983 -0.110276,0.12661 -0.169977,0.29265 -0.169977,0.50993 0,0.21402 0.07823,0.3874 0.198306,0.50993 0.120076,0.12173 0.281472,0.16998 0.481601,0.16998 0.161733,0 0.289343,-0.0237 0.424941,-0.0849 l 0,-0.19831 c -0.142949,0.0621 -0.293987,0.0849 -0.453271,0.0849 -0.27446,0 -0.418414,-0.14696 -0.424941,-0.45327 l 0.963201,0 0,-0.14165 c -2e-6,-0.18216 -0.06624,-0.31547 -0.169977,-0.42494 -0.102923,-0.10943 -0.223443,-0.16997 -0.396612,-0.16997 z m 4.53271,0 c -0.173171,0 -0.306756,0.0611 -0.396612,0.1983 l -0.02833,-0.16997 -0.169976,0 0,1.9264 0.198306,0 0,-0.56659 c 0,-0.0269 0.0098,-0.0929 0,-0.19831 0.09394,0.12991 0.227525,0.19831 0.396612,0.19831 0.163368,0 0.302674,-0.0474 0.396612,-0.16998 0.09394,-0.12334 0.141646,-0.31771 0.141647,-0.53826 -10e-7,-0.21891 -0.04771,-0.38821 -0.141647,-0.50993 -0.09312,-0.12251 -0.232427,-0.16997 -0.396612,-0.16997 z m 6.005841,0 c -0.185424,0 -0.34218,0.0709 -0.453271,0.1983 -0.110275,0.12661 -0.169976,0.29265 -0.169976,0.50993 0,0.21402 0.0499,0.3874 0.169976,0.50993 0.120076,0.12173 0.281473,0.16998 0.481601,0.16998 0.161734,0 0.317674,-0.0237 0.453271,-0.0849 l 0,-0.19831 c -0.142949,0.0621 -0.293987,0.0849 -0.453271,0.0849 -0.274461,0 -0.418415,-0.14696 -0.424942,-0.45327 l 0.963201,0 0,-0.14165 c -10e-7,-0.18216 -0.06624,-0.31547 -0.169977,-0.42494 -0.102923,-0.10943 -0.223441,-0.16997 -0.396612,-0.16997 z m 4.419393,0 c -0.163369,0 -0.302676,0.0466 -0.396612,0.16997 -0.09394,0.12253 -0.141649,0.31772 -0.141648,0.53826 -10e-7,0.21892 0.04853,0.3874 0.141648,0.50993 0.09394,0.12173 0.232426,0.16998 0.396612,0.16998 0.17072,0 0.304308,-0.0619 0.396612,-0.19831 l 0.02833,0 c -0.0098,0.10537 -0.02833,0.16477 -0.02833,0.19831 l 0,0.56659 0.226635,0 0,-1.9264 -0.169976,0 -0.05666,0.16997 c -0.09394,-0.13722 -0.227526,-0.1983 -0.396612,-0.1983 z m 6.090829,0 c -0.185425,0 -0.313851,0.0709 -0.424941,0.1983 -0.110276,0.12661 -0.169977,0.29265 -0.169977,0.50993 0,0.21402 0.0499,0.3874 0.169977,0.50993 0.120076,0.12173 0.281472,0.16998 0.4816,0.16998 0.161734,0 0.317674,-0.0237 0.453271,-0.0849 l 0,-0.19831 c -0.142949,0.0621 -0.293987,0.0849 -0.453271,0.0849 -0.27446,0 -0.418414,-0.14696 -0.424942,-0.45327 l 0.934872,0 0,-0.14165 c -10e-7,-0.18216 -0.03791,-0.31547 -0.141647,-0.42494 -0.102924,-0.10943 -0.251771,-0.16997 -0.424942,-0.16997 z m 5.807535,0 c -0.109458,0 -0.171907,0.0611 -0.226635,0.1983 l -0.02833,0 -0.02833,-0.16997 -0.169977,0 0,1.33148 0.198306,0 0,-0.67991 c 0,-0.19522 0.02725,-0.33206 0.05666,-0.39661 0.02941,-0.0654 0.07303,-0.11332 0.141647,-0.11332 0.102102,0 0.169976,0.12758 0.169977,0.33996 l 0,0.84988 0.198306,0 0,-0.73657 c 0,-0.15928 -0.0035,-0.27214 0.02833,-0.33995 0.03267,-0.0678 0.09891,-0.11332 0.169977,-0.11332 0.05065,0 0.09208,0.0384 0.113318,0.0849 0.02205,0.0466 0.02833,0.13571 0.02833,0.25496 l 0,0.84988 0.198306,0 0,-0.87821 c 0,-0.17644 -0.03761,-0.29313 -0.08499,-0.36828 -0.04738,-0.076 -0.12208,-0.11332 -0.226635,-0.11332 -0.11681,0 -0.192885,0.078 -0.254965,0.22664 l -0.02833,0 c -0.04084,-0.14867 -0.121819,-0.22664 -0.254965,-0.22664 z m 1.756425,0 c -0.173171,0 -0.306755,0.0611 -0.396612,0.1983 l -0.02833,-0.16997 -0.198306,0 0,1.9264 0.226635,0 0,-0.56659 c 0,-0.0269 0.0098,-0.0929 0,-0.19831 0.09394,0.12991 0.227525,0.19831 0.396612,0.19831 0.163368,0 0.302674,-0.0474 0.396613,-0.16998 0.09394,-0.12334 0.141645,-0.31771 0.141647,-0.53826 -2e-6,-0.21891 -0.04771,-0.38821 -0.141647,-0.50993 -0.09312,-0.12251 -0.232428,-0.16997 -0.396613,-0.16997 z m -27.791179,0.0283 0.566588,1.35981 -0.08499,0.16998 c -0.0343,0.0817 -0.0692,0.13653 -0.113318,0.16998 -0.0433,0.0335 -0.09156,0.0567 -0.169976,0.0567 -0.06045,0 -0.119338,-0.0185 -0.169977,-0.0283 l 0,0.19831 c 0.06698,0.0136 0.128058,0 0.198306,0 0.128244,0 0.238928,-0.0131 0.311624,-0.085 0.07269,-0.0711 0.143578,-0.19782 0.198306,-0.33995 l 0.566589,-1.50146 -0.226636,0 -0.283294,0.79323 c -0.05473,0.14704 -0.09453,0.27679 -0.113318,0.36828 l -0.02833,0 c -0.0057,-0.0695 -0.018,-0.20088 -0.08499,-0.36833 l -0.339953,-0.79322 -0.226635,0 z m 10.538551,0 0.566589,1.35981 -0.08499,0.16998 c -0.0343,0.0817 -0.0692,0.13653 -0.113317,0.16998 -0.0433,0.0335 -0.09156,0.0567 -0.169977,0.0567 -0.06045,0 -0.119328,-0.0185 -0.169977,-0.0283 l 0,0.19831 c 0.06699,0.0136 0.128058,0 0.198306,0 0.128245,0 0.238929,-0.0131 0.311624,-0.085 0.0727,-0.0711 0.115249,-0.19782 0.169977,-0.33995 l 0.594918,-1.50146 -0.226635,0 -0.311624,0.79323 c -0.05473,0.14704 -0.09453,0.27679 -0.113318,0.36828 -0.0057,-0.0694 -0.04633,-0.20084 -0.113318,-0.36828 l -0.311624,-0.79323 -0.226635,0 z m 10.538551,0 0.53826,1.35981 -0.05666,0.16998 c -0.0343,0.0817 -0.06921,0.13653 -0.113318,0.16998 -0.0433,0.0335 -0.11989,0.0567 -0.198306,0.0567 -0.06045,0 -0.119337,-0.0185 -0.169977,-0.0283 l 0,0.19831 c 0.06698,0.0136 0.156388,0 0.226636,0 0.128244,0 0.21059,-0.0131 0.283294,-0.085 0.0727,-0.0711 0.143578,-0.19782 0.198306,-0.33995 l 0.594919,-1.50146 -0.254965,0 -0.283295,0.79323 c -0.05473,0.14704 -0.09453,0.27679 -0.113318,0.36828 -0.0057,-0.0694 -0.04633,-0.20084 -0.113317,-0.36828 l -0.311624,-0.79323 -0.226636,0 z m -21.898656,0.14165 c 0.222181,0 0.311623,0.14747 0.311624,0.39661 l -0.679907,0 c 0.02124,-0.24914 0.14365,-0.39661 0.368283,-0.39661 z m 4.504381,0 c 0.223814,0 0.339951,0.17175 0.339953,0.50993 -2e-6,0.3447 -0.117773,0.50993 -0.339953,0.50993 -0.124161,0 -0.226119,-0.0349 -0.283295,-0.11332 -0.05636,-0.0792 -0.08499,-0.21119 -0.08499,-0.39661 l 0,-0.0283 c 0.0033,-0.16255 0.05941,-0.29639 0.113318,-0.36828 0.05473,-0.0719 0.130804,-0.11332 0.254965,-0.11332 z m 6.005841,0 c 0.222181,0 0.339952,0.14747 0.339953,0.39661 l -0.708236,0 c 0.02124,-0.24914 0.14365,-0.39661 0.368283,-0.39661 z m 4.476051,0 c 0.12416,0 0.226935,0.0624 0.283295,0.14164 0.05718,0.0784 0.08499,0.2112 0.08499,0.39662 l 0,0.0283 c -0.0033,0.16174 -0.03026,0.29558 -0.08499,0.36828 -0.05391,0.0719 -0.130806,0.11332 -0.254965,0.11332 -0.223817,0 -0.339955,-0.17175 -0.339954,-0.50993 -1e-6,-0.34471 0.08944,-0.53826 0.311624,-0.53826 z m 6.0625,0 c 0.222181,0 0.339953,0.14747 0.339953,0.39661 l -0.708236,0 c 0.02124,-0.24914 0.143651,-0.39661 0.368283,-0.39661 z m 4.476052,0 c 0.12416,0 0.226934,0.0624 0.283294,0.14164 0.05718,0.0784 0.08499,0.2112 0.08499,0.39662 l 0,0.0283 c -0.0033,0.16174 -0.03026,0.29558 -0.08499,0.36828 -0.05391,0.0719 -0.159134,0.11332 -0.283294,0.11332 -0.223816,0 -0.339955,-0.17175 -0.339954,-0.50993 -10e-7,-0.34471 0.117772,-0.53826 0.339954,-0.53826 z m 3.059579,0 c 0.223814,0 0.339951,0.17175 0.339953,0.50993 -2e-6,0.3447 -0.117772,0.50993 -0.339953,0.50993 -0.124161,0 -0.226119,-0.0349 -0.283294,-0.11332 -0.05636,-0.0792 -0.08499,-0.21119 -0.08499,-0.39661 l 0,-0.0283 c 0.0033,-0.16255 0.03108,-0.29639 0.08499,-0.36828 0.05473,-0.0719 0.159133,-0.11332 0.283294,-0.11332 z m -25.609813,0.82155 c -0.123343,0 -0.169978,0.0627 -0.169977,0.19831 -1e-6,0.13558 0.04663,0.22663 0.169977,0.22663 0.12416,0 0.198305,-0.091 0.198306,-0.22663 -10e-7,-0.13559 -0.07415,-0.19831 -0.198306,-0.19831 z m 10.538551,0 c -0.123344,0 -0.198306,0.0627 -0.198306,0.19831 0,0.13558 0.07496,0.22663 0.198306,0.22663 0.12416,0 0.198305,-0.091 0.198306,-0.22663 -10e-7,-0.13559 -0.07415,-0.19831 -0.198306,-0.19831 z m 10.538552,0 c -0.123343,0 -0.198306,0.0627 -0.198306,0.19831 0,0.13558 0.07496,0.22663 0.198306,0.22663 0.124161,0 0.169975,-0.091 0.169976,-0.22663 -10e-7,-0.13559 -0.04582,-0.19831 -0.169976,-0.19831 z m -18.130841,0.0567 c -0.02859,0.18624 -0.07957,0.41607 -0.141648,0.67991 l 0.169977,0 c 0.111907,-0.24751 0.208405,-0.4686 0.254965,-0.65158 l -0.02833,-0.0283 -0.254965,0 z m 10.538551,0 c -0.02859,0.18624 -0.07957,0.41607 -0.141647,0.67991 l 0.169976,0 c 0.111908,-0.24751 0.208405,-0.4686 0.254965,-0.65158 l -0.02833,-0.0283 -0.254965,0 z m 15.042932,0 c -0.02859,0.18624 -0.07957,0.41607 -0.141647,0.67991 l 0.169977,0 c 0.111906,-0.24751 0.208405,-0.4686 0.254965,-0.65158 l -0.02833,-0.0283 -0.254965,0 z m -7.139018,1.52979 c -0.170722,10e-6 -0.294772,0.0422 -0.368283,0.11332 -0.07351,0.0711 -0.113319,0.1823 -0.113318,0.33995 l 0,0.11332 -0.396612,0.0567 0,0.11332 0.396612,0 0,1.18983 0.226636,0 0,-1.18983 0.453271,0 0,-0.16998 -0.453271,0 0,-0.11332 c 0,-0.0939 -0.0076,-0.15742 0.02833,-0.19831 0.03593,-0.0409 0.126163,-0.0566 0.226636,-0.0566 0.08414,0 0.170012,0.005 0.254964,0.0283 l 0.02833,-0.16998 c -0.100473,-0.0285 -0.177923,-0.0567 -0.283294,-0.0567 z m 1.50146,0 c -0.170721,10e-6 -0.294771,0.0422 -0.368283,0.11332 -0.07351,0.0711 -0.113318,0.1823 -0.113318,0.33995 l 0,0.11332 -0.396612,0.0567 0,0.11332 0.396612,0 0,1.18983 0.226636,0 0,-1.18983 0.4816,0 0,-0.16998 -0.4816,0 0,-0.11332 c 0,-0.0939 0.02071,-0.15742 0.05666,-0.19831 0.03594,-0.0409 0.09783,-0.0566 0.198306,-0.0566 0.08414,0 0.170013,0.005 0.254965,0.0283 l 0.05666,-0.16998 c -0.100473,-0.0285 -0.206252,-0.0566 -0.311624,-0.0566 z m -27.876168,0.0283 0,1.89808 0.198306,0 0,-0.50993 0.169976,-0.11332 0.50993,0.62325 0.283295,0 -0.651577,-0.7649 0.594918,-0.59492 -0.254965,0 -0.481601,0.4816 -0.169976,0.19831 0,-0.36828 0,-0.84989 -0.198306,0 z m 6.827394,0 0,0.50993 c 0,0.0269 0.01853,0.0929 0.02833,0.19831 l -0.02833,0 c -0.09475,-0.13069 -0.228343,-0.16997 -0.396612,-0.16998 -0.163369,10e-6 -0.274346,0.0467 -0.368282,0.16998 -0.09394,0.12253 -0.141648,0.28938 -0.141648,0.50993 0,0.21891 0.04853,0.3874 0.141648,0.50993 0.09394,0.12174 0.204096,0.19831 0.368282,0.19831 0.170719,0 0.304308,-0.0619 0.396612,-0.19831 l 0.02833,0 0.02833,0.16998 0.169977,0 0,-1.89808 -0.226636,0 z m 8.215538,0 0,1.89808 0.226635,0 0,-0.50993 0.141648,-0.11332 0.538259,0.62325 0.254965,0 -0.651577,-0.7649 0.623247,-0.59492 -0.283294,0 -0.4816,0.4816 -0.169977,0.19831 0.02833,-0.36828 0,-0.84989 -0.226635,0 z m -4.05111,0.11332 -0.453271,0.36828 0.113318,0.14165 0.169976,-0.14165 c 0.06698,-0.0571 0.138121,-0.10656 0.169977,-0.14164 -0.0065,0.19522 -0.02833,0.32528 -0.02833,0.42494 l 0,1.13318 0.226635,0 0,-1.78476 -0.198306,0 z m 17.67757,0 c 0.365946,0.30632 0.566588,0.6534 0.566589,1.07652 -10e-7,0.42639 -0.202277,0.8018 -0.566589,1.10485 l 0.254965,0 c 0.363495,-0.28671 0.538259,-0.66375 0.538259,-1.10485 0,-0.4362 -0.174764,-0.78164 -0.538259,-1.07652 l -0.254965,0 z m 1.898073,0.39661 c -0.103737,0 -0.141649,0.0565 -0.141648,0.16998 -10e-7,0.11356 0.0379,0.16998 0.141648,0.16998 0.103736,0 0.169975,-0.0564 0.169976,-0.16998 -1e-6,-0.11356 -0.06624,-0.16998 -0.169976,-0.16998 z m -28.556075,0.0283 c -0.185425,10e-6 -0.342181,0.0425 -0.453271,0.16997 -0.110276,0.12662 -0.169977,0.29265 -0.169977,0.50993 0,0.21402 0.07823,0.38741 0.198306,0.50993 0.120076,0.12174 0.281472,0.19831 0.481601,0.19831 0.161733,0 0.289343,-0.0237 0.424941,-0.0849 l 0,-0.19831 c -0.142949,0.0621 -0.293987,0.0849 -0.453271,0.0849 -0.27446,0 -0.418414,-0.14695 -0.424941,-0.45327 l 0.963201,0 0,-0.14164 c -2e-6,-0.18216 -0.06624,-0.34382 -0.169977,-0.45327 -0.102923,-0.10944 -0.223443,-0.14164 -0.396612,-0.14165 z m 0.821554,0 0.566588,1.35981 -0.08499,0.19831 c -0.0343,0.0817 -0.0692,0.13652 -0.113318,0.16997 -0.0433,0.0335 -0.09156,0.0567 -0.169976,0.0567 -0.06045,0 -0.119338,-0.0185 -0.169977,-0.0283 l 0,0.16998 c 0.06698,0.0136 0.128058,0.0283 0.198306,0.0283 0.128244,0 0.238928,-0.0414 0.311624,-0.11332 0.07269,-0.0711 0.143578,-0.16949 0.198306,-0.31162 l 0.566589,-1.52979 -0.226636,0 -0.283294,0.82155 c -0.05473,0.14703 -0.09453,0.24847 -0.113318,0.33995 l -0.02833,0 c -0.0057,-0.0694 -0.018,-0.17249 -0.08499,-0.33995 l -0.339953,-0.82155 -0.226635,0 z m 4.53271,0 0,1.35981 0.198306,0 0,-0.70824 c 0,-0.19522 -0.0011,-0.30373 0.02833,-0.36828 0.02941,-0.0654 0.101361,-0.11332 0.169977,-0.11332 0.102102,0 0.141646,0.0992 0.141647,0.31163 l 0,0.87821 0.198306,0 0,-0.73656 c 0,-0.15929 0.0248,-0.27215 0.05666,-0.33996 0.03267,-0.0678 0.07058,-0.11332 0.141647,-0.11332 0.05064,0 0.09208,0.0384 0.113318,0.085 0.02205,0.0466 0.02833,0.10737 0.02833,0.22663 l 0,0.87822 0.198307,0 0,-0.87822 c 0,-0.17644 -0.0093,-0.29313 -0.05666,-0.36828 -0.04738,-0.076 -0.122081,-0.11331 -0.226636,-0.11332 -0.11681,10e-6 -0.221214,0.0497 -0.283294,0.19831 -0.04084,-0.14867 -0.12182,-0.1983 -0.254965,-0.19831 -0.109458,10e-6 -0.200237,0.0611 -0.254965,0.19831 l -0.05666,-0.19831 -0.141647,0 z m 2.096378,0 c -0.163369,10e-6 -0.302675,0.0467 -0.396612,0.16997 -0.09394,0.12253 -0.141647,0.28938 -0.141647,0.50993 0,0.21892 0.04853,0.38741 0.141647,0.50993 0.09394,0.12174 0.232426,0.19831 0.396612,0.19831 0.17072,0 0.275979,-0.0619 0.368283,-0.19831 l 0.02833,0 c -0.0098,0.10538 -0.02833,0.16486 -0.02833,0.19831 l 0,0.56659 0.226636,0 0,-1.95473 -0.169977,0 -0.02833,0.1983 -0.02833,0 c -0.09394,-0.13722 -0.199196,-0.19829 -0.368283,-0.1983 z m 7.59229,0 c -0.185425,10e-6 -0.342181,0.0425 -0.453271,0.16997 -0.110275,0.12662 -0.169977,0.29265 -0.169977,0.50993 0,0.21402 0.07823,0.38741 0.198306,0.50993 0.120076,0.12174 0.281473,0.19831 0.481601,0.19831 0.161734,0 0.289345,-0.0237 0.424941,-0.0849 l 0,-0.19831 c -0.142948,0.0621 -0.293987,0.0849 -0.453271,0.0849 -0.27446,0 -0.418414,-0.14695 -0.424941,-0.45327 l 0.963201,0 0,-0.14164 c -1e-6,-0.18216 -0.06624,-0.34382 -0.169977,-0.45327 -0.102923,-0.10944 -0.223442,-0.14164 -0.396612,-0.14165 z m 0.821554,0 0.566589,1.35981 -0.08499,0.19831 c -0.0343,0.0817 -0.0692,0.13652 -0.113318,0.16997 -0.0433,0.0335 -0.09156,0.0567 -0.169976,0.0567 -0.06045,0 -0.119328,-0.0185 -0.169977,-0.0283 l 0,0.16998 c 0.06699,0.0136 0.128058,0.0283 0.198306,0.0283 0.128244,0 0.238929,-0.0414 0.311624,-0.11332 0.0727,-0.0711 0.143578,-0.16949 0.198306,-0.31162 l 0.566589,-1.52979 -0.226636,0 -0.283294,0.82155 c -0.05473,0.14703 -0.09453,0.24847 -0.113318,0.33995 -0.0057,-0.0694 -0.04633,-0.17249 -0.113317,-0.33995 l -0.339954,-0.82155 -0.226635,0 z m 3.796145,0 c -0.214831,10e-6 -0.363158,0.0499 -0.481601,0.16997 -0.118439,0.12008 -0.198307,0.28041 -0.198306,0.50993 -1e-6,0.22219 0.05398,0.39067 0.169977,0.50993 0.115991,0.11847 0.3,0.19831 0.50993,0.19831 0.159284,0 0.287154,-0.0351 0.396612,-0.0849 l 0,-0.19831 c -0.133964,0.0507 -0.268368,0.0849 -0.396612,0.0849 -0.294882,0 -0.453271,-0.17829 -0.453271,-0.50993 0,-0.33735 0.17855,-0.50993 0.4816,-0.50993 0.09639,0 0.189097,0.0384 0.311624,0.085 l 0.08499,-0.19813 c -0.129062,-0.0481 -0.279544,-0.0567 -0.424941,-0.0567 z m 1.388142,0 c -0.187874,10e-6 -0.34218,0.0459 -0.453271,0.16997 -0.110274,0.12417 -0.169977,0.29511 -0.169977,0.50993 0,0.21239 0.05643,0.38251 0.169977,0.50993 0.114358,0.12665 0.248502,0.19831 0.424942,0.19831 0.186239,0 0.341363,-0.0733 0.453271,-0.19831 0.11191,-0.12497 0.169975,-0.29346 0.169976,-0.50993 -10e-7,-0.20992 -0.05643,-0.38332 -0.169976,-0.50993 -0.113543,-0.12664 -0.246871,-0.16996 -0.424942,-0.16997 z m 1.50146,0 c -0.185424,10e-6 -0.313851,0.0425 -0.424941,0.16997 -0.110276,0.12662 -0.169977,0.29265 -0.169977,0.50993 0,0.21402 0.04991,0.38741 0.169977,0.50993 0.120076,0.12174 0.281473,0.19831 0.4816,0.19831 0.161735,0 0.317674,-0.0237 0.453271,-0.0849 l 0,-0.19831 c -0.142949,0.0621 -0.293987,0.0849 -0.453271,0.0849 -0.27446,0 -0.418414,-0.14695 -0.424941,-0.45327 l 0.963201,0 0,-0.14164 c -10e-7,-0.18216 -0.06624,-0.34382 -0.169977,-0.45327 -0.102923,-0.10944 -0.251771,-0.14164 -0.424942,-0.14165 z m -22.550233,0.16997 c 0.222181,0 0.311623,0.11915 0.311624,0.36829 l -0.679907,0 c 0.02124,-0.24914 0.14365,-0.36829 0.368283,-0.36829 z m 4.476051,0 c 0.124159,0 0.198605,0.0341 0.254965,0.11332 0.05718,0.0784 0.08499,0.21119 0.08499,0.39661 l 0,0.0567 c -0.0033,0.16174 -0.03026,0.26725 -0.08499,0.33996 -0.05391,0.0719 -0.130806,0.11331 -0.254965,0.11331 -0.223816,0 -0.339953,-0.17175 -0.339953,-0.50993 0,-0.3447 0.117771,-0.50993 0.339953,-0.50993 z m 3.002921,0 c 0.12416,0 0.198605,0.0341 0.254965,0.11332 0.05718,0.0784 0.08499,0.21119 0.08499,0.39661 l 0,0.0567 c -0.0033,0.16174 -0.03026,0.26725 -0.08499,0.33996 -0.05391,0.0719 -0.130805,0.11331 -0.254965,0.11331 -0.223816,0 -0.339954,-0.17175 -0.339954,-0.50993 0,-0.3447 0.117772,-0.50993 0.339954,-0.50993 z m 7.56396,0 c 0.222181,0 0.311623,0.11915 0.311624,0.36829 l -0.679907,0 c 0.02124,-0.24914 0.14365,-0.36829 0.368283,-0.36829 z m 5.977512,0 c 0.254854,0 0.39661,0.17013 0.396612,0.50993 -2e-6,0.34309 -0.115062,0.50993 -0.368283,0.50993 -0.254039,0 -0.396612,-0.16684 -0.396612,-0.50993 0,-0.3398 0.115877,-0.50993 0.368283,-0.50993 z m 1.529789,0 c 0.222181,0 0.339953,0.11915 0.339954,0.36829 l -0.708236,0 c 0.02124,-0.24914 0.143649,-0.36829 0.368282,-0.36829 z M 46.57243,895.1097 c -0.123343,0 -0.169978,0.0627 -0.169977,0.19831 -1e-6,0.13558 0.04663,0.19831 0.169977,0.19831 0.12416,0 0.198305,-0.0627 0.198306,-0.19831 -10e-7,-0.13558 -0.07415,-0.19831 -0.198306,-0.19831 z m 15.042932,0 c -0.123343,0 -0.169976,0.0627 -0.169976,0.19831 0,0.13558 0.04663,0.19831 0.169976,0.19831 0.124161,0 0.198305,-0.0627 0.198306,-0.19831 -10e-7,-0.13558 -0.07415,-0.19831 -0.198306,-0.19831 z m -7.59229,0.0567 c -0.02859,0.18624 -0.07957,0.38774 -0.141647,0.65158 l 0.198306,0 c 0.111907,-0.2475 0.180076,-0.44028 0.226636,-0.62325 l 0,-0.0283 -0.283295,0 z m 18.017524,0.0283 c -0.03104,0.20176 -0.09101,0.38662 -0.141647,0.59492 l 0.169976,0 c 0.102105,-0.23036 0.184971,-0.40567 0.226636,-0.56659 l -0.02833,-0.0283 -0.226635,0 z m -5.750876,4.75934 c -0.36268,0.29651 -0.53826,0.67029 -0.53826,1.10485 0,0.43947 0.17558,0.78818 0.53826,1.07652 l 0.226635,0 c -0.36513,-0.30386 -0.53826,-0.65094 -0.538259,-1.07652 -10e-7,-0.4223 0.171495,-0.79771 0.538259,-1.10485 l -0.226635,0 z m 6.997371,0 c 0.365946,0.30631 0.538259,0.68173 0.538259,1.10485 0,0.42639 -0.173947,0.77347 -0.538259,1.07652 l 0.226636,0 c 0.363495,-0.28671 0.538258,-0.63542 0.538259,-1.07652 -10e-7,-0.43619 -0.174764,-0.80997 -0.538259,-1.10485 l -0.226636,0 z m -31.389019,0.085 -0.08499,0.36828 -0.339953,0.0567 0,0.11332 0.339953,0 0,0.76489 c 0,0.28099 0.157573,0.42494 0.453271,0.42494 0.09965,0 0.177104,-0.002 0.283295,-0.0283 l 0,-0.16998 c -0.120077,0.0176 -0.207327,0.0283 -0.283295,0.0283 -0.156835,0 -0.226635,-0.0957 -0.226635,-0.25497 l 0,-0.76489 0.538259,0 0,-0.16998 -0.538259,0 0,-0.36828 -0.141648,0 z m 22.578564,0 -0.08499,0.36828 -0.339953,0.0567 0,0.11332 0.339953,0 0,0.76489 c 0,0.28099 0.129243,0.42494 0.424942,0.42494 0.09965,0 0.205432,-0.002 0.311624,-0.0283 l 0,-0.16998 c -0.120078,0.0176 -0.207327,0.0283 -0.283295,0.0283 -0.156835,0 -0.254966,-0.0957 -0.254965,-0.25497 l 0,-0.76489 0.53826,0 0,-0.16998 -0.53826,0 0,-0.36828 -0.113317,0 z m 3.00292,0 -0.08499,0.36828 -0.339954,0.0567 0,0.11332 0.339954,0 0,0.76489 c -10e-7,0.28099 0.129243,0.42494 0.424941,0.42494 0.09965,0 0.205434,-0.002 0.311624,-0.0283 l 0,-0.16998 c -0.120077,0.0176 -0.207326,0.0283 -0.283294,0.0283 -0.156836,0 -0.226637,-0.0957 -0.226636,-0.25497 l 0,-0.76489 0.53826,0 0,-0.16998 -0.53826,0 0,-0.36828 -0.141647,0 z m 4.504381,0 -0.08499,0.36828 -0.311624,0.0567 0,0.11332 0.311624,0 0,0.76489 c -1e-6,0.28099 0.157572,0.42494 0.453271,0.42494 0.09965,0 0.205432,-0.002 0.311623,-0.0283 l 0,-0.16998 c -0.120076,0.0176 -0.235655,0.0283 -0.311623,0.0283 -0.156836,0 -0.226637,-0.0957 -0.226636,-0.25497 l 0,-0.76489 0.538259,0 0,-0.16998 -0.538259,0 0,-0.36828 -0.141647,0 z m -31.389019,0.33995 c -0.185424,0 -0.34218,0.0709 -0.453271,0.19831 -0.08801,0.10104 -0.122702,0.23933 -0.141647,0.39661 0.05996,0.21495 0.104443,0.43901 0.169977,0.65157 0.116481,0.10107 0.269369,0.14165 0.453271,0.14165 0.161734,0 0.317674,-0.0237 0.453271,-0.0849 l 0,-0.19831 c -0.142949,0.0621 -0.293987,0.0849 -0.453271,0.0849 -0.27446,0 -0.418415,-0.14696 -0.424942,-0.45328 l 0.963201,0 0,-0.14164 c -10e-7,-0.18216 -0.06624,-0.31548 -0.169977,-0.42494 -0.102923,-0.10943 -0.223441,-0.16998 -0.396612,-0.16998 z m 4.731017,0 c -0.103741,0 -0.183902,0.015 -0.254965,0.0567 -0.07106,0.0417 -0.136226,0.12943 -0.198306,0.22663 l -0.02833,0 -0.02833,-0.25496 -0.169977,0 0,1.33148 0.226636,0 0,-0.70823 c 0,-0.14295 0.04144,-0.2648 0.113317,-0.33996 0.0727,-0.076 0.178478,-0.11331 0.311624,-0.11331 0.08251,0 0.154491,0.0199 0.254965,0.0567 l 0.05666,-0.1983 c -0.09966,-0.0367 -0.186908,-0.0567 -0.283294,-0.0567 z m 1.331483,0 c -0.190325,0 -0.312476,0.0611 -0.396612,0.19831 l -0.02833,0 -0.02833,-0.16998 -0.169976,0 0,1.33148 0.198306,0 0,-0.6799 c 0,-0.32511 0.14584,-0.4816 0.396612,-0.4816 0.194408,0 0.283293,0.0992 0.283294,0.31162 l 0,0.84988 0.226636,0 0,-0.87821 c -10e-7,-0.32756 -0.163849,-0.4816 -0.481601,-0.4816 z m 3.172897,0 c -0.10374,0 -0.183901,0.015 -0.254965,0.0567 -0.07106,0.0417 -0.136226,0.12943 -0.198306,0.22663 l -0.02833,-0.25496 -0.198306,0 0,1.33148 0.226635,0 0,-0.70823 c 0,-0.14295 0.04144,-0.2648 0.113318,-0.33996 0.0727,-0.076 0.178477,-0.11331 0.311624,-0.11331 0.0825,0 0.182821,0.0199 0.283294,0.0567 l 0.05666,-0.1983 c -0.09966,-0.0367 -0.215237,-0.0567 -0.311624,-0.0567 z m 1.303155,0 c -0.16092,0 -0.305126,0.0213 -0.396613,0.0849 -0.09067,0.0629 -0.141647,0.17221 -0.141647,0.2833 0,0.0809 0.03598,0.13865 0.08499,0.1983 0.04982,0.0588 0.177957,0.12724 0.368282,0.19831 0.144581,0.0523 0.243271,0.0791 0.283295,0.11332 0.04002,0.0343 0.05666,0.0951 0.05666,0.14164 -1e-6,0.13232 -0.115323,0.19831 -0.339954,0.19831 -0.144582,0 -0.29562,-0.0431 -0.453271,-0.11332 l 0,0.19831 c 0.103739,0.0564 0.250693,0.0849 0.453271,0.0849 0.174803,0 0.30104,-0.0155 0.396612,-0.0849 0.09557,-0.0703 0.141646,-0.1891 0.141648,-0.31163 0,-0.0882 -0.02781,-0.16616 -0.08499,-0.22663 -0.05636,-0.0613 -0.1676,-0.10706 -0.339953,-0.16998 -0.148666,-0.0531 -0.241639,-0.11227 -0.283294,-0.14165 -0.04084,-0.0303 -0.05666,-0.0634 -0.05666,-0.11331 -10e-7,-0.10866 0.09052,-0.14165 0.283294,-0.14165 0.111907,0 0.247946,0.0262 0.396612,0.0849 l 0.08499,-0.1983 c -0.139681,-0.0605 -0.291537,-0.085 -0.453271,-0.085 z m 1.444801,0 c -0.15275,0 -0.3215,0.0349 -0.4816,0.11332 l 0.08499,0.16997 c 0.147848,-0.067 0.276535,-0.0849 0.396612,-0.0849 0.199309,0 0.311623,0.0906 0.311624,0.2833 l 0,0.0849 -0.254965,0 c -0.416592,0.0131 -0.623248,0.15375 -0.623248,0.42494 0,0.12661 0.03817,0.21304 0.113318,0.28329 0.07597,0.0703 0.178478,0.11332 0.311624,0.11332 0.104556,0 0.188796,0.002 0.254965,-0.0283 0.06617,-0.031 0.13541,-0.0907 0.198306,-0.16998 l 0.05666,0.16998 0.141647,0 0,-0.90654 c -10e-7,-0.15684 -0.03,-0.26888 -0.113318,-0.33996 -0.0825,-0.0711 -0.211189,-0.11332 -0.396612,-0.11332 z m 3.059579,0 c -0.185424,0 -0.34218,0.0709 -0.453271,0.19831 -0.110274,0.1266 -0.169977,0.29265 -0.169976,0.50993 -1e-6,0.21401 0.0499,0.3874 0.169976,0.50993 0.120076,0.12173 0.281474,0.16997 0.481601,0.16997 0.161734,0 0.317674,-0.0237 0.453271,-0.0849 l 0,-0.19831 c -0.142949,0.0621 -0.293988,0.0849 -0.453271,0.0849 -0.274461,0 -0.418415,-0.14696 -0.424942,-0.45328 l 0.963201,0 0,-0.14164 c -10e-7,-0.18216 -0.06624,-0.31548 -0.169976,-0.42494 -0.102924,-0.10943 -0.223442,-0.16998 -0.396613,-0.16998 z m 1.55812,0 c -0.190326,0 -0.340806,0.0611 -0.424942,0.19831 l -0.02833,-0.16998 -0.198306,0 0,1.33148 0.226635,0 0,-0.6799 c -10e-7,-0.32511 0.14584,-0.4816 0.396612,-0.4816 0.194408,0 0.283294,0.0992 0.283295,0.31162 l 0,0.84988 0.226635,0 0,-0.87821 c -10e-7,-0.32756 -0.163849,-0.4816 -0.4816,-0.4816 z m 1.558119,0 c -0.214832,0 -0.391489,0.05 -0.50993,0.16998 -0.11844,0.12008 -0.169977,0.30873 -0.169977,0.53826 0,0.22218 0.05398,0.39067 0.169977,0.50993 0.115991,0.11846 0.271671,0.16997 0.4816,0.16997 0.159283,0 0.315484,-0.006 0.424942,-0.0567 l 0,-0.1983 c -0.133963,0.0507 -0.268368,0.0567 -0.396612,0.0567 -0.294882,0 -0.453272,-0.14996 -0.453271,-0.4816 -10e-7,-0.33737 0.150221,-0.50993 0.453271,-0.50993 0.09639,0 0.217426,0.0102 0.339953,0.0567 l 0.05666,-0.16997 c -0.129064,-0.0481 -0.251216,-0.085 -0.396612,-0.085 z m 1.614778,0 c -0.10374,0 -0.183901,0.015 -0.254965,0.0567 -0.07106,0.0417 -0.136226,0.12943 -0.198306,0.22663 l -0.02833,0 -0.02833,-0.25496 -0.169977,0 0,1.33148 0.226636,0 0,-0.70823 c -1e-6,-0.14295 0.04144,-0.2648 0.113318,-0.33996 0.0727,-0.076 0.178477,-0.11331 0.311623,-0.11331 0.08251,0 0.154492,0.0199 0.254965,0.0567 l 0.05666,-0.1983 c -0.09966,-0.0367 -0.186908,-0.0567 -0.283294,-0.0567 z m 2.832944,0 c -0.173172,0 -0.306765,0.0611 -0.396612,0.19831 l -0.02833,0 -0.02833,-0.16998 -0.169977,0 0,1.95473 0.226636,0 0,-0.59492 c 0,-0.0269 -0.01853,-0.0929 -0.02833,-0.1983 l 0.02833,0 c 0.09394,0.1299 0.227524,0.1983 0.396612,0.1983 0.163368,0 0.274345,-0.0474 0.368282,-0.16997 0.09394,-0.12335 0.141647,-0.31772 0.141648,-0.53826 -10e-7,-0.21892 -0.04771,-0.38822 -0.141648,-0.50993 -0.09312,-0.12251 -0.204098,-0.16998 -0.368282,-0.16998 z m 5.977511,0 c -0.185424,0 -0.34218,0.0709 -0.453271,0.19831 -0.110275,0.1266 -0.169976,0.29265 -0.169976,0.50993 0,0.21401 0.0499,0.3874 0.169976,0.50993 0.120076,0.12173 0.281474,0.16997 0.481601,0.16997 0.161734,0 0.317673,-0.0237 0.453271,-0.0849 l 0,-0.19831 c -0.142949,0.0621 -0.293987,0.0849 -0.453271,0.0849 -0.27446,0 -0.418415,-0.14696 -0.424942,-0.45328 l 0.963201,0 0,-0.14164 c -2e-6,-0.18216 -0.06624,-0.31548 -0.169976,-0.42494 -0.102925,-0.10943 -0.223442,-0.16998 -0.396613,-0.16998 z m 6.005842,0 c -0.103737,0 -0.169978,0.0565 -0.169977,0.16998 -10e-7,0.11356 0.06623,0.16997 0.169977,0.16997 0.103736,0 0.141646,-0.0564 0.141647,-0.16997 -1e-6,-0.11357 -0.03791,-0.16998 -0.141647,-0.16998 z m -32.182243,0.0283 0,0.87822 c 0,0.32755 0.162213,0.4816 0.4816,0.4816 0.187057,0 0.339174,-0.0619 0.424942,-0.19831 l 0.02833,0.16998 0.198306,0 0,-1.33149 -0.226635,0 0,0.67991 c -10e-7,0.17317 -0.02454,0.32064 -0.08499,0.39661 -0.06045,0.0752 -0.180112,0.11332 -0.311624,0.11332 -0.192776,0 -0.283294,-0.12757 -0.283294,-0.33995 l 0,-0.84989 -0.226635,0 z m 17.960864,0 0.566589,1.35982 -0.05666,0.16997 c -0.0343,0.0817 -0.09754,0.13644 -0.141647,0.16998 -0.0433,0.0335 -0.09156,0.0567 -0.169977,0.0567 -0.06045,0 -0.119328,0.01 -0.169977,0 l 0,0.16998 c 0.06699,0.0136 0.128059,0.0283 0.198307,0.0283 0.128244,0 0.238919,-0.0414 0.311623,-0.11332 0.0727,-0.0711 0.143579,-0.16949 0.198306,-0.31162 l 0.566589,-1.52979 -0.226635,0 -0.283295,0.79322 c -0.05473,0.14703 -0.09453,0.2768 -0.113317,0.36829 -0.0057,-0.0694 -0.04633,-0.20083 -0.113318,-0.36829 l -0.339953,-0.79322 -0.226636,0 z m 9.09375,0 0.481601,0.65158 -0.50993,0.67991 0.254965,0 0.368282,-0.53826 0.368283,0.53826 0.254965,0 -0.50993,-0.67991 0.50993,-0.65158 -0.254965,0 -0.368283,0.50993 -0.368282,-0.50993 -0.226636,0 z m -29.632593,0.16998 c 0.04344,-0.0156 0.08549,0 0.141647,0 0.222181,0 0.339952,0.11915 0.339953,0.36828 l -0.708236,0 c 0.01593,-0.18684 0.0963,-0.32157 0.226636,-0.36828 z m 15.042932,0 c 0.04344,-0.0156 0.08549,0 0.141647,0 0.222181,0 0.339951,0.11915 0.339953,0.36828 l -0.708236,0 c 0.01593,-0.18684 0.0963,-0.32157 0.226636,-0.36828 z m 7.507301,0 c 0.04472,-0.0179 0.107897,0 0.169977,0 0.223814,0 0.339952,0.14342 0.339953,0.4816 -10e-7,0.3447 -0.117771,0.53826 -0.339953,0.53826 -0.124161,0 -0.197789,-0.0349 -0.254965,-0.11332 -0.05636,-0.0792 -0.08499,-0.23952 -0.08499,-0.42494 l 0,-0.0283 c 0.0033,-0.16255 0.03108,-0.2964 0.08499,-0.36829 0.02737,-0.0359 0.04027,-0.067 0.08499,-0.0849 z m 6.034171,0 c 0.04345,-0.0156 0.08549,0 0.141647,0 0.222181,0 0.339952,0.11915 0.339953,0.36828 l -0.708236,0 c 0.01593,-0.18684 0.0963,-0.32157 0.226636,-0.36828 z m -16.317757,0.50993 0.198306,0 0,0.11332 c -1e-6,0.12089 -0.04144,0.2163 -0.113318,0.28329 -0.07106,0.0662 -0.163218,0.11332 -0.283294,0.11332 -0.163365,0 -0.254966,-0.0812 -0.254965,-0.22664 -10e-7,-0.0898 0.04633,-0.15497 0.113318,-0.1983 0.06698,-0.0441 0.17985,-0.0786 0.339953,-0.0849 z m 1.416472,0.28329 c -0.123343,10e-6 -0.198307,0.0627 -0.198306,0.19831 -10e-7,0.13558 0.07496,0.22664 0.198306,0.22664 0.124161,0 0.169975,-0.091 0.169976,-0.22664 -10e-7,-0.13559 -0.04582,-0.1983 -0.169976,-0.19831 z m 20.935455,0.085 c -0.03104,0.20177 -0.06268,0.41495 -0.113317,0.62324 l 0.141647,0 c 0.102105,-0.23035 0.18498,-0.43399 0.226635,-0.59491 l -0.02833,-0.0283 -0.226636,0 z"
       id="path6570"
       inkscape:connector-curvature="0" />
    <g
       style="font-size:2.7680428px;font-style:normal;font-variant:normal;font-weight:normal;font-stretch:normal;line-height:125%;letter-spacing:0px;word-spacing:0px;fill:#000000;fill-opacity:1;stroke:none;font-family:Droid Sans Mono;-inkscape-font-specification:Droid Sans Mono"
       id="text6302" />
    <rect
       style="fill:#ffffff;fill-opacity:1;fill-rule:nonzero;stroke:#0f9793;stroke-opacity:1;stroke-width:1;stroke-miterlimit:4;stroke-dasharray:none"
       id="rect6575"
       width="20"
       height="20"
       x="115"
       y="225"
       transform="translate(0,752.36205)"
       ry="1.351728" />
    <rect
       style="fill:#ffffff;fill-opacity:1;fill-rule:nonzero;stroke:#0f9793;stroke-width:1;stroke-miterlimit:4;stroke-opacity:1;stroke-dasharray:none"
       id="rect6575-9"
       width="20"
       height="20"
       x="115"
       y="1002.3621"
       ry="1.351728" />
    <rect
       style="fill:#ffffff;fill-opacity:1;fill-rule:nonzero;stroke:#0f9793;stroke-width:1;stroke-miterlimit:4;stroke-opacity:1;stroke-dasharray:none"
       id="rect6575-9-3"
       width="20"
       height="20"
       x="115"
       y="1027.3621"
       ry="1.351728" />
    <rect
       style="fill:#ffffff;fill-opacity:1;fill-rule:nonzero;stroke:#0f9793;stroke-width:1;stroke-miterlimit:4;stroke-opacity:1;stroke-dasharray:none"
       id="rect6575-9-3-0"
       width="47"
       height="20"
       x="140"
       y="1027.3621"
       ry="1.351728" />
  </g>
</svg>
