<?xml version="1.0" encoding="UTF-8" standalone="no"?>
<!-- Created with Inkscape (http://www.inkscape.org/) -->

<svg
   xmlns:dc="http://purl.org/dc/elements/1.1/"
   xmlns:cc="http://creativecommons.org/ns#"
   xmlns:rdf="http://www.w3.org/1999/02/22-rdf-syntax-ns#"
   xmlns:svg="http://www.w3.org/2000/svg"
   xmlns="http://www.w3.org/2000/svg"
   xmlns:xlink="http://www.w3.org/1999/xlink"
   version="1.2"
   width="352.2713"
   height="127.05975"
   id="svg4097">
  <defs
     id="defs4099">
    <filter
       x="-0.53497499"
       y="-1.03938"
       width="2.0699501"
       height="3.0787599"
       color-interpolation-filters="sRGB"
       id="filter7372-9-8">
      <feGaussianBlur
         id="feGaussianBlur7374-3-4"
         stdDeviation="32.480623" />
    </filter>
    <filter
       x="-0.13045585"
       y="-0.14232992"
       width="1.2609117"
       height="1.2846597"
       color-interpolation-filters="sRGB"
       id="filter6981-6-0-7">
      <feGaussianBlur
         id="feGaussianBlur6983-5-8-6"
         stdDeviation="4.5960701" />
    </filter>
    <linearGradient
       x1="470"
       y1="117.36219"
       x2="500"
       y2="117.36219"
       id="linearGradient5843"
       xlink:href="#linearGradient7003-2-7-0"
       gradientUnits="userSpaceOnUse"
       gradientTransform="matrix(0.78815969,0,0,0.78815969,33.730759,-2848.8001)" />
    <linearGradient
       id="linearGradient7003-2-7-0">
      <stop
         id="stop7005-4-9-1"
         style="stop-color:#ffff00;stop-opacity:1"
         offset="0" />
      <stop
         id="stop7007-0-4-4"
         style="stop-color:#ffff00;stop-opacity:0"
         offset="1" />
    </linearGradient>
    <linearGradient
       x1="459.5"
       y1="162.36218"
       x2="500.5"
       y2="162.36218"
       id="linearGradient5845"
       xlink:href="#linearGradient6721-4-8-1-8"
       gradientUnits="userSpaceOnUse"
       gradientTransform="matrix(0.78815969,0,0,0.78815969,33.730759,-2848.8001)" />
    <linearGradient
       id="linearGradient6721-4-8-1-8">
      <stop
         id="stop6723-0-2-9-2"
         style="stop-color:#000000;stop-opacity:0.3125"
         offset="0" />
      <stop
         id="stop6725-7-3-4-5"
         style="stop-color:#c6240d;stop-opacity:0"
         offset="1" />
    </linearGradient>
  </defs>
  <metadata
     id="metadata4102">
    <rdf:RDF>
      <cc:Work
         rdf:about="">
        <dc:format>image/svg+xml</dc:format>
        <dc:type
           rdf:resource="http://purl.org/dc/dcmitype/StillImage" />
        <dc:title></dc:title>
      </cc:Work>
    </rdf:RDF>
  </metadata>
  <g
     transform="translate(-83.864338,-177.4038)"
     id="layer1">
    <g
       transform="matrix(1.7719645,0,0,1.7719645,-104.57158,-1804.6235)"
       id="flowRoot4720"
       style="font-size:15px;font-style:normal;font-variant:normal;font-weight:normal;font-stretch:normal;line-height:125%;letter-spacing:0px;word-spacing:0px;fill:#4f2e00;fill-opacity:1;stroke:none;display:inline;font-family:Droid Serif;-inkscape-font-specification:Droid Serif">
      <path
         d="m 132.00879,1149.5743 0,-0.6298 0.19043,0 c 0.1709,0 0.32959,-0.012 0.47607,-0.037 0.15137,-0.024 0.2832,-0.073 0.39551,-0.1464 0.1123,-0.078 0.20019,-0.188 0.26367,-0.3296 0.0635,-0.1416 0.0952,-0.3296 0.0952,-0.564 l 0,-7.3535 c 0,-0.2197 -0.0342,-0.3955 -0.10254,-0.5274 -0.0635,-0.1367 -0.15137,-0.2416 -0.26367,-0.3149 -0.11231,-0.073 -0.24415,-0.1196 -0.39551,-0.1392 -0.14649,-0.024 -0.30274,-0.037 -0.46875,-0.037 l -0.19043,0 0,-0.6299 4.21142,0 c 0.62988,10e-5 1.17676,0.073 1.64063,0.2198 0.46386,0.1416 0.84716,0.3491 1.1499,0.6225 0.30273,0.2686 0.52734,0.5957 0.67383,0.9815 0.15136,0.3857 0.22704,0.8227 0.22705,1.311 -1e-5,0.4443 -0.0708,0.8716 -0.2124,1.2817 -0.13673,0.4102 -0.36378,0.774 -0.68115,1.0914 -0.31739,0.3125 -0.73243,0.5639 -1.24512,0.7543 -0.5127,0.1856 -1.14014,0.2784 -1.88233,0.2784 l -0.94482,0 0,2.5341 c 0,0.2198 0.0317,0.398 0.0952,0.5347 0.0684,0.1319 0.15868,0.2319 0.27099,0.3003 0.1123,0.068 0.2417,0.1148 0.38819,0.1392 0.15136,0.02 0.31005,0.029 0.47607,0.029 l 0.49805,0 0,0.6298 -4.66553,0 m 2.93701,-4.8779 0.79834,0 c 0.4541,0 0.84228,-0.046 1.16455,-0.1391 0.32226,-0.098 0.58593,-0.2515 0.79102,-0.4615 0.20507,-0.2148 0.35399,-0.4882 0.44677,-0.8203 0.0977,-0.3369 0.14648,-0.7422 0.14649,-1.2158 -1e-5,-0.4199 -0.0415,-0.7837 -0.12451,-1.0913 -0.083,-0.3125 -0.21729,-0.5713 -0.40284,-0.7764 -0.18555,-0.205 -0.42725,-0.3564 -0.72509,-0.4541 -0.29298,-0.1025 -0.65186,-0.1538 -1.07666,-0.1538 l -1.01807,0 0,5.1123"
         id="path4319"
         style="fill:#4f2e00;font-family:Droid Serif;-inkscape-font-specification:Droid Serif" />
      <path
         d="m 148.80322,1147.7433 c 0.2539,0.4004 0.50048,0.7007 0.73975,0.9009 0.23925,0.2002 0.51757,0.3003 0.83496,0.3003 l 0.0439,0 0,0.6298 -0.2124,0 c -0.46876,0 -0.8545,-0.017 -1.15722,-0.051 -0.29786,-0.034 -0.55177,-0.1001 -0.76172,-0.1978 -0.20997,-0.098 -0.39064,-0.2344 -0.54199,-0.4101 -0.1465,-0.1758 -0.30519,-0.4053 -0.47608,-0.6885 l -2.02881,-3.3765 -1.24511,0 0,3.0908 c -1e-5,0.2198 0.0317,0.398 0.0952,0.5347 0.0684,0.1319 0.15869,0.2319 0.271,0.3003 0.1123,0.068 0.24169,0.1148 0.38818,0.1392 0.15136,0.02 0.31005,0.029 0.47607,0.029 l 0.19776,0 0,0.6298 -4.36524,0 0,-0.6298 0.19043,0 c 0.16602,0 0.32227,-0.01 0.46875,-0.029 0.15137,-0.024 0.2832,-0.071 0.39551,-0.1392 0.1123,-0.068 0.20019,-0.1684 0.26367,-0.3003 0.0684,-0.1367 0.10254,-0.3149 0.10254,-0.5347 l 0,-7.4267 c 0,-0.2197 -0.0342,-0.3955 -0.10254,-0.5274 -0.0635,-0.1367 -0.15137,-0.2416 -0.26367,-0.3149 -0.11231,-0.073 -0.24414,-0.1196 -0.39551,-0.1392 -0.14648,-0.024 -0.30273,-0.037 -0.46875,-0.037 l -0.19043,0 0,-0.6299 4.03565,0 c 1.29882,10e-5 2.26562,0.2417 2.90039,0.7251 0.63476,0.4786 0.95214,1.2012 0.95215,2.168 -1e-5,0.4004 -0.0659,0.752 -0.19776,1.0547 -0.12696,0.2979 -0.29541,0.5566 -0.50537,0.7764 -0.20997,0.2197 -0.44678,0.4028 -0.71045,0.5493 -0.26368,0.1465 -0.52735,0.2637 -0.79101,0.3515 l 2.0581,3.252 m -4.80468,-3.5962 1.05468,0 c 0.43945,0 0.80566,-0.049 1.09864,-0.1465 0.29296,-0.098 0.52733,-0.2441 0.70312,-0.4394 0.17578,-0.1953 0.30029,-0.4395 0.37354,-0.7325 0.0781,-0.2929 0.11718,-0.6347 0.11718,-1.0253 0,-0.4004 -0.0415,-0.7398 -0.12451,-1.0181 -0.083,-0.2832 -0.21729,-0.5127 -0.40283,-0.6885 -0.18555,-0.1806 -0.42725,-0.31 -0.7251,-0.3882 -0.29297,-0.083 -0.65186,-0.1245 -1.07666,-0.1245 l -1.01806,0 0,4.563"
         id="path4321"
         style="fill:#4f2e00;font-family:Droid Serif;-inkscape-font-specification:Droid Serif" />
      <path
         d="m 160.31689,1144.2057 c -1e-5,0.8252 -0.10254,1.5771 -0.30761,2.2559 -0.20509,0.6787 -0.50782,1.2597 -0.90821,1.7431 -0.4004,0.4834 -0.89356,0.857 -1.47949,1.1206 -0.58594,0.2637 -1.25733,0.3955 -2.01416,0.3955 -0.7959,0 -1.48926,-0.1318 -2.08008,-0.3955 -0.59082,-0.2636 -1.08154,-0.6372 -1.47216,-1.1206 -0.39063,-0.4834 -0.6836,-1.0644 -0.87891,-1.7431 -0.19531,-0.6836 -0.29297,-1.4405 -0.29297,-2.2706 0,-0.83 0.0977,-1.582 0.29297,-2.2558 0.19531,-0.6787 0.48828,-1.2573 0.87891,-1.7359 0.39062,-0.4785 0.88378,-0.8471 1.47949,-1.1059 0.5957,-0.2637 1.2915,-0.3955 2.0874,-0.3955 0.75683,0 1.42577,0.1318 2.00684,0.3955 0.58104,0.2588 1.07176,0.6299 1.47216,1.1133 0.40039,0.4785 0.70312,1.0571 0.90821,1.7358 0.20507,0.6738 0.3076,1.4282 0.30761,2.2632 m -7.77099,0 c 0,0.7422 0.0537,1.4062 0.16113,1.9922 0.1123,0.581 0.29053,1.0742 0.53467,1.4795 0.24414,0.4004 0.55908,0.708 0.94482,0.9228 0.39062,0.21 0.86426,0.315 1.4209,0.315 0.55664,0 1.02783,-0.105 1.41358,-0.315 0.39061,-0.2148 0.70555,-0.5224 0.94482,-0.9228 0.24413,-0.4053 0.41991,-0.8985 0.52734,-1.4795 0.10742,-0.586 0.16113,-1.25 0.16114,-1.9922 -1e-5,-0.7422 -0.0537,-1.4038 -0.16114,-1.9849 -0.10743,-0.5859 -0.28321,-1.0791 -0.52734,-1.4795 -0.23927,-0.4003 -0.55176,-0.7055 -0.9375,-0.9155 -0.38087,-0.2099 -0.84962,-0.3149 -1.40625,-0.3149 -0.55665,0 -1.03028,0.105 -1.4209,0.3149 -0.39063,0.21 -0.71045,0.5152 -0.95947,0.9155 -0.24414,0.4004 -0.42237,0.8936 -0.53467,1.4795 -0.10742,0.5811 -0.16113,1.2427 -0.16113,1.9849"
         id="path4323"
         style="fill:#4f2e00;font-family:Droid Serif;-inkscape-font-specification:Droid Serif" />
      <path
         d="m 166.22021,1147.8678 c 0,0.2344 0.0317,0.4224 0.0952,0.564 0.0684,0.1416 0.15624,0.2514 0.26367,0.3296 0.1123,0.073 0.24414,0.122 0.39551,0.1464 0.15136,0.024 0.31005,0.037 0.47607,0.037 l 0.34424,0 0,0.6298 -4.66553,0 0,-0.6298 0.34424,0 c 0.16602,0 0.32227,-0.01 0.46875,-0.029 0.15137,-0.024 0.2832,-0.071 0.39551,-0.1392 0.1123,-0.068 0.20019,-0.1684 0.26367,-0.3003 0.0684,-0.1367 0.10254,-0.3149 0.10254,-0.5347 l 0,-8.3276 -1.43555,0 c -0.21972,0 -0.40527,0.034 -0.55664,0.1025 -0.14648,0.063 -0.26855,0.1514 -0.36621,0.2637 -0.0928,0.1123 -0.16357,0.2442 -0.2124,0.3955 -0.0439,0.1465 -0.0757,0.3028 -0.0952,0.4688 l -0.0806,0.6445 -0.77637,0 0.0732,-2.6221 8.44483,0 0.0732,2.6221 -0.77637,0 -0.0732,-0.6445 c -0.0195,-0.166 -0.0537,-0.3223 -0.10254,-0.4688 -0.0488,-0.1513 -0.11963,-0.2832 -0.2124,-0.3955 -0.0928,-0.1123 -0.21485,-0.2002 -0.36621,-0.2637 -0.15138,-0.068 -0.33936,-0.1025 -0.56397,-0.1025 l -1.45752,0 0,8.2544"
         id="path4325"
         style="fill:#4f2e00;font-family:Droid Serif;-inkscape-font-specification:Droid Serif" />
      <path
         d="m 173.58838,1148.8273 2.89307,0 c 0.23925,0 0.44188,-0.032 0.60791,-0.095 0.17089,-0.068 0.31249,-0.1587 0.4248,-0.271 0.1123,-0.1123 0.20019,-0.2417 0.26367,-0.3882 0.0635,-0.1514 0.10742,-0.3101 0.13184,-0.4761 l 0.10254,-0.6445 0.78369,0 -0.10254,2.622 -8.04199,0 0,-0.6298 0.19043,0 c 0.16601,0 0.32226,-0.01 0.46875,-0.029 0.15136,-0.024 0.2832,-0.071 0.3955,-0.1392 0.11231,-0.068 0.2002,-0.1684 0.26368,-0.3003 0.0684,-0.1367 0.10253,-0.3149 0.10254,-0.5347 l 0,-7.3681 c -1e-5,-0.2344 -0.0317,-0.4224 -0.0952,-0.564 -0.0635,-0.1416 -0.15137,-0.249 -0.26367,-0.3222 -0.11231,-0.078 -0.24414,-0.1294 -0.39551,-0.1539 -0.14648,-0.024 -0.30518,-0.037 -0.47607,-0.037 l -0.19043,0 0,-0.6299 7.55859,0 0.0732,2.6221 -0.77636,0 -0.0733,-0.6445 c -0.0195,-0.166 -0.0586,-0.3223 -0.11718,-0.4688 -0.0537,-0.1513 -0.13429,-0.2832 -0.2417,-0.3955 -0.10255,-0.1123 -0.23438,-0.2002 -0.39551,-0.2637 -0.15626,-0.068 -0.34669,-0.1025 -0.57129,-0.1025 l -2.51953,0 0,3.9917 3.61816,0 0,0.7324 -3.61816,0 0,4.4898"
         id="path4327"
         style="fill:#4f2e00;font-family:Droid Serif;-inkscape-font-specification:Droid Serif" />
      <path
         d="m 185.09473,1138.7125 c 0.51269,0 0.95702,0.044 1.333,0.1319 0.38086,0.083 0.6958,0.2002 0.94483,0.3515 0.2539,0.1514 0.44188,0.3296 0.56396,0.5347 0.12695,0.2051 0.19042,0.4273 0.19043,0.6665 -1e-5,0.1611 -0.0342,0.3076 -0.10254,0.4395 -0.0635,0.1269 -0.15381,0.2368 -0.27099,0.3295 -0.1172,0.088 -0.25636,0.1563 -0.41748,0.2051 -0.15626,0.049 -0.32716,0.073 -0.5127,0.073 -1e-5,-0.2344 -0.0317,-0.4663 -0.0952,-0.6958 -0.0586,-0.2295 -0.1587,-0.4346 -0.3003,-0.6153 -0.13672,-0.1855 -0.31739,-0.3344 -0.54199,-0.4467 -0.21973,-0.1172 -0.49317,-0.1758 -0.82031,-0.1758 -0.56641,0 -1.04737,0.105 -1.44287,0.3149 -0.39551,0.2051 -0.71778,0.5078 -0.9668,0.9082 -0.24902,0.3955 -0.42969,0.8863 -0.54199,1.4722 -0.11231,0.581 -0.16846,1.2475 -0.16846,1.9995 0,0.6689 0.0586,1.2817 0.17578,1.8384 0.11719,0.5566 0.30274,1.0351 0.55664,1.4355 0.25391,0.3955 0.57617,0.7031 0.9668,0.9229 0.3955,0.2197 0.86914,0.3296 1.4209,0.3296 0.3662,0 0.68847,-0.034 0.9668,-0.1026 0.28319,-0.073 0.53222,-0.1684 0.74707,-0.2856 0.21483,-0.1172 0.40282,-0.2515 0.56396,-0.4029 0.16601,-0.1562 0.31249,-0.3173 0.43945,-0.4834 0.083,0.054 0.15136,0.127 0.20508,0.2198 0.0537,0.093 0.0806,0.2148 0.0806,0.3662 -1e-5,0.1904 -0.0659,0.3857 -0.19775,0.5859 -0.12697,0.1953 -0.32228,0.3736 -0.58594,0.5347 -0.26368,0.1611 -0.59815,0.2954 -1.00342,0.4028 -0.40528,0.1026 -0.88624,0.1538 -1.44287,0.1538 -0.74708,0 -1.40381,-0.1318 -1.97022,-0.3955 -0.56641,-0.2636 -1.04248,-0.6372 -1.42822,-1.1206 -0.38086,-0.4834 -0.66895,-1.0644 -0.86426,-1.7431 -0.19531,-0.6788 -0.29297,-1.4307 -0.29297,-2.2559 0,-0.8105 0.10254,-1.5527 0.30762,-2.2266 0.20508,-0.6738 0.50781,-1.2524 0.90821,-1.7358 0.40527,-0.4834 0.9082,-0.8594 1.50878,-1.1279 0.60059,-0.2686 1.29639,-0.4029 2.08741,-0.4029"
         id="path4329"
         style="fill:#4f2e00;font-family:Droid Serif;-inkscape-font-specification:Droid Serif" />
      <path
         d="m 193.96436,1147.8678 c -1e-5,0.2344 0.0317,0.4224 0.0952,0.564 0.0683,0.1416 0.15624,0.2514 0.26367,0.3296 0.1123,0.073 0.24414,0.122 0.39551,0.1464 0.15136,0.024 0.31005,0.037 0.47607,0.037 l 0.34424,0 0,0.6298 -4.66552,0 0,-0.6298 0.34423,0 c 0.16602,0 0.32227,-0.01 0.46875,-0.029 0.15137,-0.024 0.2832,-0.071 0.39551,-0.1392 0.1123,-0.068 0.20019,-0.1684 0.26367,-0.3003 0.0684,-0.1367 0.10254,-0.3149 0.10254,-0.5347 l 0,-8.3276 -1.43554,0 c -0.21973,0 -0.40528,0.034 -0.55665,0.1025 -0.14648,0.063 -0.26855,0.1514 -0.36621,0.2637 -0.0928,0.1123 -0.16357,0.2442 -0.2124,0.3955 -0.0439,0.1465 -0.0757,0.3028 -0.0952,0.4688 l -0.0806,0.6445 -0.77637,0 0.0733,-2.6221 8.44482,0 0.0732,2.6221 -0.77637,0 -0.0732,-0.6445 c -0.0195,-0.166 -0.0537,-0.3223 -0.10254,-0.4688 -0.0488,-0.1513 -0.11963,-0.2832 -0.2124,-0.3955 -0.0928,-0.1123 -0.21485,-0.2002 -0.36621,-0.2637 -0.15137,-0.068 -0.33936,-0.1025 -0.56397,-0.1025 l -1.45751,0 0,8.2544"
         id="path4331"
         style="fill:#4f2e00;font-family:Droid Serif;-inkscape-font-specification:Droid Serif" />
      <path
         d="m 202.29199,1149.5743 0,-0.6298 0.19043,0 c 0.1709,0 0.32959,-0.012 0.47608,-0.037 0.15136,-0.024 0.2832,-0.073 0.3955,-0.1464 0.11231,-0.078 0.2002,-0.188 0.26368,-0.3296 0.0635,-0.1416 0.0952,-0.3296 0.0952,-0.564 l 0,-7.3535 c 0,-0.2197 -0.0342,-0.3955 -0.10254,-0.5274 -0.0635,-0.1367 -0.15137,-0.2416 -0.26367,-0.3149 -0.11231,-0.073 -0.24414,-0.1196 -0.39551,-0.1392 -0.14648,-0.024 -0.30273,-0.037 -0.46875,-0.037 l -0.19043,0 0,-0.6299 4.21143,0 c 0.62988,10e-5 1.17675,0.073 1.64062,0.2198 0.46386,0.1416 0.84716,0.3491 1.14991,0.6225 0.30272,0.2686 0.52733,0.5957 0.67382,0.9815 0.15136,0.3857 0.22705,0.8227 0.22705,1.311 0,0.4443 -0.0708,0.8716 -0.2124,1.2817 -0.13673,0.4102 -0.36378,0.774 -0.68115,1.0914 -0.31739,0.3125 -0.73243,0.5639 -1.24512,0.7543 -0.5127,0.1856 -1.14014,0.2784 -1.88232,0.2784 l -0.94483,0 0,2.5341 c 0,0.2198 0.0317,0.398 0.0952,0.5347 0.0684,0.1319 0.15869,0.2319 0.27099,0.3003 0.11231,0.068 0.2417,0.1148 0.38819,0.1392 0.15136,0.02 0.31005,0.029 0.47607,0.029 l 0.49805,0 0,0.6298 -4.66553,0 m 2.93701,-4.8779 0.79834,0 c 0.4541,0 0.84228,-0.046 1.16455,-0.1391 0.32226,-0.098 0.58594,-0.2515 0.79102,-0.4615 0.20507,-0.2148 0.354,-0.4882 0.44678,-0.8203 0.0977,-0.3369 0.14648,-0.7422 0.14648,-1.2158 0,-0.4199 -0.0415,-0.7837 -0.12451,-1.0913 -0.083,-0.3125 -0.21729,-0.5713 -0.40283,-0.7764 -0.18555,-0.205 -0.42725,-0.3564 -0.7251,-0.4541 -0.29297,-0.1025 -0.65186,-0.1538 -1.07666,-0.1538 l -1.01807,0 0,5.1123"
         id="path4333"
         style="fill:#4f2e00;font-family:Droid Serif;-inkscape-font-specification:Droid Serif" />
      <path
         d="m 219.08643,1147.7433 c 0.25389,0.4004 0.50048,0.7007 0.73974,0.9009 0.23925,0.2002 0.51757,0.3003 0.83496,0.3003 l 0.0439,0 0,0.6298 -0.2124,0 c -0.46876,0 -0.85451,-0.017 -1.15723,-0.051 -0.29786,-0.034 -0.55177,-0.1001 -0.76172,-0.1978 -0.20997,-0.098 -0.39063,-0.2344 -0.54199,-0.4101 -0.14649,-0.1758 -0.30518,-0.4053 -0.47608,-0.6885 l -2.0288,-3.3765 -1.24512,0 0,3.0908 c -1e-5,0.2198 0.0317,0.398 0.0952,0.5347 0.0684,0.1319 0.15869,0.2319 0.271,0.3003 0.1123,0.068 0.24169,0.1148 0.38818,0.1392 0.15137,0.02 0.31006,0.029 0.47608,0.029 l 0.19775,0 0,0.6298 -4.36523,0 0,-0.6298 0.19043,0 c 0.16601,0 0.32226,-0.01 0.46875,-0.029 0.15136,-0.024 0.2832,-0.071 0.3955,-0.1392 0.11231,-0.068 0.2002,-0.1684 0.26368,-0.3003 0.0683,-0.1367 0.10253,-0.3149 0.10253,-0.5347 l 0,-7.4267 c 0,-0.2197 -0.0342,-0.3955 -0.10253,-0.5274 -0.0635,-0.1367 -0.15137,-0.2416 -0.26368,-0.3149 -0.1123,-0.073 -0.24414,-0.1196 -0.3955,-0.1392 -0.14649,-0.024 -0.30274,-0.037 -0.46875,-0.037 l -0.19043,0 0,-0.6299 4.03564,0 c 1.29882,10e-5 2.26562,0.2417 2.90039,0.7251 0.63476,0.4786 0.95214,1.2012 0.95215,2.168 -1e-5,0.4004 -0.0659,0.752 -0.19775,1.0547 -0.12697,0.2979 -0.29542,0.5566 -0.50537,0.7764 -0.20997,0.2197 -0.44679,0.4028 -0.71045,0.5493 -0.26368,0.1465 -0.52735,0.2637 -0.79102,0.3515 l 2.05811,3.252 m -4.80469,-3.5962 1.05469,0 c 0.43944,0 0.80565,-0.049 1.09863,-0.1465 0.29296,-0.098 0.52734,-0.2441 0.70312,-0.4394 0.17578,-0.1953 0.30029,-0.4395 0.37354,-0.7325 0.0781,-0.2929 0.11718,-0.6347 0.11719,-1.0253 -1e-5,-0.4004 -0.0415,-0.7398 -0.12452,-1.0181 -0.083,-0.2832 -0.21729,-0.5127 -0.40283,-0.6885 -0.18555,-0.1806 -0.42725,-0.31 -0.7251,-0.3882 -0.29297,-0.083 -0.65186,-0.1245 -1.07666,-0.1245 l -1.01806,0 0,4.563"
         id="path4335"
         style="fill:#4f2e00;font-family:Droid Serif;-inkscape-font-specification:Droid Serif" />
      <path
         d="m 221.18848,1149.5743 0,-0.6298 0.19043,0 c 0.17089,0 0.32959,-0.012 0.47607,-0.037 0.15137,-0.024 0.2832,-0.073 0.39551,-0.1464 0.1123,-0.078 0.20019,-0.188 0.26367,-0.3296 0.0635,-0.1416 0.0952,-0.3296 0.0952,-0.564 l 0,-7.2949 c 0,-0.2344 -0.0317,-0.4224 -0.0952,-0.564 -0.0635,-0.1416 -0.15137,-0.249 -0.26367,-0.3222 -0.11231,-0.078 -0.24414,-0.1294 -0.39551,-0.1539 -0.14648,-0.024 -0.30518,-0.037 -0.47607,-0.037 l -0.19043,0 0,-0.6299 4.36523,0 0,0.6299 -0.19775,0 c -0.16602,0 -0.32471,0.012 -0.47608,0.037 -0.15137,0.024 -0.2832,0.076 -0.39551,0.1539 -0.10742,0.073 -0.19531,0.1806 -0.26367,0.3222 -0.0635,0.1416 -0.0952,0.3296 -0.0952,0.564 l 0,7.2949 c -10e-6,0.2344 0.0317,0.4224 0.0952,0.564 0.0684,0.1416 0.15625,0.2514 0.26367,0.3296 0.11231,0.073 0.24414,0.122 0.39551,0.1464 0.15137,0.024 0.31006,0.037 0.47608,0.037 l 0.19775,0 0,0.6298 -4.36523,0"
         id="path4337"
         style="fill:#4f2e00;font-family:Droid Serif;-inkscape-font-specification:Droid Serif" />
      <path
         d="m 230.62207,1149.5743 -3.2373,-9.2871 c -0.0537,-0.1562 -0.11231,-0.2856 -0.17579,-0.3881 -0.0635,-0.1026 -0.13672,-0.1831 -0.21972,-0.2417 -0.083,-0.059 -0.17823,-0.1001 -0.28565,-0.1246 -0.10742,-0.024 -0.23437,-0.037 -0.38086,-0.037 l -0.19775,0 0,-0.6299 4.12354,0 0,0.6299 -0.34424,0 c -0.30274,0 -0.52979,0.059 -0.68116,0.1758 -0.14648,0.1123 -0.21972,0.293 -0.21972,0.542 0,0.083 0.01,0.1685 0.0293,0.2563 0.0244,0.088 0.0562,0.188 0.0952,0.3003 l 1.64795,4.8706 c 0.15136,0.4444 0.28076,0.8765 0.38818,1.2964 0.10742,0.4151 0.20263,0.8033 0.28565,1.1646 0.0781,-0.3613 0.17089,-0.7446 0.27832,-1.1499 0.10741,-0.4053 0.24413,-0.8423 0.41015,-1.3111 l 1.65528,-4.768 c 0.0391,-0.1221 0.0708,-0.2393 0.0952,-0.3516 0.0244,-0.1123 0.0366,-0.2099 0.0366,-0.293 0,-0.2587 -0.083,-0.4443 -0.24902,-0.5566 -0.16114,-0.1172 -0.40772,-0.1758 -0.73975,-0.1758 l -0.34423,0 0,-0.6299 3.65478,0 0,0.6299 -0.28564,0 c -0.1465,0 -0.27345,0.015 -0.38086,0.044 -0.10255,0.029 -0.19777,0.088 -0.28565,0.1757 -0.083,0.083 -0.16114,0.2003 -0.23437,0.3516 -0.0733,0.1514 -0.15138,0.3491 -0.23438,0.5933 l -3.10547,8.9135 -1.09863,0"
         id="path4339"
         style="fill:#4f2e00;font-family:Droid Serif;-inkscape-font-specification:Droid Serif" />
      <path
         d="m 238.09277,1145.9928 -0.57129,1.5747 c -0.0439,0.1172 -0.0781,0.2344 -0.10253,0.3516 -0.0244,0.1123 -0.0366,0.2099 -0.0366,0.2929 0,0.254 0.0806,0.4395 0.2417,0.5567 0.16602,0.1172 0.41748,0.1758 0.7544,0.1758 l 0.34424,0 0,0.6298 -3.66211,0 0,-0.6298 0.28564,0 c 0.14649,0 0.271,-0.015 0.37354,-0.044 0.10253,-0.034 0.19531,-0.095 0.27832,-0.1831 0.083,-0.088 0.16113,-0.2075 0.23437,-0.3589 0.0781,-0.1513 0.16357,-0.3467 0.25635,-0.5859 l 3.32519,-8.9063 1.17188,0 3.39111,9.2798 c 0.0586,0.1563 0.11718,0.2857 0.17578,0.3882 0.0635,0.1025 0.13671,0.1856 0.21973,0.249 0.083,0.059 0.17821,0.1001 0.28565,0.1245 0.10741,0.024 0.23436,0.037 0.38085,0.037 l 0.19776,0 0,0.6298 -4.12354,0 0,-0.6298 0.34424,0 c 0.60058,0 0.90087,-0.2393 0.90088,-0.7178 -1e-5,-0.083 -0.0122,-0.1685 -0.0366,-0.2564 -0.0195,-0.088 -0.0488,-0.1879 -0.0879,-0.3002 l -0.60059,-1.6773 -3.94043,0 m 2.73926,-3.3765 c -0.15625,-0.4443 -0.3003,-0.8593 -0.43213,-1.2451 -0.12696,-0.3906 -0.23194,-0.7666 -0.31494,-1.1279 -0.0342,0.1807 -0.0757,0.3564 -0.12451,0.5273 -0.0439,0.1661 -0.0928,0.337 -0.14649,0.5127 -0.0537,0.1758 -0.11475,0.3614 -0.1831,0.5567 -0.0684,0.1904 -0.14649,0.4028 -0.23438,0.6372 l -1.01806,2.7612 3.38379,0 -0.93018,-2.6221"
         id="path4341"
         style="fill:#4f2e00;font-family:Droid Serif;-inkscape-font-specification:Droid Serif" />
      <path
         d="m 251.0127,1138.7125 c 0.51268,0 0.95702,0.044 1.333,0.1319 0.38086,0.083 0.6958,0.2002 0.94483,0.3515 0.2539,0.1514 0.44188,0.3296 0.56396,0.5347 0.12695,0.2051 0.19042,0.4273 0.19043,0.6665 -1e-5,0.1611 -0.0342,0.3076 -0.10254,0.4395 -0.0635,0.1269 -0.15381,0.2368 -0.27099,0.3295 -0.1172,0.088 -0.25636,0.1563 -0.41748,0.2051 -0.15626,0.049 -0.32716,0.073 -0.5127,0.073 -1e-5,-0.2344 -0.0317,-0.4663 -0.0952,-0.6958 -0.0586,-0.2295 -0.1587,-0.4346 -0.3003,-0.6153 -0.13672,-0.1855 -0.31739,-0.3344 -0.54199,-0.4467 -0.21973,-0.1172 -0.49317,-0.1758 -0.82031,-0.1758 -0.56641,0 -1.04737,0.105 -1.44287,0.3149 -0.39551,0.2051 -0.71778,0.5078 -0.9668,0.9082 -0.24903,0.3955 -0.42969,0.8863 -0.54199,1.4722 -0.11231,0.581 -0.16846,1.2475 -0.16846,1.9995 0,0.6689 0.0586,1.2817 0.17578,1.8384 0.11719,0.5566 0.30273,1.0351 0.55664,1.4355 0.25391,0.3955 0.57617,0.7031 0.9668,0.9229 0.3955,0.2197 0.86914,0.3296 1.4209,0.3296 0.3662,0 0.68847,-0.034 0.9668,-0.1026 0.28319,-0.073 0.53221,-0.1684 0.74707,-0.2856 0.21483,-0.1172 0.40282,-0.2515 0.56396,-0.4029 0.16601,-0.1562 0.31249,-0.3173 0.43945,-0.4834 0.083,0.054 0.15136,0.127 0.20508,0.2198 0.0537,0.093 0.0806,0.2148 0.0806,0.3662 -1e-5,0.1904 -0.0659,0.3857 -0.19776,0.5859 -0.12696,0.1953 -0.32227,0.3736 -0.58593,0.5347 -0.26368,0.1611 -0.59816,0.2954 -1.00342,0.4028 -0.40528,0.1026 -0.88624,0.1538 -1.44287,0.1538 -0.74708,0 -1.40381,-0.1318 -1.97022,-0.3955 -0.56641,-0.2636 -1.04248,-0.6372 -1.42822,-1.1206 -0.38086,-0.4834 -0.66895,-1.0644 -0.86426,-1.7431 -0.19531,-0.6788 -0.29297,-1.4307 -0.29297,-2.2559 0,-0.8105 0.10254,-1.5527 0.30762,-2.2266 0.20508,-0.6738 0.50781,-1.2524 0.9082,-1.7358 0.40527,-0.4834 0.9082,-0.8594 1.50879,-1.1279 0.60058,-0.2686 1.29638,-0.4029 2.08741,-0.4029"
         id="path4343"
         style="fill:#4f2e00;font-family:Droid Serif;-inkscape-font-specification:Droid Serif" />
      <path
         d="m 256.93066,1149.5743 0,-0.6298 0.34424,0 c 0.16602,0 0.32226,-0.01 0.46875,-0.029 0.15137,-0.024 0.2832,-0.071 0.39551,-0.1392 0.1123,-0.068 0.20019,-0.1684 0.26367,-0.3003 0.0684,-0.1367 0.10254,-0.3149 0.10254,-0.5347 l 0,-2.8344 -2.77588,-4.8194 c -0.083,-0.1416 -0.16113,-0.2612 -0.23437,-0.3588 -0.0732,-0.1026 -0.15137,-0.1856 -0.23438,-0.2491 -0.0781,-0.063 -0.16601,-0.1098 -0.26367,-0.1391 -0.0977,-0.029 -0.20996,-0.044 -0.33691,-0.044 l -0.19043,0 0,-0.6299 4.12353,0 0,0.6299 -0.55664,0 c -0.13672,0 -0.24903,0.012 -0.33691,0.037 -0.083,0.024 -0.14893,0.059 -0.19776,0.1026 -0.0488,0.044 -0.083,0.095 -0.10254,0.1538 -0.0146,0.059 -0.022,0.1196 -0.022,0.1831 0,0.1416 0.0293,0.2832 0.0879,0.4248 0.0635,0.1416 0.12451,0.2661 0.18311,0.3735 l 1.10595,2.0069 c 0.17578,0.3076 0.32471,0.6128 0.44678,0.9155 0.12207,0.2979 0.22461,0.564 0.30762,0.7983 0.0439,-0.1074 0.0977,-0.227 0.16113,-0.3588 0.0684,-0.1319 0.1416,-0.271 0.21973,-0.4175 0.083,-0.1514 0.16845,-0.3052 0.25635,-0.4615 0.0879,-0.1611 0.17577,-0.3198 0.26367,-0.476 l 0.95947,-1.7212 c 0.0976,-0.1709 0.16601,-0.332 0.20508,-0.4834 0.0439,-0.1563 0.0659,-0.2954 0.0659,-0.4175 -1e-5,-0.2197 -0.0781,-0.3833 -0.23438,-0.4907 -0.15625,-0.1123 -0.37842,-0.1685 -0.6665,-0.1685 l -0.43946,0 0,-0.6299 3.66211,0 0,0.6299 -0.17578,0 c -0.10743,0 -0.20997,0.02 -0.30761,0.059 -0.0928,0.034 -0.188,0.098 -0.28565,0.1904 -0.0977,0.088 -0.2002,0.2076 -0.30762,0.3589 -0.10254,0.1465 -0.21729,0.3321 -0.34423,0.5567 l -2.51954,4.4458 0,2.7612 c 0,0.2344 0.0317,0.4224 0.0952,0.564 0.0635,0.1416 0.15136,0.2514 0.26367,0.3296 0.1123,0.073 0.24169,0.122 0.38818,0.1464 0.15137,0.024 0.31006,0.037 0.47608,0.037 l 0.35156,0 0,0.6298 -4.66553,0"
         id="path4345"
         style="fill:#4f2e00;font-family:Droid Serif;-inkscape-font-specification:Droid Serif" />
      <path
         d="m 276.72608,1149.5743 -1.43741,-1.9866 c -1.44131,1.4802 -3.20593,2.2204 -5.29386,2.2204 -1.64387,0 -2.92935,-0.4052 -3.85646,-1.2154 -0.91932,-0.818 -1.37897,-1.901 -1.37897,-3.2488 0,-1.2387 0.37396,-2.2866 1.12188,-3.1436 0.74791,-0.8569 2.04898,-1.6282 3.9032,-2.3138 -0.7713,-1.3011 -1.15694,-2.4736 -1.15694,-3.5176 0,-1.3244 0.43239,-2.3411 1.29717,-3.0501 0.87257,-0.7167 2.14247,-1.0751 3.80971,-1.0751 1.29327,0 2.29049,0.2805 2.99168,0.8414 0.70116,0.5609 1.05174,1.3166 1.05176,2.2671 -2e-5,1.0362 -0.29217,1.8737 -0.87647,2.5125 -0.58432,0.6389 -2.03341,1.3751 -4.34728,2.2087 l 3.35395,4.5927 c 0.67779,-1.2777 1.1803,-2.6878 1.50753,-4.2304 l 0.18698,-0.9349 4.31221,0 -0.21035,1.005 -0.22204,0 c -0.79468,0 -1.3712,0.1208 -1.72956,0.3623 -0.35839,0.2337 -0.61938,0.4636 -0.78298,0.6895 -0.15583,0.2181 -0.55316,0.9933 -1.19199,2.3256 -0.30386,0.631 -0.65444,1.2582 -1.05176,1.8814 l 1.30886,1.7997 c 0.4908,0.67 1.27378,1.005 2.34893,1.005 l 0.21035,0 -0.21035,1.005 -3.65779,0 m -4.8381,-10.4591 c 1.3478,-0.5064 2.30218,-1.0128 2.86312,-1.5192 0.56093,-0.5142 0.8414,-1.2037 0.84141,-2.0685 -1e-5,-0.631 -0.18699,-1.1374 -0.56094,-1.5192 -0.36617,-0.3895 -0.857,-0.5843 -1.47246,-0.5843 -1.75294,0 -2.62941,0.9232 -2.6294,2.7696 -10e-6,0.8882 0.31941,1.862 0.95827,2.9216 m 2.65277,7.4441 -4.06681,-5.6444 c -1.24653,0.5687 -2.1191,1.1764 -2.61771,1.823 -0.49083,0.6389 -0.73624,1.4881 -0.73623,2.5476 -1e-5,0.9271 0.27657,1.6906 0.82972,2.2905 0.56093,0.5999 1.32443,0.8998 2.2905,0.8998 1.65165,0 3.08516,-0.6388 4.30053,-1.9165"
         id="path4347"
         style="font-size:23.93340111px;font-style:italic;-inkscape-font-specification:Droid Serif Italic" />
      <path
         d="m 134.46973,1167.0052 -0.57129,1.5747 c -0.0439,0.1172 -0.0781,0.2344 -0.10254,0.3516 -0.0244,0.1123 -0.0366,0.2099 -0.0366,0.2929 0,0.2539 0.0806,0.4395 0.2417,0.5567 0.16601,0.1172 0.41747,0.1758 0.75439,0.1758 l 0.34424,0 0,0.6298 -3.66211,0 0,-0.6298 0.28564,0 c 0.14649,0 0.271,-0.015 0.37354,-0.044 0.10254,-0.034 0.19531,-0.095 0.27832,-0.1831 0.083,-0.088 0.16113,-0.2075 0.23437,-0.3589 0.0781,-0.1514 0.16358,-0.3467 0.25635,-0.5859 l 3.3252,-8.9063 1.17187,0 3.39112,9.2798 c 0.0586,0.1563 0.11717,0.2857 0.17578,0.3882 0.0635,0.1025 0.13671,0.1855 0.21972,0.249 0.083,0.059 0.17822,0.1001 0.28565,0.1245 0.10741,0.024 0.23436,0.037 0.38086,0.037 l 0.19775,0 0,0.6298 -4.12353,0 0,-0.6298 0.34423,0 c 0.60058,0 0.90088,-0.2393 0.90088,-0.7178 0,-0.083 -0.0122,-0.1685 -0.0366,-0.2564 -0.0195,-0.088 -0.0488,-0.188 -0.0879,-0.3003 l -0.60058,-1.6772 -3.94043,0 m 2.73925,-3.3765 c -0.15625,-0.4443 -0.30029,-0.8593 -0.43212,-1.2451 -0.12696,-0.3906 -0.23194,-0.7666 -0.31495,-1.1279 -0.0342,0.1807 -0.0757,0.3564 -0.12451,0.5273 -0.0439,0.166 -0.0928,0.3369 -0.14648,0.5127 -0.0537,0.1758 -0.11475,0.3614 -0.18311,0.5567 -0.0684,0.1904 -0.14649,0.4028 -0.23437,0.6372 l -1.01807,2.7612 3.38379,0 -0.93018,-2.6221"
         id="path4349"
         style="fill:#4f2e00;font-family:Droid Serif;-inkscape-font-specification:Droid Serif" />
      <path
         d="m 145.30957,1170.5867 -3.2373,-9.2871 c -0.0537,-0.1562 -0.11231,-0.2856 -0.17579,-0.3882 -0.0635,-0.1025 -0.13672,-0.1831 -0.21972,-0.2417 -0.083,-0.058 -0.17823,-0.1 -0.28565,-0.1245 -0.10742,-0.024 -0.23437,-0.037 -0.38086,-0.037 l -0.19775,0 0,-0.6299 4.12354,0 0,0.6299 -0.34424,0 c -0.30274,0 -0.52979,0.059 -0.68116,0.1758 -0.14648,0.1123 -0.21972,0.293 -0.21972,0.542 0,0.083 0.01,0.1685 0.0293,0.2563 0.0244,0.088 0.0562,0.188 0.0952,0.3003 l 1.64795,4.8706 c 0.15136,0.4444 0.28076,0.8765 0.38818,1.2964 0.10742,0.4151 0.20263,0.8032 0.28565,1.1646 0.0781,-0.3614 0.17089,-0.7447 0.27832,-1.1499 0.10741,-0.4053 0.24413,-0.8423 0.41015,-1.3111 l 1.65528,-4.768 c 0.0391,-0.1221 0.0708,-0.2393 0.0952,-0.3516 0.0244,-0.1123 0.0366,-0.21 0.0366,-0.293 0,-0.2587 -0.083,-0.4443 -0.24902,-0.5566 -0.16114,-0.1172 -0.40772,-0.1758 -0.73975,-0.1758 l -0.34423,0 0,-0.6299 3.65478,0 0,0.6299 -0.28564,0 c -0.1465,0 -0.27345,0.015 -0.38086,0.044 -0.10255,0.029 -0.19777,0.088 -0.28565,0.1757 -0.083,0.083 -0.16114,0.2002 -0.23437,0.3516 -0.0733,0.1514 -0.15138,0.3491 -0.23438,0.5933 l -3.10547,8.9135 -1.09863,0"
         id="path4351"
         style="fill:#4f2e00;font-family:Droid Serif;-inkscape-font-specification:Droid Serif" />
      <path
         d="m 160.93213,1165.2181 c -1e-5,0.8252 -0.10255,1.5771 -0.30762,2.2558 -0.20509,0.6788 -0.50782,1.2598 -0.9082,1.7432 -0.4004,0.4834 -0.89356,0.8569 -1.47949,1.1206 -0.58595,0.2637 -1.25733,0.3955 -2.01416,0.3955 -0.79591,0 -1.48927,-0.1318 -2.08008,-0.3955 -0.59083,-0.2637 -1.08155,-0.6372 -1.47217,-1.1206 -0.39063,-0.4834 -0.68359,-1.0644 -0.87891,-1.7432 -0.19531,-0.6835 -0.29297,-1.4404 -0.29296,-2.2705 -1e-5,-0.83 0.0977,-1.582 0.29296,-2.2558 0.19532,-0.6787 0.48828,-1.2573 0.87891,-1.7359 0.39062,-0.4785 0.88379,-0.8471 1.47949,-1.1059 0.5957,-0.2637 1.2915,-0.3955 2.0874,-0.3955 0.75683,0 1.42578,0.1318 2.00684,0.3955 0.58105,0.2588 1.07177,0.6299 1.47217,1.1133 0.40038,0.4785 0.70311,1.0571 0.9082,1.7358 0.20507,0.6738 0.30761,1.4282 0.30762,2.2632 m -7.771,0 c 0,0.7422 0.0537,1.4062 0.16114,1.9922 0.1123,0.581 0.29052,1.0742 0.53466,1.4795 0.24414,0.4004 0.55908,0.708 0.94483,0.9228 0.39062,0.21 0.86425,0.315 1.4209,0.315 0.55663,0 1.02782,-0.105 1.41357,-0.315 0.39062,-0.2148 0.70556,-0.5224 0.94482,-0.9228 0.24414,-0.4053 0.41992,-0.8985 0.52735,-1.4795 0.10741,-0.586 0.16112,-1.25 0.16113,-1.9922 -1e-5,-0.7422 -0.0537,-1.4038 -0.16113,-1.9849 -0.10743,-0.5859 -0.28321,-1.0791 -0.52735,-1.4795 -0.23926,-0.4004 -0.55176,-0.7055 -0.9375,-0.9155 -0.38086,-0.21 -0.84961,-0.3149 -1.40625,-0.3149 -0.55664,0 -1.03027,0.1049 -1.42089,0.3149 -0.39063,0.21 -0.71046,0.5151 -0.95948,0.9155 -0.24414,0.4004 -0.42236,0.8936 -0.53466,1.4795 -0.10743,0.5811 -0.16114,1.2427 -0.16114,1.9849"
         id="path4353"
         style="fill:#4f2e00;font-family:Droid Serif;-inkscape-font-specification:Droid Serif" />
      <path
         d="m 162.36035,1170.5867 0,-0.6298 0.19043,0 c 0.1709,0 0.32959,-0.012 0.47608,-0.037 0.15136,-0.024 0.2832,-0.073 0.3955,-0.1465 0.11231,-0.078 0.2002,-0.1879 0.26368,-0.3295 0.0635,-0.1416 0.0952,-0.3296 0.0952,-0.564 l 0,-7.2949 c 0,-0.2344 -0.0317,-0.4224 -0.0952,-0.564 -0.0635,-0.1416 -0.15137,-0.249 -0.26368,-0.3223 -0.1123,-0.078 -0.24414,-0.1293 -0.3955,-0.1538 -0.14649,-0.024 -0.30518,-0.037 -0.47608,-0.037 l -0.19043,0 0,-0.6299 4.36524,0 0,0.6299 -0.19776,0 c -0.16602,0 -0.32471,0.012 -0.47607,0.037 -0.15137,0.024 -0.28321,0.076 -0.39551,0.1538 -0.10743,0.073 -0.19532,0.1807 -0.26367,0.3223 -0.0635,0.1416 -0.0952,0.3296 -0.0952,0.564 l 0,7.2949 c 0,0.2344 0.0317,0.4224 0.0952,0.564 0.0683,0.1416 0.15624,0.2514 0.26367,0.3295 0.1123,0.073 0.24414,0.1221 0.39551,0.1465 0.15136,0.024 0.31005,0.037 0.47607,0.037 l 0.19776,0 0,0.6298 -4.36524,0"
         id="path4355"
         style="fill:#4f2e00;font-family:Droid Serif;-inkscape-font-specification:Droid Serif" />
      <path
         d="m 177.3457,1165.2181 c -1e-5,0.8203 -0.10255,1.5625 -0.30761,2.2265 -0.20509,0.6592 -0.51027,1.2232 -0.91553,1.6919 -0.40528,0.4639 -0.9131,0.8228 -1.52344,1.0767 -0.61036,0.249 -1.32325,0.3735 -2.13867,0.3735 l -4.59229,0 0,-0.6298 0.19043,0 c 0.1709,0 0.32959,-0.012 0.47608,-0.037 0.15136,-0.024 0.2832,-0.073 0.39551,-0.1465 0.1123,-0.078 0.20019,-0.1879 0.26367,-0.3295 0.0635,-0.1416 0.0952,-0.3296 0.0952,-0.564 l 0,-7.3535 c 0,-0.2197 -0.0342,-0.3955 -0.10254,-0.5274 -0.0635,-0.1367 -0.15137,-0.2417 -0.26367,-0.3149 -0.1123,-0.073 -0.24414,-0.1196 -0.39551,-0.1392 -0.14648,-0.024 -0.30273,-0.037 -0.46875,-0.037 l -0.19043,0 0,-0.6299 4.59229,0 c 0.77148,0 1.45995,0.1197 2.06543,0.3589 0.60546,0.2344 1.11571,0.5786 1.53076,1.0327 0.41991,0.4541 0.73974,1.0132 0.95947,1.6773 0.21972,0.664 0.32958,1.4209 0.32959,2.2705 m -5.23681,4.6069 c 0.59569,0 1.11571,-0.1001 1.56006,-0.3003 0.44921,-0.2051 0.82274,-0.5029 1.1206,-0.8935 0.29784,-0.3907 0.52001,-0.8716 0.6665,-1.4429 0.15136,-0.5713 0.22705,-1.228 0.22706,-1.9702 -1e-5,-1.4893 -0.29786,-2.627 -0.89356,-3.4131 -0.59083,-0.7861 -1.4795,-1.1792 -2.66601,-1.1792 l -1.31836,0 0,9.1992 1.30371,0"
         id="path4357"
         style="fill:#4f2e00;font-family:Droid Serif;-inkscape-font-specification:Droid Serif" />
      <path
         d="m 191.59863,1170.5867 0,-0.6298 0.0513,0 c 0.16113,0 0.30517,-0.01 0.43213,-0.029 0.13183,-0.024 0.24169,-0.068 0.32959,-0.1319 0.0928,-0.068 0.16601,-0.1636 0.21973,-0.2856 0.0537,-0.127 0.0854,-0.293 0.0952,-0.4981 l 0,-8.0127 -3.43506,9.5874 -0.81298,0 -3.47901,-9.5581 0,7.8516 c 0,0.2344 0.0244,0.4224 0.0732,0.564 0.0488,0.1416 0.11963,0.2514 0.21241,0.3295 0.0977,0.073 0.2124,0.1221 0.34423,0.1465 0.13672,0.024 0.28809,0.037 0.45411,0.037 l 0.0439,0 0,0.6298 -3.46435,0 0,-0.6298 0.19043,0 c 0.16601,0 0.32226,-0.01 0.46875,-0.029 0.15136,-0.024 0.2832,-0.071 0.3955,-0.1392 0.11231,-0.068 0.2002,-0.1685 0.26368,-0.3003 0.0684,-0.1367 0.10253,-0.3149 0.10253,-0.5347 l 0,-7.4267 c 0,-0.2197 -0.0342,-0.3955 -0.10253,-0.5274 -0.0635,-0.1367 -0.15137,-0.2417 -0.26368,-0.3149 -0.1123,-0.073 -0.24414,-0.1196 -0.3955,-0.1392 -0.14649,-0.024 -0.30274,-0.037 -0.46875,-0.037 l -0.19043,0 0,-0.6299 3.42041,0 3.10546,8.5767 3.07618,-8.5767 3.32519,0 0,0.6299 -0.19043,0 c -0.17091,0 -0.33204,0.012 -0.4834,0.037 -0.14649,0.024 -0.27589,0.076 -0.38818,0.1538 -0.11232,0.073 -0.20021,0.1807 -0.26367,0.3223 -0.0635,0.1416 -0.0952,0.3296 -0.0952,0.564 l 0,7.2949 c -1e-5,0.2344 0.0317,0.4224 0.0952,0.564 0.0635,0.1416 0.15135,0.2514 0.26367,0.3295 0.11229,0.073 0.24169,0.1221 0.38818,0.1465 0.15136,0.024 0.31249,0.037 0.4834,0.037 l 0.19043,0 0,0.6298 -3.9917,0"
         id="path4359"
         style="fill:#4f2e00;font-family:Droid Serif;-inkscape-font-specification:Droid Serif" />
      <path
         d="m 206.43018,1165.2181 c -1e-5,0.8252 -0.10255,1.5771 -0.30762,2.2558 -0.20509,0.6788 -0.50782,1.2598 -0.9082,1.7432 -0.4004,0.4834 -0.89357,0.8569 -1.4795,1.1206 -0.58594,0.2637 -1.25733,0.3955 -2.01416,0.3955 -0.7959,0 -1.48926,-0.1318 -2.08008,-0.3955 -0.59082,-0.2637 -1.08154,-0.6372 -1.47216,-1.1206 -0.39063,-0.4834 -0.6836,-1.0644 -0.87891,-1.7432 -0.19531,-0.6835 -0.29297,-1.4404 -0.29297,-2.2705 0,-0.83 0.0977,-1.582 0.29297,-2.2558 0.19531,-0.6787 0.48828,-1.2573 0.87891,-1.7359 0.39062,-0.4785 0.88378,-0.8471 1.47949,-1.1059 0.5957,-0.2637 1.2915,-0.3955 2.0874,-0.3955 0.75683,0 1.42578,0.1318 2.00684,0.3955 0.58104,0.2588 1.07177,0.6299 1.47217,1.1133 0.40038,0.4785 0.70311,1.0571 0.9082,1.7358 0.20507,0.6738 0.30761,1.4282 0.30762,2.2632 m -7.771,0 c 0,0.7422 0.0537,1.4062 0.16113,1.9922 0.1123,0.581 0.29053,1.0742 0.53467,1.4795 0.24414,0.4004 0.55908,0.708 0.94482,0.9228 0.39063,0.21 0.86426,0.315 1.4209,0.315 0.55664,0 1.02783,-0.105 1.41358,-0.315 0.39061,-0.2148 0.70556,-0.5224 0.94482,-0.9228 0.24413,-0.4053 0.41992,-0.8985 0.52735,-1.4795 0.10741,-0.586 0.16112,-1.25 0.16113,-1.9922 -1e-5,-0.7422 -0.0537,-1.4038 -0.16113,-1.9849 -0.10743,-0.5859 -0.28322,-1.0791 -0.52735,-1.4795 -0.23926,-0.4004 -0.55176,-0.7055 -0.9375,-0.9155 -0.38086,-0.21 -0.84961,-0.3149 -1.40625,-0.3149 -0.55664,0 -1.03028,0.1049 -1.4209,0.3149 -0.39063,0.21 -0.71045,0.5151 -0.95947,0.9155 -0.24414,0.4004 -0.42237,0.8936 -0.53467,1.4795 -0.10742,0.5811 -0.16113,1.2427 -0.16113,1.9849"
         id="path4361"
         style="fill:#4f2e00;font-family:Droid Serif;-inkscape-font-specification:Droid Serif" />
      <path
         d="m 215.81982,1170.5867 -5.625,-8.6425 0,6.936 c 0,0.2344 0.0317,0.4224 0.0952,0.564 0.0684,0.1416 0.15625,0.2514 0.26367,0.3295 0.1123,0.073 0.24414,0.1221 0.39551,0.1465 0.15136,0.024 0.31005,0.037 0.47607,0.037 l 0.19776,0 0,0.6298 -3.76465,0 0,-0.6298 0.19043,0 c 0.1709,0 0.32959,-0.012 0.47607,-0.037 0.15137,-0.024 0.2832,-0.073 0.39551,-0.1465 0.1123,-0.078 0.20019,-0.1879 0.26367,-0.3295 0.0635,-0.1416 0.0952,-0.3296 0.0952,-0.564 l 0,-7.3535 c -1e-5,-0.2197 -0.0342,-0.3955 -0.10254,-0.5274 -0.0635,-0.1367 -0.15137,-0.2417 -0.26367,-0.3149 -0.11231,-0.073 -0.24415,-0.1196 -0.39551,-0.1392 -0.14649,-0.024 -0.30274,-0.037 -0.46875,-0.037 l -0.19043,0 0,-0.6299 2.74658,0 5.36865,8.291 0,-6.643 c -1e-5,-0.2197 -0.0342,-0.3955 -0.10254,-0.5274 -0.0635,-0.1367 -0.15137,-0.2417 -0.26367,-0.3149 -0.11231,-0.073 -0.24415,-0.1196 -0.39551,-0.1392 -0.14649,-0.024 -0.30274,-0.037 -0.46875,-0.037 l -0.19775,0 0,-0.6299 3.76465,0 0,0.6299 -0.19043,0 c -0.17091,0 -0.33204,0.012 -0.4834,0.037 -0.14649,0.024 -0.27589,0.076 -0.38818,0.1538 -0.11232,0.073 -0.20021,0.1807 -0.26368,0.3223 -0.0635,0.1416 -0.0952,0.3296 -0.0952,0.564 l 0,9.0014 -1.06934,0"
         id="path4363"
         style="fill:#4f2e00;font-family:Droid Serif;-inkscape-font-specification:Droid Serif" />
      <path
         d="m 229.01807,1165.2181 c -1e-5,0.8252 -0.10255,1.5771 -0.30762,2.2558 -0.20509,0.6788 -0.50782,1.2598 -0.9082,1.7432 -0.4004,0.4834 -0.89357,0.8569 -1.4795,1.1206 -0.58594,0.2637 -1.25733,0.3955 -2.01416,0.3955 -0.7959,0 -1.48926,-0.1318 -2.08007,-0.3955 -0.59083,-0.2637 -1.08155,-0.6372 -1.47217,-1.1206 -0.39063,-0.4834 -0.6836,-1.0644 -0.87891,-1.7432 -0.19531,-0.6835 -0.29297,-1.4404 -0.29297,-2.2705 0,-0.83 0.0977,-1.582 0.29297,-2.2558 0.19531,-0.6787 0.48828,-1.2573 0.87891,-1.7359 0.39062,-0.4785 0.88378,-0.8471 1.47949,-1.1059 0.5957,-0.2637 1.2915,-0.3955 2.0874,-0.3955 0.75683,0 1.42578,0.1318 2.00684,0.3955 0.58104,0.2588 1.07177,0.6299 1.47217,1.1133 0.40038,0.4785 0.70311,1.0571 0.9082,1.7358 0.20507,0.6738 0.30761,1.4282 0.30762,2.2632 m -7.771,0 c 0,0.7422 0.0537,1.4062 0.16113,1.9922 0.11231,0.581 0.29053,1.0742 0.53467,1.4795 0.24414,0.4004 0.55908,0.708 0.94483,0.9228 0.39062,0.21 0.86425,0.315 1.42089,0.315 0.55664,0 1.02783,-0.105 1.41358,-0.315 0.39062,-0.2148 0.70556,-0.5224 0.94482,-0.9228 0.24413,-0.4053 0.41992,-0.8985 0.52735,-1.4795 0.10741,-0.586 0.16112,-1.25 0.16113,-1.9922 -1e-5,-0.7422 -0.0537,-1.4038 -0.16113,-1.9849 -0.10743,-0.5859 -0.28322,-1.0791 -0.52735,-1.4795 -0.23926,-0.4004 -0.55176,-0.7055 -0.9375,-0.9155 -0.38086,-0.21 -0.84961,-0.3149 -1.40625,-0.3149 -0.55664,0 -1.03028,0.1049 -1.4209,0.3149 -0.39063,0.21 -0.71045,0.5151 -0.95947,0.9155 -0.24414,0.4004 -0.42236,0.8936 -0.53467,1.4795 -0.10742,0.5811 -0.16113,1.2427 -0.16113,1.9849"
         id="path4365"
         style="fill:#4f2e00;font-family:Droid Serif;-inkscape-font-specification:Droid Serif" />
      <path
         d="m 230.44629,1170.5867 0,-0.6298 0.19043,0 c 0.1709,0 0.32959,-0.012 0.47607,-0.037 0.15137,-0.024 0.2832,-0.073 0.39551,-0.1465 0.1123,-0.078 0.20019,-0.1879 0.26367,-0.3295 0.0635,-0.1416 0.0952,-0.3296 0.0952,-0.564 l 0,-7.3535 c 0,-0.2197 -0.0342,-0.3955 -0.10254,-0.5274 -0.0635,-0.1367 -0.15137,-0.2417 -0.26367,-0.3149 -0.11231,-0.073 -0.24415,-0.1196 -0.39551,-0.1392 -0.14649,-0.024 -0.30274,-0.037 -0.46875,-0.037 l -0.19043,0 0,-0.6299 4.21142,0 c 0.62988,0 1.17676,0.073 1.64063,0.2198 0.46386,0.1416 0.84716,0.3491 1.1499,0.6225 0.30273,0.2686 0.52734,0.5957 0.67383,0.9815 0.15136,0.3857 0.22704,0.8227 0.22705,1.311 -1e-5,0.4443 -0.0708,0.8716 -0.2124,1.2817 -0.13673,0.4102 -0.36378,0.774 -0.68115,1.0913 -0.31739,0.3125 -0.73243,0.564 -1.24512,0.7544 -0.5127,0.1856 -1.14014,0.2784 -1.88233,0.2784 l -0.94482,0 0,2.5341 c 0,0.2198 0.0317,0.398 0.0952,0.5347 0.0684,0.1318 0.15868,0.2319 0.27099,0.3003 0.1123,0.068 0.2417,0.1147 0.38819,0.1392 0.15136,0.02 0.31005,0.029 0.47607,0.029 l 0.49805,0 0,0.6298 -4.66553,0 m 2.93701,-4.8779 0.79834,0 c 0.4541,0 0.84228,-0.046 1.16455,-0.1392 0.32226,-0.098 0.58593,-0.2514 0.79102,-0.4614 0.20507,-0.2148 0.35399,-0.4883 0.44677,-0.8203 0.0977,-0.3369 0.14648,-0.7422 0.14649,-1.2158 -1e-5,-0.4199 -0.0415,-0.7837 -0.12451,-1.0913 -0.083,-0.3125 -0.21729,-0.5713 -0.40284,-0.7764 -0.18555,-0.2051 -0.42725,-0.3564 -0.72509,-0.4541 -0.29298,-0.1025 -0.65186,-0.1538 -1.07666,-0.1538 l -1.01807,0 0,5.1123"
         id="path4367"
         style="fill:#4f2e00;font-family:Droid Serif;-inkscape-font-specification:Droid Serif" />
      <path
         d="m 249.20361,1165.2181 c -1e-5,0.8252 -0.10255,1.5771 -0.30761,2.2558 -0.20509,0.6788 -0.50783,1.2598 -0.90821,1.7432 -0.4004,0.4834 -0.89356,0.8569 -1.47949,1.1206 -0.58594,0.2637 -1.25733,0.3955 -2.01416,0.3955 -0.7959,0 -1.48926,-0.1318 -2.08008,-0.3955 -0.59082,-0.2637 -1.08154,-0.6372 -1.47217,-1.1206 -0.39062,-0.4834 -0.68359,-1.0644 -0.8789,-1.7432 -0.19532,-0.6835 -0.29297,-1.4404 -0.29297,-2.2705 0,-0.83 0.0977,-1.582 0.29297,-2.2558 0.19531,-0.6787 0.48828,-1.2573 0.8789,-1.7359 0.39063,-0.4785 0.88379,-0.8471 1.4795,-1.1059 0.5957,-0.2637 1.2915,-0.3955 2.0874,-0.3955 0.75683,0 1.42577,0.1318 2.00683,0.3955 0.58105,0.2588 1.07177,0.6299 1.47217,1.1133 0.40038,0.4785 0.70312,1.0571 0.90821,1.7358 0.20506,0.6738 0.3076,1.4282 0.30761,2.2632 m -7.77099,0 c -10e-6,0.7422 0.0537,1.4062 0.16113,1.9922 0.1123,0.581 0.29052,1.0742 0.53467,1.4795 0.24414,0.4004 0.55908,0.708 0.94482,0.9228 0.39062,0.21 0.86425,0.315 1.4209,0.315 0.55664,0 1.02783,-0.105 1.41357,-0.315 0.39062,-0.2148 0.70556,-0.5224 0.94483,-0.9228 0.24413,-0.4053 0.41991,-0.8985 0.52734,-1.4795 0.10742,-0.586 0.16113,-1.25 0.16114,-1.9922 -1e-5,-0.7422 -0.0537,-1.4038 -0.16114,-1.9849 -0.10743,-0.5859 -0.28321,-1.0791 -0.52734,-1.4795 -0.23927,-0.4004 -0.55177,-0.7055 -0.9375,-0.9155 -0.38087,-0.21 -0.84962,-0.3149 -1.40625,-0.3149 -0.55665,0 -1.03028,0.1049 -1.4209,0.3149 -0.39063,0.21 -0.71045,0.5151 -0.95947,0.9155 -0.24415,0.4004 -0.42237,0.8936 -0.53467,1.4795 -0.10742,0.5811 -0.16114,1.2427 -0.16113,1.9849"
         id="path4369"
         style="fill:#4f2e00;font-family:Droid Serif;-inkscape-font-specification:Droid Serif" />
      <path
         d="m 250.63184,1170.5867 0,-0.6298 0.19043,0 c 0.17089,0 0.32958,-0.012 0.47607,-0.037 0.15137,-0.024 0.2832,-0.073 0.39551,-0.1465 0.1123,-0.078 0.20019,-0.1879 0.26367,-0.3295 0.0635,-0.1416 0.0952,-0.3296 0.0952,-0.564 l 0,-7.2949 c 0,-0.2344 -0.0317,-0.4224 -0.0952,-0.564 -0.0635,-0.1416 -0.15137,-0.249 -0.26367,-0.3223 -0.11231,-0.078 -0.24414,-0.1293 -0.39551,-0.1538 -0.14649,-0.024 -0.30518,-0.037 -0.47607,-0.037 l -0.19043,0 0,-0.6299 4.36523,0 0,0.6299 -0.19775,0 c -0.16602,0 -0.32472,0.012 -0.47608,0.037 -0.14649,0.02 -0.27588,0.066 -0.38818,0.1392 -0.11231,0.073 -0.20264,0.1782 -0.271,0.3149 -0.0635,0.1319 -0.0952,0.3077 -0.0952,0.5274 l 0,8.313 2.95898,0 c 0.2246,0 0.41503,-0.039 0.57129,-0.1172 0.16113,-0.083 0.29296,-0.188 0.39551,-0.315 0.10253,-0.1318 0.18066,-0.2783 0.23437,-0.4394 0.0586,-0.1611 0.0976,-0.3223 0.11719,-0.4834 l 0.14649,-1.1206 0.78369,0 -0.10254,3.2226 -8.04199,0"
         id="path4371"
         style="fill:#4f2e00;font-family:Droid Serif;-inkscape-font-specification:Droid Serif" />
      <path
         d="m 259.97754,1170.5867 0,-0.6298 0.19043,0 c 0.1709,0 0.32959,-0.012 0.47607,-0.037 0.15137,-0.024 0.2832,-0.073 0.39551,-0.1465 0.1123,-0.078 0.20019,-0.1879 0.26367,-0.3295 0.0635,-0.1416 0.0952,-0.3296 0.0952,-0.564 l 0,-7.2949 c 0,-0.2344 -0.0317,-0.4224 -0.0952,-0.564 -0.0635,-0.1416 -0.15137,-0.249 -0.26367,-0.3223 -0.11231,-0.078 -0.24414,-0.1293 -0.39551,-0.1538 -0.14648,-0.024 -0.30517,-0.037 -0.47607,-0.037 l -0.19043,0 0,-0.6299 4.36523,0 0,0.6299 -0.19775,0 c -0.16602,0 -0.32471,0.012 -0.47607,0.037 -0.15138,0.024 -0.28321,0.076 -0.39551,0.1538 -0.10743,0.073 -0.19532,0.1807 -0.26367,0.3223 -0.0635,0.1416 -0.0952,0.3296 -0.0952,0.564 l 0,7.2949 c 0,0.2344 0.0317,0.4224 0.0952,0.564 0.0684,0.1416 0.15624,0.2514 0.26367,0.3295 0.1123,0.073 0.24413,0.1221 0.39551,0.1465 0.15136,0.024 0.31005,0.037 0.47607,0.037 l 0.19775,0 0,0.6298 -4.36523,0"
         id="path4373"
         style="fill:#4f2e00;font-family:Droid Serif;-inkscape-font-specification:Droid Serif" />
      <path
         d="m 268.42236,1169.8397 2.89307,0 c 0.23925,0 0.44189,-0.032 0.60791,-0.095 0.17089,-0.068 0.31249,-0.1587 0.4248,-0.271 0.1123,-0.1123 0.20019,-0.2417 0.26368,-0.3882 0.0635,-0.1514 0.10741,-0.3101 0.13183,-0.4761 l 0.10254,-0.6445 0.78369,0 -0.10254,2.622 -8.04199,0 0,-0.6298 0.19043,0 c 0.16602,0 0.32227,-0.01 0.46875,-0.029 0.15137,-0.024 0.2832,-0.071 0.39551,-0.1392 0.1123,-0.068 0.20019,-0.1685 0.26367,-0.3003 0.0684,-0.1367 0.10254,-0.3149 0.10254,-0.5347 l 0,-7.3681 c 0,-0.2344 -0.0317,-0.4224 -0.0952,-0.564 -0.0635,-0.1416 -0.15137,-0.249 -0.26368,-0.3223 -0.1123,-0.078 -0.24414,-0.1293 -0.3955,-0.1538 -0.14649,-0.024 -0.30518,-0.037 -0.47608,-0.037 l -0.19043,0 0,-0.6299 7.5586,0 0.0732,2.6221 -0.77637,0 -0.0732,-0.6445 c -0.0195,-0.166 -0.0586,-0.3223 -0.11719,-0.4688 -0.0537,-0.1513 -0.13428,-0.2832 -0.2417,-0.3955 -0.10254,-0.1123 -0.23438,-0.2002 -0.39551,-0.2637 -0.15625,-0.068 -0.34668,-0.1025 -0.57129,-0.1025 l -2.51953,0 0,3.9917 3.61817,0 0,0.7324 -3.61817,0 0,4.4898"
         id="path4375"
         style="fill:#4f2e00;font-family:Droid Serif;-inkscape-font-specification:Droid Serif" />
      <path
         d="m 277.96582,1170.7332 c -0.48828,0 -0.92041,-0.051 -1.29639,-0.1538 -0.37109,-0.1025 -0.68359,-0.2441 -0.9375,-0.4248 -0.24902,-0.1855 -0.43701,-0.4077 -0.56396,-0.6665 -0.12696,-0.2637 -0.19043,-0.5518 -0.19043,-0.8643 0,-0.3027 0.0928,-0.5468 0.27832,-0.7324 0.19043,-0.1855 0.45898,-0.2783 0.80566,-0.2783 0.0147,0.3125 0.061,0.6128 0.13916,0.9009 0.083,0.2881 0.20508,0.542 0.36621,0.7617 0.16113,0.2197 0.36621,0.3955 0.61524,0.5273 0.24902,0.1319 0.54931,0.1978 0.90088,0.1978 0.67382,0 1.19872,-0.1611 1.5747,-0.4834 0.38086,-0.3271 0.57129,-0.7959 0.57129,-1.4063 0,-0.2734 -0.0391,-0.5151 -0.11718,-0.725 -0.0781,-0.21 -0.20753,-0.4029 -0.38819,-0.5787 -0.18067,-0.1806 -0.41992,-0.3515 -0.71777,-0.5127 -0.29297,-0.166 -0.65918,-0.3393 -1.09863,-0.52 -0.46387,-0.1904 -0.86915,-0.393 -1.21582,-0.6079 -0.34669,-0.2197 -0.63477,-0.4614 -0.86426,-0.7251 -0.2295,-0.2685 -0.40039,-0.5664 -0.5127,-0.8935 -0.1123,-0.3272 -0.16845,-0.6958 -0.16845,-1.106 0,-0.4297 0.0806,-0.813 0.2417,-1.1499 0.16601,-0.3369 0.3955,-0.6201 0.68847,-0.8496 0.29297,-0.2344 0.63965,-0.4126 1.04004,-0.5347 0.40039,-0.122 0.8374,-0.1831 1.31104,-0.1831 0.44921,0 0.84716,0.046 1.19384,0.1392 0.34668,0.093 0.63965,0.2173 0.87891,0.3735 0.23925,0.1563 0.41992,0.3369 0.54199,0.542 0.12695,0.2002 0.19042,0.4102 0.19043,0.6299 -10e-6,0.3223 -0.10743,0.5664 -0.32226,0.7324 -0.20997,0.1612 -0.49562,0.2417 -0.85694,0.2417 0,-0.2344 -0.0293,-0.4638 -0.0879,-0.6885 -0.0537,-0.2294 -0.14649,-0.4321 -0.27832,-0.6079 -0.13184,-0.1806 -0.30518,-0.3271 -0.52002,-0.4394 -0.21485,-0.1123 -0.48096,-0.1685 -0.79834,-0.1685 -0.28809,0 -0.54688,0.042 -0.77636,0.1245 -0.22462,0.078 -0.41505,0.1929 -0.57129,0.3443 -0.15626,0.1465 -0.27589,0.3247 -0.35889,0.5346 -0.083,0.21 -0.12451,0.4444 -0.12451,0.7032 0,0.2978 0.0391,0.5615 0.11719,0.791 0.0781,0.2246 0.20751,0.4297 0.38818,0.6152 0.18554,0.1807 0.42724,0.354 0.7251,0.52 0.29784,0.1612 0.66405,0.3296 1.09863,0.5054 0.43945,0.1807 0.83007,0.3711 1.17187,0.5713 0.34668,0.2002 0.63965,0.4248 0.87891,0.6738 0.23925,0.2442 0.42236,0.52 0.54932,0.8277 0.12694,0.3027 0.19042,0.6469 0.19043,1.0327 -10e-6,0.4736 -0.0879,0.8984 -0.26368,1.2744 -0.1709,0.3711 -0.41748,0.686 -0.73974,0.9448 -0.32227,0.2588 -0.71046,0.4565 -1.16455,0.5933 -0.45411,0.1318 -0.96192,0.1977 -1.52344,0.1977"
         id="path4377"
         style="fill:#4f2e00;font-family:Droid Serif;-inkscape-font-specification:Droid Serif" />
    </g>
  </g>
</svg>
