<?xml version="1.0" encoding="UTF-8" standalone="no"?>
<!-- Created with Inkscape (http://www.inkscape.org/) -->

<svg
   xmlns:dc="http://purl.org/dc/elements/1.1/"
   xmlns:cc="http://creativecommons.org/ns#"
   xmlns:rdf="http://www.w3.org/1999/02/22-rdf-syntax-ns#"
   xmlns:svg="http://www.w3.org/2000/svg"
   xmlns="http://www.w3.org/2000/svg"
   xmlns:sodipodi="http://sodipodi.sourceforge.net/DTD/sodipodi-0.dtd"
   xmlns:inkscape="http://www.inkscape.org/namespaces/inkscape"
   width="340.37015"
   height="72.354622"
   id="svg4397"
   version="1.1"
   inkscape:version="0.48.3.1 r9886"
   sodipodi:docname="scolldown.svg">
  <defs
     id="defs4399" />
  <sodipodi:namedview
     id="base"
     pagecolor="#ffffff"
     bordercolor="#666666"
     borderopacity="1.0"
     inkscape:pageopacity="0.0"
     inkscape:pageshadow="2"
     inkscape:zoom="2.8"
     inkscape:cx="140.33026"
     inkscape:cy="17.316402"
     inkscape:document-units="px"
     inkscape:current-layer="layer1"
     showgrid="false"
     fit-margin-top="0"
     fit-margin-left="0"
     fit-margin-right="0"
     fit-margin-bottom="0"
     inkscape:window-width="1600"
     inkscape:window-height="844"
     inkscape:window-x="0"
     inkscape:window-y="27"
     inkscape:window-maximized="1" />
  <metadata
     id="metadata4402">
    <rdf:RDF>
      <cc:Work
         rdf:about="">
        <dc:format>image/svg+xml</dc:format>
        <dc:type
           rdf:resource="http://purl.org/dc/dcmitype/StillImage" />
        <dc:title></dc:title>
      </cc:Work>
    </rdf:RDF>
  </metadata>
  <g
     inkscape:label="Layer 1"
     inkscape:groupmode="layer"
     id="layer1"
     transform="translate(-304.10064,-373.32773)">
    <g
       transform="matrix(1.4130342,0,0,1.4130342,301.82033,173.24255)"
       style="font-size:15px;font-style:normal;font-weight:normal;line-height:125%;letter-spacing:0px;word-spacing:0px;fill:#999999;fill-opacity:1;stroke:none;display:inline;font-family:Sans"
       id="flowRoot3543">
      <path
         d="m 8.6523438,142.15632 0,1.44287 c -0.561531,-0.26855 -1.0913156,-0.46874 -1.5893555,-0.60059 -0.4980528,-0.13183 -0.9790094,-0.19774 -1.4428711,-0.19775 -0.8056683,1e-5 -1.4282262,0.15626 -1.8676758,0.46875 -0.434573,0.31251 -0.6518579,0.75684 -0.6518555,1.333 -2.4e-6,0.48341 0.1440404,0.84962 0.4321289,1.09864 0.2929656,0.24414 0.8447229,0.4419 1.6552735,0.59326 l 0.8935547,0.1831 c 1.103509,0.20997 1.9164965,0.58106 2.4389648,1.11329 0.5273353,0.52734 0.791007,1.23535 0.7910156,2.12402 -8.6e-6,1.05957 -0.3564536,1.86279 -1.0693359,2.40967 -0.7080147,0.54687 -1.7480527,0.82031 -3.1201172,0.82031 -0.5175821,0 -1.0693394,-0.0586 -1.6552734,-0.17578 -0.581057,-0.11719 -1.1840837,-0.29053 -1.8090821,-0.52002 l 0,-1.52344 c 0.6005843,0.33692 1.1889627,0.59082 1.7651368,0.76172 0.5761685,0.1709 1.1425741,0.25635 1.6992187,0.25635 0.8447212,0 1.4965761,-0.16602 1.9555664,-0.49805 0.4589775,-0.33203 0.6884694,-0.80566 0.6884766,-1.4209 -7.2e-6,-0.5371 -0.1660226,-0.95702 -0.4980469,-1.25976 -0.3271547,-0.30273 -0.866705,-0.52978 -1.6186523,-0.68116 l -0.9008789,-0.17578 c -1.1035187,-0.21972 -1.9018577,-0.56396 -2.3950196,-1.03271 -0.4931653,-0.46874 -0.7397471,-1.1206 -0.7397461,-1.95557 -1e-6,-0.96679 0.3393542,-1.7285 1.0180664,-2.28515 0.6835911,-0.55663 1.6235316,-0.83495 2.8198243,-0.83497 0.5126899,2e-5 1.0351503,0.0464 1.5673828,0.13917 0.5322196,0.0928 1.0766527,0.23194 1.6333008,0.41748"
         style="fill:#999999"
         id="path4322"
         inkscape:connector-curvature="0" />
      <path
         d="m 19.807129,142.63971 0,1.56006 c -0.498056,-0.46386 -1.030282,-0.81053 -1.59668,-1.04004 -0.561531,-0.22948 -1.159675,-0.34422 -1.794433,-0.34423 -1.250005,1e-5 -2.207036,0.38331 -2.871094,1.1499 -0.664065,0.76172 -0.996096,1.86524 -0.996094,3.31054 -2e-6,1.44044 0.332029,2.54395 0.996094,3.31055 0.664058,0.76172 1.621089,1.14258 2.871094,1.14258 0.634758,0 1.232902,-0.11475 1.794433,-0.34424 0.566398,-0.22949 1.098624,-0.57617 1.59668,-1.04004 l 0,1.54541 c -0.517587,0.35157 -1.066903,0.61524 -1.647949,0.79102 -0.57618,0.17578 -1.186531,0.26367 -1.831055,0.26367 -1.655278,0 -2.958988,-0.50537 -3.911133,-1.51611 -0.95215,-1.01563 -1.428223,-2.3999 -1.428222,-4.15284 -1e-6,-1.7578 0.476072,-3.14208 1.428222,-4.15283 0.952145,-1.01561 2.255855,-1.52342 3.911133,-1.52344 0.65429,2e-5 1.269524,0.0879 1.845703,0.26368 0.581046,0.17091 1.125479,0.42969 1.633301,0.77636"
         style="fill:#999999"
         id="path4324"
         inkscape:connector-curvature="0" />
      <path
         d="m 27.29248,147.60553 c 0.317376,0.10743 0.624993,0.33692 0.922852,0.68848 0.302727,0.35157 0.605461,0.83497 0.908203,1.4502 l 1.501465,2.98828 -1.589355,0 -1.398926,-2.80518 c -0.361335,-0.73242 -0.712897,-1.21826 -1.054688,-1.45752 -0.336919,-0.23925 -0.798345,-0.35888 -1.384277,-0.35888 l -1.611328,0 0,4.62158 -1.479492,0 0,-10.93506 3.339843,0 c 1.249994,1e-5 2.182611,0.26124 2.797852,0.78369 0.615226,0.52247 0.922843,1.31104 0.922851,2.36572 -8e-6,0.68849 -0.161141,1.25978 -0.483398,1.71387 -0.317391,0.45411 -0.781257,0.76905 -1.391602,0.94482 m -3.706054,-4.59228 0,3.88184 1.860351,0 c 0.712885,0 1.249994,-0.16357 1.611328,-0.49073 0.366205,-0.33202 0.54931,-0.81786 0.549317,-1.45752 -7e-6,-0.63964 -0.183112,-1.12059 -0.549317,-1.44287 -0.361334,-0.32714 -0.898443,-0.49071 -1.611328,-0.49072 l -1.860351,0"
         style="fill:#999999"
         id="path4326"
         inkscape:connector-curvature="0" />
      <path
         d="m 36.975098,142.80085 c -1.074224,1e-5 -1.928715,0.4004 -2.563477,1.20117 -0.629885,0.80079 -0.944827,1.8921 -0.944824,3.27392 -3e-6,1.37696 0.314939,2.46583 0.944824,3.26661 0.634762,0.80078 1.489253,1.20117 2.563477,1.20117 1.074211,0 1.92382,-0.40039 2.548828,-1.20117 0.629874,-0.80078 0.944815,-1.88965 0.944824,-3.26661 -9e-6,-1.38182 -0.31495,-2.47313 -0.944824,-3.27392 -0.625008,-0.80077 -1.474617,-1.20116 -2.548828,-1.20117 m 0,-1.20118 c 1.533195,2e-5 2.75878,0.51515 3.676757,1.54542 0.917959,1.02539 1.376943,2.40235 1.376954,4.13085 -1.1e-5,1.72364 -0.458995,3.10059 -1.376954,4.13086 -0.917977,1.02539 -2.143562,1.53809 -3.676757,1.53809 -1.538091,0 -2.768558,-0.5127 -3.691407,-1.53809 -0.91797,-1.02538 -1.376954,-2.40234 -1.376953,-4.13086 -1e-6,-1.7285 0.458983,-3.10546 1.376953,-4.13085 0.922849,-1.03027 2.153316,-1.5454 3.691407,-1.54542"
         style="fill:#999999"
         id="path4328"
         inkscape:connector-curvature="0" />
      <path
         d="m 44.343262,141.79743 1.479492,0 0,9.68994 5.324707,0 0,1.24512 -6.804199,0 0,-10.93506"
         style="fill:#999999"
         id="path4330"
         inkscape:connector-curvature="0" />
      <path
         d="m 52.692871,141.79743 1.479492,0 0,9.68994 5.324707,0 0,1.24512 -6.804199,0 0,-10.93506"
         style="fill:#999999"
         id="path4332"
         inkscape:connector-curvature="0" />
      <path
         d="m 67.297363,143.01325 0,8.50342 1.78711,0 c 1.508782,0 2.612297,-0.3418 3.310547,-1.02539 0.703116,-0.68359 1.054678,-1.76269 1.054687,-3.23731 -9e-6,-1.46484 -0.351571,-2.53661 -1.054687,-3.21533 -0.69825,-0.68358 -1.801765,-1.02538 -3.310547,-1.02539 l -1.78711,0 m -1.479492,-1.21582 3.039551,0 c 2.119134,1e-5 3.674308,0.4419 4.665527,1.32568 0.991201,0.87892 1.486806,2.25587 1.486817,4.13086 -1.1e-5,1.88477 -0.498057,3.26905 -1.494141,4.15283 -0.996102,0.88379 -2.548835,1.32569 -4.658203,1.32569 l -3.039551,0 0,-10.93506"
         style="fill:#999999"
         id="path4334"
         inkscape:connector-curvature="0" />
      <path
         d="m 81.799316,142.80085 c -1.074223,1e-5 -1.928715,0.4004 -2.563476,1.20117 -0.629886,0.80079 -0.944827,1.8921 -0.944824,3.27392 -3e-6,1.37696 0.314938,2.46583 0.944824,3.26661 0.634761,0.80078 1.489253,1.20117 2.563476,1.20117 1.074212,0 1.923821,-0.40039 2.548829,-1.20117 0.629873,-0.80078 0.944814,-1.88965 0.944824,-3.26661 -1e-5,-1.38182 -0.314951,-2.47313 -0.944824,-3.27392 -0.625008,-0.80077 -1.474617,-1.20116 -2.548829,-1.20117 m 0,-1.20118 c 1.533196,2e-5 2.758781,0.51515 3.676758,1.54542 0.917958,1.02539 1.376942,2.40235 1.376953,4.13085 -1.1e-5,1.72364 -0.458995,3.10059 -1.376953,4.13086 -0.917977,1.02539 -2.143562,1.53809 -3.676758,1.53809 -1.53809,0 -2.768557,-0.5127 -3.691406,-1.53809 -0.91797,-1.02538 -1.376954,-2.40234 -1.376953,-4.13086 -10e-7,-1.7285 0.458983,-3.10546 1.376953,-4.13085 0.922849,-1.03027 2.153316,-1.5454 3.691406,-1.54542"
         style="fill:#999999"
         id="path4336"
         inkscape:connector-curvature="0" />
      <path
         d="m 88.193359,141.79743 1.494141,0 2.299805,9.24316 2.29248,-9.24316 1.662598,0 2.299804,9.24316 2.292483,-9.24316 1.50146,0 -2.746579,10.93506 -1.860352,0 -2.307129,-9.49219 -2.329101,9.49219 -1.860352,0 -2.739258,-10.93506"
         style="fill:#999999"
         id="path4338"
         inkscape:connector-curvature="0" />
      <path
         d="m 103.9917,141.79743 1.99219,0 4.84863,9.14795 0,-9.14795 1.43555,0 0,10.93506 -1.99219,0 -4.84863,-9.14795 0,9.14795 -1.43555,0 0,-10.93506"
         style="fill:#999999"
         id="path4340"
         inkscape:connector-curvature="0" />
      <path
         d="m 118.47168,141.79743 9.25049,0 0,1.24512 -3.88184,0 0,9.68994 -1.48681,0 0,-9.68994 -3.88184,0 0,-1.24512"
         style="fill:#999999"
         id="path4342"
         inkscape:connector-curvature="0" />
      <path
         d="m 133.59619,142.80085 c -1.07422,1e-5 -1.92871,0.4004 -2.56348,1.20117 -0.62988,0.80079 -0.94482,1.8921 -0.94482,3.27392 0,1.37696 0.31494,2.46583 0.94482,3.26661 0.63477,0.80078 1.48926,1.20117 2.56348,1.20117 1.07421,0 1.92382,-0.40039 2.54883,-1.20117 0.62987,-0.80078 0.94481,-1.88965 0.94482,-3.26661 -1e-5,-1.38182 -0.31495,-2.47313 -0.94482,-3.27392 -0.62501,-0.80077 -1.47462,-1.20116 -2.54883,-1.20117 m 0,-1.20118 c 1.5332,2e-5 2.75878,0.51515 3.67676,1.54542 0.91796,1.02539 1.37694,2.40235 1.37695,4.13085 -1e-5,1.72364 -0.45899,3.10059 -1.37695,4.13086 -0.91798,1.02539 -2.14356,1.53809 -3.67676,1.53809 -1.53809,0 -2.76856,-0.5127 -3.6914,-1.53809 -0.91797,-1.02538 -1.37696,-2.40234 -1.37696,-4.13086 0,-1.7285 0.45899,-3.10546 1.37696,-4.13085 0.92284,-1.03027 2.15331,-1.5454 3.6914,-1.54542"
         style="fill:#999999"
         id="path4344"
         inkscape:connector-curvature="0" />
      <path
         d="m 145.73975,141.79743 1.47949,0 0,9.68994 5.32471,0 0,1.24512 -6.8042,0 0,-10.93506"
         style="fill:#999999"
         id="path4346"
         inkscape:connector-curvature="0" />
      <path
         d="m 154.08936,141.79743 6.91406,0 0,1.24512 -5.43457,0 0,3.2373 5.20752,0 0,1.24512 -5.20752,0 0,3.9624 5.5664,0 0,1.24512 -7.04589,0 0,-10.93506"
         style="fill:#999999"
         id="path4348"
         inkscape:connector-curvature="0" />
      <path
         d="m 167.23633,143.25495 -2.00684,5.44189 4.021,0 -2.01416,-5.44189 m -0.83496,-1.45752 1.67724,0 4.16748,10.93506 -1.53808,0 -0.9961,-2.80518 -4.9292,0 -0.99609,2.80518 -1.56006,0 4.17481,-10.93506"
         style="fill:#999999"
         id="path4350"
         inkscape:connector-curvature="0" />
      <path
         d="m 179.021,147.60553 c 0.31737,0.10743 0.62499,0.33692 0.92285,0.68848 0.30272,0.35157 0.60546,0.83497 0.9082,1.4502 l 1.50147,2.98828 -1.58936,0 -1.39893,-2.80518 c -0.36133,-0.73242 -0.71289,-1.21826 -1.05468,-1.45752 -0.33692,-0.23925 -0.79835,-0.35888 -1.38428,-0.35888 l -1.61133,0 0,4.62158 -1.47949,0 0,-10.93506 3.33984,0 c 1.25,1e-5 2.18261,0.26124 2.79785,0.78369 0.61523,0.52247 0.92285,1.31104 0.92286,2.36572 -10e-6,0.68849 -0.16115,1.25978 -0.4834,1.71387 -0.31739,0.45411 -0.78126,0.76905 -1.3916,0.94482 m -3.70606,-4.59228 0,3.88184 1.86035,0 c 0.71289,0 1.25,-0.16357 1.61133,-0.49073 0.36621,-0.33202 0.54931,-0.81786 0.54932,-1.45752 -1e-5,-0.63964 -0.18311,-1.12059 -0.54932,-1.44287 -0.36133,-0.32714 -0.89844,-0.49071 -1.61133,-0.49072 l -1.86035,0"
         style="fill:#999999"
         id="path4352"
         inkscape:connector-curvature="0" />
      <path
         d="m 184.26514,141.79743 1.99218,0 4.84864,9.14795 0,-9.14795 1.43554,0 0,10.93506 -1.99218,0 -4.84864,-9.14795 0,9.14795 -1.43554,0 0,-10.93506"
         style="fill:#999999"
         id="path4354"
         inkscape:connector-curvature="0" />
      <path
         d="m 200.26123,141.79743 2.20459,0 2.79053,7.44141 2.80517,-7.44141 2.20459,0 0,10.93506 -1.44287,0 0,-9.60205 -2.81982,7.5 -1.48682,0 -2.81982,-7.5 0,9.60205 -1.43555,0 0,-10.93506"
         style="fill:#999999"
         id="path4356"
         inkscape:connector-curvature="0" />
      <path
         d="m 217.64893,142.80085 c -1.07423,1e-5 -1.92872,0.4004 -2.56348,1.20117 -0.62989,0.80079 -0.94483,1.8921 -0.94483,3.27392 0,1.37696 0.31494,2.46583 0.94483,3.26661 0.63476,0.80078 1.48925,1.20117 2.56348,1.20117 1.07421,0 1.92382,-0.40039 2.54882,-1.20117 0.62988,-0.80078 0.94482,-1.88965 0.94483,-3.26661 -1e-5,-1.38182 -0.31495,-2.47313 -0.94483,-3.27392 -0.625,-0.80077 -1.47461,-1.20116 -2.54882,-1.20117 m 0,-1.20118 c 1.53319,2e-5 2.75878,0.51515 3.67675,1.54542 0.91796,1.02539 1.37695,2.40235 1.37696,4.13085 -1e-5,1.72364 -0.459,3.10059 -1.37696,4.13086 -0.91797,1.02539 -2.14356,1.53809 -3.67675,1.53809 -1.53809,0 -2.76856,-0.5127 -3.69141,-1.53809 -0.91797,-1.02538 -1.37695,-2.40234 -1.37695,-4.13086 0,-1.7285 0.45898,-3.10546 1.37695,-4.13085 0.92285,-1.03027 2.15332,-1.5454 3.69141,-1.54542"
         style="fill:#999999"
         id="path4358"
         inkscape:connector-curvature="0" />
      <path
         d="m 230.20264,147.60553 c 0.31737,0.10743 0.62499,0.33692 0.92285,0.68848 0.30272,0.35157 0.60546,0.83497 0.9082,1.4502 l 1.50147,2.98828 -1.58936,0 -1.39893,-2.80518 c -0.36133,-0.73242 -0.71289,-1.21826 -1.05468,-1.45752 -0.33692,-0.23925 -0.79835,-0.35888 -1.38428,-0.35888 l -1.61133,0 0,4.62158 -1.47949,0 0,-10.93506 3.33984,0 c 1.25,1e-5 2.18261,0.26124 2.79786,0.78369 0.61522,0.52247 0.92284,1.31104 0.92285,2.36572 -1e-5,0.68849 -0.16114,1.25978 -0.4834,1.71387 -0.31739,0.45411 -0.78126,0.76905 -1.3916,0.94482 m -3.70606,-4.59228 0,3.88184 1.86035,0 c 0.71289,0 1.25,-0.16357 1.61133,-0.49073 0.36621,-0.33202 0.54931,-0.81786 0.54932,-1.45752 -1e-5,-0.63964 -0.18311,-1.12059 -0.54932,-1.44287 -0.36133,-0.32714 -0.89844,-0.49071 -1.61133,-0.49072 l -1.86035,0"
         style="fill:#999999"
         id="path4360"
         inkscape:connector-curvature="0" />
      <path
         d="m 235.44678,141.79743 6.91406,0 0,1.24512 -5.43457,0 0,3.2373 5.20752,0 0,1.24512 -5.20752,0 0,3.9624 5.56641,0 0,1.24512 -7.0459,0 0,-10.93506"
         style="fill:#999999"
         id="path4362"
         inkscape:connector-curvature="0" />
    </g>
    <path
       style="fill:none;stroke:#808080;stroke-width:1.15901589;stroke-linecap:butt;stroke-linejoin:round;stroke-miterlimit:4;stroke-opacity:1;stroke-dasharray:none;display:inline"
       d="m 454.48911,416.50059 44.71354,0 -22.78671,22.78672 z"
       id="path3551"
       inkscape:connector-curvature="0" />
  </g>
</svg>
