<?xml version="1.0" encoding="UTF-8" standalone="no"?>
<!-- Created with Inkscape (http://www.inkscape.org/) -->

<svg
   xmlns:dc="http://purl.org/dc/elements/1.1/"
   xmlns:cc="http://creativecommons.org/ns#"
   xmlns:rdf="http://www.w3.org/1999/02/22-rdf-syntax-ns#"
   xmlns:svg="http://www.w3.org/2000/svg"
   xmlns="http://www.w3.org/2000/svg"
   xmlns:sodipodi="http://sodipodi.sourceforge.net/DTD/sodipodi-0.dtd"
   xmlns:inkscape="http://www.inkscape.org/namespaces/inkscape"
   width="521.98364"
   height="39.120861"
   id="svg3045"
   version="1.1"
   inkscape:version="0.48.3.1 r9886"
   sodipodi:docname="tec.svg">
  <defs
     id="defs3047" />
  <sodipodi:namedview
     id="base"
     pagecolor="#ffffff"
     bordercolor="#666666"
     borderopacity="1.0"
     inkscape:pageopacity="0.0"
     inkscape:pageshadow="2"
     inkscape:zoom="0.98994949"
     inkscape:cx="587.07572"
     inkscape:cy="-63.770749"
     inkscape:document-units="px"
     inkscape:current-layer="layer1"
     showgrid="false"
     fit-margin-top="0"
     fit-margin-left="0"
     fit-margin-right="0"
     fit-margin-bottom="0"
     inkscape:window-width="1600"
     inkscape:window-height="844"
     inkscape:window-x="0"
     inkscape:window-y="27"
     inkscape:window-maximized="1" />
  <metadata
     id="metadata3050">
    <rdf:RDF>
      <cc:Work
         rdf:about="">
        <dc:format>image/svg+xml</dc:format>
        <dc:type
           rdf:resource="http://purl.org/dc/dcmitype/StillImage" />
        <dc:title></dc:title>
      </cc:Work>
    </rdf:RDF>
  </metadata>
  <g
     inkscape:label="Layer 1"
     inkscape:groupmode="layer"
     id="layer1"
     transform="translate(-110.00372,-435.88224)">
    <g
       transform="matrix(3.0613979,0,0,3.0613979,-154.3495,-573.92938)"
       style="font-size:15px;font-style:normal;font-weight:normal;line-height:125%;letter-spacing:0px;word-spacing:0px;fill:#ffffff;fill-opacity:1;stroke:none;font-family:Sans"
       id="flowRoot3053">
      <path
         d="m 102.49561,339.90094 c -1e-5,0.23438 0.0317,0.42237 0.0952,0.56397 0.0684,0.1416 0.15624,0.25147 0.26367,0.32959 0.1123,0.0732 0.24414,0.12207 0.39551,0.14648 0.15136,0.0244 0.31005,0.0366 0.47607,0.0366 l 0.34424,0 0,0.62989 -4.665525,0 0,-0.62989 0.344238,0 c 0.166013,1e-5 0.322267,-0.01 0.468747,-0.0293 0.15137,-0.0244 0.2832,-0.0708 0.39551,-0.13916 0.1123,-0.0684 0.20019,-0.16846 0.26367,-0.3003 0.0684,-0.13671 0.10254,-0.31494 0.10254,-0.53466 l 0,-8.32764 -1.435545,0 c -0.219728,10e-6 -0.405275,0.0342 -0.55664,0.10254 -0.146486,0.0635 -0.268557,0.15138 -0.366211,0.26367 -0.09278,0.11232 -0.163576,0.24415 -0.212403,0.39551 -0.04395,0.14649 -0.07568,0.30274 -0.09521,0.46875 l -0.08057,0.64453 -0.776367,0 0.07324,-2.62207 8.444826,0 0.0732,2.62207 -0.77637,0 -0.0732,-0.64453 c -0.0195,-0.16601 -0.0537,-0.32226 -0.10254,-0.46875 -0.0488,-0.15136 -0.11963,-0.28319 -0.2124,-0.39551 -0.0928,-0.11229 -0.21485,-0.20018 -0.36621,-0.26367 -0.15137,-0.0684 -0.33936,-0.10253 -0.56396,-0.10254 l -1.45752,0 0,8.25439"
         style="font-variant:normal;font-stretch:normal;fill:#ffffff;font-family:Droid Serif;-inkscape-font-specification:Droid Serif"
         id="path3062"
         inkscape:connector-curvature="0" />
      <path
         d="m 109.86377,340.86042 2.89307,0 c 0.23925,0 0.44188,-0.0317 0.60791,-0.0952 0.17089,-0.0684 0.31249,-0.15869 0.4248,-0.27099 0.1123,-0.11231 0.20019,-0.2417 0.26367,-0.38819 0.0635,-0.15136 0.10742,-0.31005 0.13184,-0.47607 l 0.10254,-0.64453 0.78369,0 -0.10254,2.62207 -8.04199,0 0,-0.62989 0.19043,0 c 0.16601,10e-6 0.32226,-0.01 0.46875,-0.0293 0.15136,-0.0244 0.2832,-0.0708 0.39551,-0.13916 0.1123,-0.0684 0.20019,-0.16846 0.26367,-0.3003 0.0683,-0.13671 0.10253,-0.31494 0.10254,-0.53466 l 0,-7.36817 c -1e-5,-0.23436 -0.0317,-0.42235 -0.0952,-0.56396 -0.0635,-0.14159 -0.15137,-0.24902 -0.26367,-0.32227 -0.11231,-0.0781 -0.24414,-0.12938 -0.39551,-0.15381 -0.14648,-0.0244 -0.30517,-0.0366 -0.47607,-0.0366 l -0.19043,0 0,-0.62988 7.55859,0 0.0732,2.62207 -0.77636,0 -0.0733,-0.64453 c -0.0195,-0.16601 -0.0586,-0.32226 -0.11718,-0.46875 -0.0537,-0.15136 -0.13429,-0.28319 -0.2417,-0.39551 -0.10255,-0.11229 -0.23438,-0.20018 -0.39551,-0.26367 -0.15626,-0.0684 -0.34669,-0.10253 -0.57129,-0.10254 l -2.51953,0 0,3.9917 3.61816,0 0,0.73242 -3.61816,0 0,4.48975"
         style="font-variant:normal;font-stretch:normal;fill:#ffffff;font-family:Droid Serif;-inkscape-font-specification:Droid Serif"
         id="path3064"
         inkscape:connector-curvature="0" />
      <path
         d="m 121.37012,330.74567 c 0.51269,10e-6 0.95702,0.044 1.33301,0.13184 0.38085,0.083 0.69579,0.2002 0.94482,0.35156 0.2539,0.15138 0.44189,0.3296 0.56396,0.53467 0.12695,0.20509 0.19043,0.42725 0.19043,0.6665 0,0.16114 -0.0342,0.30763 -0.10254,0.43945 -0.0635,0.12697 -0.15381,0.23683 -0.27099,0.32959 -0.1172,0.0879 -0.25636,0.15626 -0.41748,0.20508 -0.15626,0.0488 -0.32716,0.0733 -0.5127,0.0732 0,-0.23436 -0.0317,-0.4663 -0.0952,-0.6958 -0.0586,-0.22948 -0.1587,-0.43456 -0.30029,-0.61523 -0.13673,-0.18554 -0.31739,-0.33446 -0.542,-0.44678 -0.21973,-0.11718 -0.49317,-0.17577 -0.82031,-0.17578 -0.56641,10e-6 -1.04737,0.10499 -1.44287,0.31494 -0.39551,0.20509 -0.71778,0.50782 -0.9668,0.90821 -0.24902,0.39551 -0.42969,0.88623 -0.54199,1.47216 -0.11231,0.58106 -0.16846,1.24757 -0.16846,1.99952 0,0.66895 0.0586,1.28174 0.17578,1.83837 0.11719,0.55665 0.30274,1.03516 0.55665,1.43555 0.2539,0.39551 0.57616,0.70313 0.96679,0.92285 0.39551,0.21973 0.86914,0.32959 1.4209,0.32959 0.36621,0 0.68847,-0.0342 0.9668,-0.10254 0.28319,-0.0732 0.53222,-0.16845 0.74707,-0.28564 0.21483,-0.11719 0.40282,-0.25146 0.56396,-0.40283 0.16601,-0.15625 0.31249,-0.31738 0.43946,-0.4834 0.083,0.0537 0.15135,0.12695 0.20507,0.21972 0.0537,0.0928 0.0806,0.21485 0.0806,0.36622 -1e-5,0.19043 -0.0659,0.38574 -0.19775,0.58593 -0.12697,0.19532 -0.32228,0.37354 -0.58594,0.53467 -0.26368,0.16113 -0.59815,0.29541 -1.00342,0.40283 -0.40528,0.10254 -0.88624,0.15381 -1.44287,0.15381 -0.74708,0 -1.40381,-0.13183 -1.97022,-0.39551 -0.5664,-0.26367 -1.04248,-0.6372 -1.42822,-1.1206 -0.38086,-0.4834 -0.66894,-1.06445 -0.86426,-1.74317 -0.19531,-0.6787 -0.29297,-1.43066 -0.29296,-2.25585 -1e-5,-0.81055 0.10253,-1.55273 0.30761,-2.22657 0.20508,-0.67382 0.50781,-1.25243 0.90821,-1.73584 0.40527,-0.48339 0.9082,-0.85936 1.50878,-1.12793 0.60059,-0.26854 1.29639,-0.40282 2.08741,-0.40283"
         style="font-variant:normal;font-stretch:normal;fill:#ffffff;font-family:Droid Serif;-inkscape-font-specification:Droid Serif"
         id="path3066"
         inkscape:connector-curvature="0" />
      <path
         d="m 131.8584,341.60749 0,-0.62989 0.19775,0 c 0.17089,1e-5 0.32958,-0.0122 0.47608,-0.0366 0.15136,-0.0244 0.28075,-0.0732 0.38818,-0.14648 0.1123,-0.0781 0.20019,-0.18799 0.26367,-0.32959 0.0684,-0.1416 0.10253,-0.32959 0.10254,-0.56397 l 0,-3.51562 -4.87793,0 0,3.51562 c 0,0.23438 0.0317,0.42237 0.0952,0.56397 0.0684,0.1416 0.15624,0.25147 0.26367,0.32959 0.1123,0.0732 0.24413,0.12207 0.39551,0.14648 0.15136,0.0244 0.31005,0.0366 0.47607,0.0366 l 0.19775,0 0,0.62989 -4.36523,0 0,-0.62989 0.19043,0 c 0.1709,1e-5 0.32959,-0.0122 0.47607,-0.0366 0.15137,-0.0244 0.28321,-0.0732 0.39551,-0.14648 0.1123,-0.0781 0.20019,-0.18799 0.26367,-0.32959 0.0635,-0.1416 0.0952,-0.32959 0.0952,-0.56397 l 0,-7.35351 c 0,-0.21972 -0.0342,-0.3955 -0.10254,-0.52734 -0.0635,-0.13671 -0.15137,-0.24169 -0.26367,-0.31495 -0.11231,-0.0732 -0.24414,-0.11962 -0.39551,-0.13916 -0.14649,-0.0244 -0.30274,-0.0366 -0.46875,-0.0366 l -0.19043,0 0,-0.62988 4.36523,0 0,0.62988 -0.19775,0 c -0.16602,10e-6 -0.32471,0.0122 -0.47607,0.0366 -0.15138,0.0244 -0.28321,0.0757 -0.39551,0.15381 -0.10743,0.0733 -0.19532,0.18068 -0.26367,0.32227 -0.0635,0.14161 -0.0952,0.3296 -0.0952,0.56396 l 0,3.03223 4.87793,0 0,-3.03223 c -1e-5,-0.23436 -0.0342,-0.42235 -0.10254,-0.56396 -0.0635,-0.14159 -0.15137,-0.24902 -0.26367,-0.32227 -0.10743,-0.0781 -0.23682,-0.12938 -0.38818,-0.15381 -0.1465,-0.0244 -0.30519,-0.0366 -0.47608,-0.0366 l -0.19775,0 0,-0.62988 4.36523,0 0,0.62988 -0.19043,0 c -0.17091,10e-6 -0.33204,0.0122 -0.4834,0.0366 -0.14649,0.0244 -0.27588,0.0757 -0.38818,0.15381 -0.11231,0.0733 -0.2002,0.18068 -0.26367,0.32227 -0.0635,0.14161 -0.0952,0.3296 -0.0952,0.56396 l 0,7.36817 c -1e-5,0.21972 0.0317,0.39795 0.0952,0.53466 0.0683,0.13184 0.15868,0.23194 0.271,0.3003 0.11229,0.0684 0.24168,0.11474 0.38818,0.13916 0.15136,0.0195 0.31005,0.0293 0.47607,0.0293 l 0.19043,0 0,0.62989 -4.36523,0"
         style="font-variant:normal;font-stretch:normal;fill:#ffffff;font-family:Droid Serif;-inkscape-font-specification:Droid Serif"
         id="path3068"
         inkscape:connector-curvature="0" />
      <path
         d="m 145.32764,341.60749 -5.625,-8.64258 0,6.93603 c -1e-5,0.23438 0.0317,0.42237 0.0952,0.56397 0.0684,0.1416 0.15625,0.25147 0.26367,0.32959 0.1123,0.0732 0.24414,0.12207 0.39551,0.14648 0.15136,0.0244 0.31006,0.0366 0.47608,0.0366 l 0.19775,0 0,0.62989 -3.76465,0 0,-0.62989 0.19043,0 c 0.1709,1e-5 0.32959,-0.0122 0.47607,-0.0366 0.15137,-0.0244 0.28321,-0.0732 0.39551,-0.14648 0.11231,-0.0781 0.2002,-0.18799 0.26367,-0.32959 0.0635,-0.1416 0.0952,-0.32959 0.0952,-0.56397 l 0,-7.35351 c 0,-0.21972 -0.0342,-0.3955 -0.10254,-0.52734 -0.0635,-0.13671 -0.15137,-0.24169 -0.26367,-0.31495 -0.11231,-0.0732 -0.24414,-0.11962 -0.39551,-0.13916 -0.14648,-0.0244 -0.30273,-0.0366 -0.46875,-0.0366 l -0.19043,0 0,-0.62988 2.74658,0 5.36866,8.29102 0,-6.64307 c -1e-5,-0.21972 -0.0342,-0.3955 -0.10254,-0.52734 -0.0635,-0.13671 -0.15138,-0.24169 -0.26368,-0.31495 -0.11231,-0.0732 -0.24414,-0.11962 -0.3955,-0.13916 -0.1465,-0.0244 -0.30275,-0.0366 -0.46875,-0.0366 l -0.19776,0 0,-0.62988 3.76465,0 0,0.62988 -0.19043,0 c -0.17091,10e-6 -0.33204,0.0122 -0.4834,0.0366 -0.14649,0.0244 -0.27589,0.0757 -0.38818,0.15381 -0.11232,0.0733 -0.20021,0.18068 -0.26367,0.32227 -0.0635,0.14161 -0.0952,0.3296 -0.0952,0.56396 l 0,9.00147 -1.06933,0"
         style="font-variant:normal;font-stretch:normal;fill:#ffffff;font-family:Droid Serif;-inkscape-font-specification:Droid Serif"
         id="path3070"
         inkscape:connector-curvature="0" />
      <path
         d="m 158.52588,336.23884 c -1e-5,0.82519 -0.10255,1.57715 -0.30762,2.25585 -0.20509,0.67872 -0.50782,1.25977 -0.9082,1.74317 -0.4004,0.4834 -0.89356,0.85693 -1.47949,1.1206 -0.58595,0.26368 -1.25733,0.39551 -2.01416,0.39551 -0.79591,0 -1.48927,-0.13183 -2.08008,-0.39551 -0.59083,-0.26367 -1.08155,-0.6372 -1.47217,-1.1206 -0.39063,-0.4834 -0.68359,-1.06445 -0.87891,-1.74317 -0.19531,-0.68359 -0.29297,-1.44042 -0.29296,-2.2705 -1e-5,-0.83008 0.0977,-1.58203 0.29296,-2.25586 0.19532,-0.67871 0.48828,-1.25732 0.87891,-1.73584 0.39062,-0.47851 0.88379,-0.84716 1.47949,-1.10596 0.5957,-0.26366 1.2915,-0.3955 2.0874,-0.39551 0.75683,10e-6 1.42578,0.13185 2.00684,0.39551 0.58105,0.2588 1.07177,0.62989 1.47217,1.11328 0.40038,0.47853 0.70311,1.05714 0.9082,1.73584 0.20507,0.67384 0.30761,1.42823 0.30762,2.26319 m -7.771,0 c 0,0.74219 0.0537,1.40625 0.16114,1.99218 0.1123,0.58106 0.29052,1.07422 0.53466,1.47949 0.24414,0.4004 0.55908,0.70801 0.94483,0.92286 0.39062,0.20996 0.86425,0.31494 1.4209,0.31494 0.55663,0 1.02782,-0.10498 1.41357,-0.31494 0.39062,-0.21485 0.70556,-0.52246 0.94482,-0.92286 0.24414,-0.40527 0.41992,-0.89843 0.52735,-1.47949 0.10741,-0.58593 0.16112,-1.24999 0.16113,-1.99218 -1e-5,-0.74219 -0.0537,-1.40381 -0.16113,-1.98487 -0.10743,-0.58593 -0.28321,-1.07909 -0.52735,-1.47949 -0.23926,-0.40038 -0.55176,-0.70556 -0.9375,-0.91553 -0.38086,-0.20995 -0.84961,-0.31493 -1.40625,-0.31494 -0.55664,10e-6 -1.03027,0.10499 -1.42089,0.31494 -0.39063,0.20997 -0.71046,0.51515 -0.95948,0.91553 -0.24414,0.4004 -0.42236,0.89356 -0.53466,1.47949 -0.10743,0.58106 -0.16114,1.24268 -0.16114,1.98487"
         style="font-variant:normal;font-stretch:normal;fill:#ffffff;font-family:Droid Serif;-inkscape-font-specification:Droid Serif"
         id="path3072"
         inkscape:connector-curvature="0" />
      <path
         d="m 159.9541,341.60749 0,-0.62989 0.19043,0 c 0.1709,1e-5 0.32959,-0.0122 0.47608,-0.0366 0.15136,-0.0244 0.2832,-0.0732 0.3955,-0.14648 0.11231,-0.0781 0.2002,-0.18799 0.26368,-0.32959 0.0635,-0.1416 0.0952,-0.32959 0.0952,-0.56397 l 0,-7.29492 c 0,-0.23436 -0.0317,-0.42235 -0.0952,-0.56396 -0.0635,-0.14159 -0.15137,-0.24902 -0.26368,-0.32227 -0.1123,-0.0781 -0.24414,-0.12938 -0.3955,-0.15381 -0.14649,-0.0244 -0.30518,-0.0366 -0.47608,-0.0366 l -0.19043,0 0,-0.62988 4.36524,0 0,0.62988 -0.19776,0 c -0.16602,10e-6 -0.32471,0.0122 -0.47607,0.0366 -0.14649,0.0195 -0.27589,0.0659 -0.38819,0.13916 -0.1123,0.0733 -0.20264,0.17824 -0.27099,0.31495 -0.0635,0.13184 -0.0952,0.30762 -0.0952,0.52734 l 0,8.31299 2.95899,0 c 0.2246,0 0.41503,-0.0391 0.57129,-0.11719 0.16112,-0.083 0.29296,-0.18799 0.3955,-0.31494 0.10254,-0.13184 0.18066,-0.27832 0.23438,-0.43945 0.0586,-0.16114 0.0977,-0.32227 0.11719,-0.4834 l 0.14648,-1.12061 0.78369,0 -0.10254,3.22266 -8.04199,0"
         style="font-variant:normal;font-stretch:normal;fill:#ffffff;font-family:Droid Serif;-inkscape-font-specification:Droid Serif"
         id="path3074"
         inkscape:connector-curvature="0" />
      <path
         d="m 179.00439,336.23884 c -1e-5,0.82519 -0.10254,1.57715 -0.30761,2.25585 -0.20509,0.67872 -0.50782,1.25977 -0.90821,1.74317 -0.4004,0.4834 -0.89356,0.85693 -1.47949,1.1206 -0.58594,0.26368 -1.25733,0.39551 -2.01416,0.39551 -0.7959,0 -1.48926,-0.13183 -2.08008,-0.39551 -0.59082,-0.26367 -1.08154,-0.6372 -1.47216,-1.1206 -0.39063,-0.4834 -0.6836,-1.06445 -0.87891,-1.74317 -0.19531,-0.68359 -0.29297,-1.44042 -0.29297,-2.2705 0,-0.83008 0.0977,-1.58203 0.29297,-2.25586 0.19531,-0.67871 0.48828,-1.25732 0.87891,-1.73584 0.39062,-0.47851 0.88378,-0.84716 1.47949,-1.10596 0.5957,-0.26366 1.2915,-0.3955 2.0874,-0.39551 0.75683,10e-6 1.42577,0.13185 2.00684,0.39551 0.58104,0.2588 1.07176,0.62989 1.47216,1.11328 0.40039,0.47853 0.70312,1.05714 0.90821,1.73584 0.20507,0.67384 0.3076,1.42823 0.30761,2.26319 m -7.77099,0 c 0,0.74219 0.0537,1.40625 0.16113,1.99218 0.1123,0.58106 0.29053,1.07422 0.53467,1.47949 0.24414,0.4004 0.55908,0.70801 0.94482,0.92286 0.39062,0.20996 0.86426,0.31494 1.4209,0.31494 0.55664,0 1.02783,-0.10498 1.41358,-0.31494 0.39061,-0.21485 0.70555,-0.52246 0.94482,-0.92286 0.24413,-0.40527 0.41991,-0.89843 0.52734,-1.47949 0.10742,-0.58593 0.16113,-1.24999 0.16114,-1.99218 -1e-5,-0.74219 -0.0537,-1.40381 -0.16114,-1.98487 -0.10743,-0.58593 -0.28321,-1.07909 -0.52734,-1.47949 -0.23927,-0.40038 -0.55176,-0.70556 -0.9375,-0.91553 -0.38087,-0.20995 -0.84962,-0.31493 -1.40625,-0.31494 -0.55665,10e-6 -1.03028,0.10499 -1.4209,0.31494 -0.39063,0.20997 -0.71045,0.51515 -0.95947,0.91553 -0.24414,0.4004 -0.42237,0.89356 -0.53467,1.47949 -0.10742,0.58106 -0.16113,1.24268 -0.16113,1.98487"
         style="font-variant:normal;font-stretch:normal;fill:#ffffff;font-family:Droid Serif;-inkscape-font-specification:Droid Serif"
         id="path3076"
         inkscape:connector-curvature="0" />
      <path
         d="m 185.87451,341.75397 c -0.86914,0 -1.62842,-0.13183 -2.27783,-0.39551 -0.64453,-0.26367 -1.18164,-0.6372 -1.61133,-1.1206 -0.4248,-0.4834 -0.74219,-1.06445 -0.95215,-1.74317 -0.20996,-0.6787 -0.31494,-1.43066 -0.31494,-2.25585 0,-0.81055 0.10986,-1.55273 0.32959,-2.22657 0.22461,-0.67382 0.55664,-1.25243 0.9961,-1.73584 0.44433,-0.48339 0.99364,-0.85936 1.64794,-1.12793 0.6543,-0.26854 1.41357,-0.40282 2.27784,-0.40283 0.55663,10e-6 1.04003,0.044 1.45019,0.13184 0.41503,0.083 0.75927,0.2002 1.03272,0.35156 0.27831,0.15138 0.48583,0.3296 0.62256,0.53467 0.1367,0.20509 0.20506,0.42725 0.20507,0.6665 -1e-5,0.16114 -0.0366,0.30763 -0.10986,0.43945 -0.0733,0.12697 -0.17335,0.23683 -0.30029,0.32959 -0.12208,0.0879 -0.26857,0.15626 -0.43946,0.20508 -0.16602,0.0488 -0.34668,0.0733 -0.54199,0.0732 -1e-5,-0.23436 -0.0342,-0.4663 -0.10254,-0.6958 -0.0684,-0.22948 -0.18067,-0.43456 -0.33691,-0.61523 -0.15626,-0.18554 -0.36134,-0.33446 -0.61524,-0.44678 -0.25391,-0.11718 -0.56397,-0.17577 -0.93017,-0.17578 -0.63477,10e-6 -1.17676,0.10499 -1.62598,0.31494 -0.44434,0.20509 -0.80811,0.50782 -1.09131,0.90821 -0.2832,0.39551 -0.48828,0.88623 -0.61523,1.47216 -0.12696,0.58106 -0.19043,1.24757 -0.19043,1.99952 0,0.74707 0.0659,1.41113 0.19775,1.99218 0.13184,0.58106 0.34668,1.06934 0.64453,1.46485 0.29785,0.39551 0.68359,0.6958 1.15723,0.90088 0.47363,0.20507 1.05224,0.30761 1.73584,0.30761 0.28808,0 0.5664,-0.0147 0.83496,-0.0439 0.27343,-0.0293 0.51513,-0.0757 0.7251,-0.13916 l 0,-2.417 c -10e-6,-0.21972 -0.0342,-0.3955 -0.10254,-0.52734 -0.0635,-0.13671 -0.15137,-0.23925 -0.26367,-0.30762 -0.11231,-0.0732 -0.24415,-0.12206 -0.39551,-0.14648 -0.14649,-0.0244 -0.30274,-0.0366 -0.46875,-0.0366 l -0.0586,0 0,-0.62988 3.89648,0 0,0.62988 -0.0586,0 c -0.14161,0 -0.27589,0.0122 -0.40283,0.0366 -0.12697,0.0244 -0.23683,0.0757 -0.32959,0.15381 -0.0928,0.0732 -0.16603,0.18311 -0.21973,0.32959 -0.0537,0.1416 -0.0806,0.32959 -0.0806,0.56396 l 0,2.69532 c -0.50294,0.23437 -1.02051,0.40771 -1.55273,0.52001 -0.53224,0.11231 -1.12061,0.16846 -1.76514,0.16846"
         style="font-variant:normal;font-stretch:normal;fill:#ffffff;font-family:Droid Serif;-inkscape-font-specification:Droid Serif"
         id="path3078"
         inkscape:connector-curvature="0" />
      <path
         d="m 192.67871,341.60749 0,-0.62989 0.34424,0 c 0.16601,1e-5 0.32226,-0.01 0.46875,-0.0293 0.15136,-0.0244 0.2832,-0.0708 0.39551,-0.13916 0.1123,-0.0684 0.20019,-0.16846 0.26367,-0.3003 0.0684,-0.13671 0.10253,-0.31494 0.10254,-0.53466 l 0,-2.83448 -2.77588,-4.81933 c -0.083,-0.14159 -0.16113,-0.26122 -0.23438,-0.35889 -0.0732,-0.10253 -0.15136,-0.18554 -0.23437,-0.24902 -0.0781,-0.0635 -0.16602,-0.10986 -0.26367,-0.13916 -0.0977,-0.0293 -0.20996,-0.0439 -0.33692,-0.0439 l -0.19043,0 0,-0.62988 4.12354,0 0,0.62988 -0.55664,0 c -0.13672,10e-6 -0.24903,0.0122 -0.33692,0.0366 -0.083,0.0244 -0.14892,0.0586 -0.19775,0.10254 -0.0488,0.044 -0.083,0.0952 -0.10254,0.15381 -0.0146,0.0586 -0.022,0.11964 -0.022,0.18311 0,0.14161 0.0293,0.28321 0.0879,0.4248 0.0635,0.14161 0.12451,0.26612 0.1831,0.37354 l 1.10596,2.00683 c 0.17578,0.30763 0.3247,0.6128 0.44678,0.91553 0.12206,0.29786 0.2246,0.56397 0.30762,0.79834 0.0439,-0.10742 0.0976,-0.22705 0.16113,-0.35889 0.0684,-0.13183 0.1416,-0.27099 0.21973,-0.41748 0.083,-0.15136 0.16845,-0.30517 0.25634,-0.46142 0.0879,-0.16113 0.17578,-0.31982 0.26367,-0.47608 l 0.95948,-1.72119 c 0.0977,-0.17089 0.16601,-0.33202 0.20508,-0.4834 0.0439,-0.15624 0.0659,-0.2954 0.0659,-0.41748 0,-0.21971 -0.0781,-0.38329 -0.23437,-0.49072 -0.15626,-0.1123 -0.37843,-0.16845 -0.66651,-0.16846 l -0.43945,0 0,-0.62988 3.66211,0 0,0.62988 -0.17578,0 c -0.10743,10e-6 -0.20997,0.0195 -0.30762,0.0586 -0.0928,0.0342 -0.18799,0.0977 -0.28564,0.19043 -0.0977,0.0879 -0.20021,0.20753 -0.30762,0.35888 -0.10255,0.1465 -0.21729,0.33204 -0.34424,0.55664 l -2.51953,4.4458 0,2.76123 c 0,0.23438 0.0317,0.42237 0.0952,0.56397 0.0635,0.1416 0.15136,0.25147 0.26367,0.32959 0.1123,0.0732 0.24169,0.12207 0.38818,0.14648 0.15136,0.0244 0.31005,0.0366 0.47608,0.0366 l 0.35156,0 0,0.62989 -4.66553,0"
         style="font-variant:normal;font-stretch:normal;fill:#ffffff;font-family:Droid Serif;-inkscape-font-specification:Droid Serif"
         id="path3080"
         inkscape:connector-curvature="0" />
      <path
         d="m 207.0708,331.64655 0,4.33594 3.61816,0 0,0.73242 -3.61816,0 0,3.18603 c 0,0.23438 0.0317,0.42237 0.0952,0.56397 0.0684,0.1416 0.15624,0.25147 0.26367,0.32959 0.1123,0.0732 0.24413,0.12207 0.39551,0.14648 0.15136,0.0244 0.31005,0.0366 0.47607,0.0366 l 0.49805,0 0,0.62989 -4.66553,0 0,-0.62989 0.19043,0 c 0.16601,1e-5 0.32226,-0.01 0.46875,-0.0293 0.15136,-0.0244 0.2832,-0.0708 0.39551,-0.13916 0.1123,-0.0684 0.20019,-0.16846 0.26367,-0.3003 0.0684,-0.13671 0.10254,-0.31494 0.10254,-0.53466 l 0,-7.42676 c 0,-0.21972 -0.0342,-0.3955 -0.10254,-0.52734 -0.0635,-0.13671 -0.15137,-0.24169 -0.26367,-0.31495 -0.11231,-0.0732 -0.24415,-0.11962 -0.39551,-0.13916 -0.14649,-0.0244 -0.30274,-0.0366 -0.46875,-0.0366 l -0.19043,0 0,-0.62988 7.55859,0 0.0732,2.62207 -0.77636,0 -0.0732,-0.64453 c -0.0195,-0.17089 -0.0586,-0.32958 -0.11719,-0.47608 -0.0586,-0.15135 -0.14405,-0.28075 -0.25635,-0.38818 -0.10743,-0.11229 -0.24415,-0.20018 -0.41016,-0.26367 -0.16602,-0.0684 -0.36621,-0.10253 -0.60058,-0.10254 l -2.46094,0"
         style="font-variant:normal;font-stretch:normal;fill:#ffffff;font-family:Droid Serif;-inkscape-font-specification:Droid Serif"
         id="path3082"
         inkscape:connector-curvature="0" />
      <path
         d="m 212.98145,341.60749 0,-0.62989 0.19042,0 c 0.1709,1e-5 0.32959,-0.0122 0.47608,-0.0366 0.15137,-0.0244 0.2832,-0.0732 0.39551,-0.14648 0.1123,-0.0781 0.20019,-0.18799 0.26367,-0.32959 0.0635,-0.1416 0.0952,-0.32959 0.0952,-0.56397 l 0,-7.29492 c 0,-0.23436 -0.0317,-0.42235 -0.0952,-0.56396 -0.0635,-0.14159 -0.15137,-0.24902 -0.26367,-0.32227 -0.11231,-0.0781 -0.24414,-0.12938 -0.39551,-0.15381 -0.14649,-0.0244 -0.30518,-0.0366 -0.47608,-0.0366 l -0.19042,0 0,-0.62988 4.36523,0 0,0.62988 -0.19775,0 c -0.16602,10e-6 -0.32472,0.0122 -0.47608,0.0366 -0.15137,0.0244 -0.28321,0.0757 -0.39551,0.15381 -0.10742,0.0733 -0.19531,0.18068 -0.26367,0.32227 -0.0635,0.14161 -0.0952,0.3296 -0.0952,0.56396 l 0,7.29492 c -1e-5,0.23438 0.0317,0.42237 0.0952,0.56397 0.0684,0.1416 0.15625,0.25147 0.26367,0.32959 0.1123,0.0732 0.24414,0.12207 0.39551,0.14648 0.15136,0.0244 0.31006,0.0366 0.47608,0.0366 l 0.19775,0 0,0.62989 -4.36523,0"
         style="font-variant:normal;font-stretch:normal;fill:#ffffff;font-family:Droid Serif;-inkscape-font-specification:Droid Serif"
         id="path3084"
         inkscape:connector-curvature="0" />
      <path
         d="m 226.23096,339.77643 c 0.25389,0.40039 0.50048,0.70069 0.73974,0.90088 0.23925,0.2002 0.51757,0.3003 0.83496,0.30029 l 0.044,0 0,0.62989 -0.2124,0 c -0.46876,0 -0.8545,-0.0171 -1.15723,-0.0513 -0.29786,-0.0342 -0.55177,-0.1001 -0.76172,-0.19776 -0.20997,-0.0976 -0.39063,-0.23437 -0.54199,-0.41015 -0.14649,-0.17578 -0.30518,-0.40527 -0.47607,-0.68848 l -2.02881,-3.37646 -1.24512,0 0,3.09082 c 0,0.21972 0.0317,0.39795 0.0952,0.53466 0.0684,0.13184 0.15869,0.23194 0.271,0.3003 0.1123,0.0684 0.2417,0.11474 0.38818,0.13916 0.15137,0.0195 0.31006,0.0293 0.47608,0.0293 l 0.19775,0 0,0.62989 -4.36523,0 0,-0.62989 0.19043,0 c 0.16601,1e-5 0.32226,-0.01 0.46875,-0.0293 0.15136,-0.0244 0.2832,-0.0708 0.39551,-0.13916 0.1123,-0.0684 0.20019,-0.16846 0.26367,-0.3003 0.0684,-0.13671 0.10253,-0.31494 0.10254,-0.53466 l 0,-7.42676 c -1e-5,-0.21972 -0.0342,-0.3955 -0.10254,-0.52734 -0.0635,-0.13671 -0.15137,-0.24169 -0.26367,-0.31495 -0.11231,-0.0732 -0.24415,-0.11962 -0.39551,-0.13916 -0.14649,-0.0244 -0.30274,-0.0366 -0.46875,-0.0366 l -0.19043,0 0,-0.62988 4.03564,0 c 1.29882,10e-6 2.26562,0.24171 2.90039,0.7251 0.63476,0.47852 0.95214,1.20118 0.95215,2.16797 -1e-5,0.40039 -0.0659,0.75196 -0.19775,1.05468 -0.12696,0.29786 -0.29542,0.55665 -0.50537,0.77637 -0.20997,0.21973 -0.44679,0.40284 -0.71045,0.54932 -0.26368,0.14649 -0.52735,0.26367 -0.79102,0.35156 l 2.05811,3.25195 m -4.80469,-3.59619 1.05469,0 c 0.43945,1e-5 0.80566,-0.0488 1.09863,-0.14648 0.29296,-0.0976 0.52734,-0.24414 0.70312,-0.43946 0.17578,-0.1953 0.30029,-0.43944 0.37354,-0.73242 0.0781,-0.29296 0.11718,-0.63476 0.11719,-1.02539 -1e-5,-0.40038 -0.0415,-0.73974 -0.12451,-1.01807 -0.083,-0.28319 -0.2173,-0.51268 -0.40284,-0.68847 -0.18555,-0.18066 -0.42725,-0.31005 -0.72509,-0.38819 -0.29298,-0.083 -0.65186,-0.1245 -1.07666,-0.12451 l -1.01807,0 0,4.56299"
         style="font-variant:normal;font-stretch:normal;fill:#ffffff;font-family:Droid Serif;-inkscape-font-specification:Droid Serif"
         id="path3086"
         inkscape:connector-curvature="0" />
      <path
         d="m 231.46777,341.75397 c -0.48828,0 -0.92041,-0.0513 -1.29638,-0.15381 -0.3711,-0.10254 -0.6836,-0.24414 -0.9375,-0.4248 -0.24903,-0.18555 -0.43702,-0.40772 -0.56397,-0.66651 -0.12695,-0.26367 -0.19043,-0.55175 -0.19043,-0.86425 0,-0.30274 0.0928,-0.54688 0.27832,-0.73243 0.19043,-0.18554 0.45899,-0.27831 0.80567,-0.27832 0.0146,0.31251 0.061,0.6128 0.13916,0.90088 0.083,0.28809 0.20507,0.542 0.36621,0.76172 0.16113,0.21973 0.36621,0.39551 0.61523,0.52735 0.24902,0.13183 0.54931,0.19775 0.90088,0.19775 0.67382,0 1.19873,-0.16113 1.57471,-0.4834 0.38085,-0.32715 0.57128,-0.7959 0.57129,-1.40625 -1e-5,-0.27343 -0.0391,-0.51513 -0.11719,-0.7251 -0.0781,-0.20995 -0.20753,-0.40282 -0.38818,-0.57861 -0.18067,-0.18066 -0.41993,-0.35156 -0.71778,-0.51269 -0.29297,-0.16602 -0.65918,-0.33936 -1.09863,-0.52002 -0.46387,-0.19043 -0.86914,-0.39307 -1.21582,-0.60791 -0.34668,-0.21973 -0.63477,-0.46142 -0.86426,-0.7251 -0.22949,-0.26855 -0.40039,-0.5664 -0.51269,-0.89356 -0.11231,-0.32714 -0.16846,-0.69579 -0.16846,-1.10595 0,-0.42968 0.0806,-0.81298 0.2417,-1.14991 0.16601,-0.3369 0.3955,-0.6201 0.68847,-0.84961 0.29297,-0.23436 0.63965,-0.41258 1.04004,-0.53466 0.40039,-0.12206 0.8374,-0.1831 1.31104,-0.18311 0.44921,10e-6 0.84716,0.0464 1.19385,0.13916 0.34667,0.0928 0.63964,0.2173 0.8789,0.37354 0.23925,0.15626 0.41992,0.33692 0.542,0.54199 0.12694,0.2002 0.19042,0.41016 0.19042,0.62988 0,0.32228 -0.10742,0.56642 -0.32226,0.73242 -0.20997,0.16114 -0.49561,0.24171 -0.85693,0.2417 -1e-5,-0.23436 -0.0293,-0.46386 -0.0879,-0.68847 -0.0537,-0.22949 -0.14649,-0.43212 -0.27833,-0.60791 -0.13184,-0.18066 -0.30518,-0.32714 -0.52001,-0.43946 -0.21485,-0.11229 -0.48097,-0.16844 -0.79834,-0.16845 -0.28809,1e-5 -0.54688,0.0415 -0.77637,0.12451 -0.22461,0.0781 -0.41504,0.19288 -0.57129,0.34424 -0.15625,0.14649 -0.27588,0.32471 -0.35889,0.53466 -0.083,0.20997 -0.12451,0.44435 -0.12451,0.70313 0,0.29786 0.0391,0.56153 0.11719,0.79101 0.0781,0.22462 0.20752,0.4297 0.38818,0.61524 0.18555,0.18067 0.42724,0.35401 0.7251,0.52002 0.29785,0.16114 0.66406,0.32959 1.09863,0.50537 0.43945,0.18067 0.83008,0.3711 1.17188,0.57129 0.34667,0.2002 0.63964,0.42481 0.8789,0.67383 0.23925,0.24414 0.42236,0.52002 0.54932,0.82763 0.12695,0.30274 0.19042,0.64698 0.19043,1.03272 -10e-6,0.47363 -0.0879,0.89844 -0.26367,1.27441 -0.17091,0.3711 -0.41749,0.68604 -0.73975,0.94483 -0.32227,0.25879 -0.71045,0.45654 -1.16455,0.59326 -0.45411,0.13183 -0.96192,0.19775 -1.52344,0.19775"
         style="font-variant:normal;font-stretch:normal;fill:#ffffff;font-family:Droid Serif;-inkscape-font-specification:Droid Serif"
         id="path3088"
         inkscape:connector-curvature="0" />
      <path
         d="m 240.98193,339.90094 c 0,0.23438 0.0317,0.42237 0.0952,0.56397 0.0684,0.1416 0.15624,0.25147 0.26367,0.32959 0.1123,0.0732 0.24413,0.12207 0.39551,0.14648 0.15136,0.0244 0.31005,0.0366 0.47607,0.0366 l 0.34424,0 0,0.62989 -4.66553,0 0,-0.62989 0.34424,0 c 0.16601,1e-5 0.32226,-0.01 0.46875,-0.0293 0.15137,-0.0244 0.2832,-0.0708 0.39551,-0.13916 0.1123,-0.0684 0.20019,-0.16846 0.26367,-0.3003 0.0684,-0.13671 0.10254,-0.31494 0.10254,-0.53466 l 0,-8.32764 -1.43555,0 c -0.21973,10e-6 -0.40527,0.0342 -0.55664,0.10254 -0.14648,0.0635 -0.26855,0.15138 -0.36621,0.26367 -0.0928,0.11232 -0.16357,0.24415 -0.2124,0.39551 -0.0439,0.14649 -0.0757,0.30274 -0.0952,0.46875 l -0.0806,0.64453 -0.77637,0 0.0732,-2.62207 8.44483,0 0.0732,2.62207 -0.77637,0 -0.0732,-0.64453 c -0.0195,-0.16601 -0.0537,-0.32226 -0.10254,-0.46875 -0.0488,-0.15136 -0.11964,-0.28319 -0.2124,-0.39551 -0.0928,-0.11229 -0.21485,-0.20018 -0.36621,-0.26367 -0.15138,-0.0684 -0.33936,-0.10253 -0.56397,-0.10254 l -1.45752,0 0,8.25439"
         style="font-variant:normal;font-stretch:normal;fill:#ffffff;font-family:Droid Serif;-inkscape-font-specification:Droid Serif"
         id="path3090"
         inkscape:connector-curvature="0" />
    </g>
  </g>
</svg>
