<?xml version="1.0" encoding="UTF-8" standalone="no"?>
<!-- Created with Inkscape (http://www.inkscape.org/) -->

<svg
   xmlns:dc="http://purl.org/dc/elements/1.1/"
   xmlns:cc="http://creativecommons.org/ns#"
   xmlns:rdf="http://www.w3.org/1999/02/22-rdf-syntax-ns#"
   xmlns:svg="http://www.w3.org/2000/svg"
   xmlns="http://www.w3.org/2000/svg"
   xmlns:sodipodi="http://sodipodi.sourceforge.net/DTD/sodipodi-0.dtd"
   xmlns:inkscape="http://www.inkscape.org/namespaces/inkscape"
   width="238.07996"
   height="183.27585"
   id="svg3111"
   version="1.1"
   inkscape:version="0.48.3.1 r9886"
   sodipodi:docname="user.svg">
  <defs
     id="defs3113" />
  <sodipodi:namedview
     id="base"
     pagecolor="#ffffff"
     bordercolor="#666666"
     borderopacity="1.0"
     inkscape:pageopacity="0.0"
     inkscape:pageshadow="2"
     inkscape:zoom="2.8"
     inkscape:cx="133.74974"
     inkscape:cy="85.996145"
     inkscape:document-units="px"
     inkscape:current-layer="layer1"
     showgrid="false"
     fit-margin-top="0"
     fit-margin-left="0"
     fit-margin-right="0"
     fit-margin-bottom="0"
     inkscape:window-width="1600"
     inkscape:window-height="844"
     inkscape:window-x="0"
     inkscape:window-y="27"
     inkscape:window-maximized="1" />
  <metadata
     id="metadata3116">
    <rdf:RDF>
      <cc:Work
         rdf:about="">
        <dc:format>image/svg+xml</dc:format>
        <dc:type
           rdf:resource="http://purl.org/dc/dcmitype/StillImage" />
        <dc:title />
      </cc:Work>
    </rdf:RDF>
  </metadata>
  <g
     inkscape:label="Layer 1"
     inkscape:groupmode="layer"
     id="layer1"
     transform="translate(-146.6743,-482.15284)">
    <path
       inkscape:connector-curvature="0"
       id="path3389"
       style="font-size:15px;font-style:normal;font-variant:normal;font-weight:bold;font-stretch:normal;text-align:center;line-height:125%;letter-spacing:0px;word-spacing:0px;text-anchor:middle;fill:#ffffff;fill-opacity:1;stroke:none;font-family:Droid Serif;-inkscape-font-specification:Droid Serif Bold"
       d="m 179.88688,517.76988 c 0.99433,3e-5 1.876,-0.11268 2.64498,-0.33807 0.78221,-0.23868 1.47824,-0.54357 2.08814,-0.9148 0.60984,-0.37123 1.14016,-0.78886 1.59097,-1.2529 0.46401,-0.46401 0.86837,-0.92142 1.21312,-1.37221 0.21207,0.15912 0.37783,0.40439 0.49716,0.73584 0.13251,0.33145 0.19876,0.66953 0.19876,1.01423 -3e-5,0.57012 -0.15259,1.17334 -0.45739,1.80974 -0.30497,0.62312 -0.81538,1.19984 -1.53131,1.73016 -0.71596,0.53034 -1.66391,0.96785 -2.84384,1.31255 -1.18,0.34472 -2.63839,0.51706 -4.37517,0.51706 -2.35994,0 -4.42157,-0.35795 -6.18488,-1.0739 -1.76334,-0.71594 -3.22835,-1.73016 -4.39504,-3.04271 -1.16672,-1.31256 -2.04176,-2.89025 -2.62511,-4.73315 -0.58337,-1.84284 -0.87504,-3.8846 -0.87504,-6.1252 0,-2.20085 0.29833,-4.21605 0.89492,-6.04569 0.59662,-1.82959 1.47829,-3.40067 2.64498,-4.71325 1.17996,-1.31252 2.64498,-2.33338 4.39507,-3.06261 1.76331,-0.72916 3.79841,-1.09376 6.10532,-1.09378 1.56444,2e-5 2.9234,0.12599 4.07687,0.37785 1.16669,0.23867 2.13451,0.57012 2.90349,0.99435 0.76896,0.42428 1.34569,0.9281 1.73019,1.51142 0.38446,0.57012 0.57669,1.18662 0.57673,1.84952 -4e-5,0.50381 -0.11269,0.97448 -0.33808,1.41196 -0.21207,0.42428 -0.53697,0.79551 -0.97448,1.11368 -0.42426,0.31823 -0.95461,0.57013 -1.59095,0.75572 -0.63642,0.17241 -1.3656,0.25848 -2.1876,0.25848 -2e-5,-0.67614 -0.073,-1.34567 -0.21885,-2.0086 -0.14581,-0.67613 -0.39778,-1.286 -0.7557,-1.82962 -0.34473,-0.54354 -0.80214,-0.98107 -1.37223,-1.31255 -0.5701,-0.34468 -1.27941,-0.51704 -2.12792,-0.51707 -1.28602,3e-5 -2.37321,0.27182 -3.26148,0.81539 -0.88829,0.54359 -1.60423,1.33908 -2.14779,2.38644 -0.53034,1.0474 -0.91482,2.34008 -1.15347,3.878 -0.23867,1.52469 -0.35798,3.26811 -0.35795,5.2303 -3e-5,1.96221 0.14581,3.67912 0.43751,5.15076 0.29167,1.47163 0.76234,2.698 1.41198,3.67911 0.64963,0.96785 1.49152,1.69703 2.52565,2.18757 1.04738,0.47728 2.32678,0.71596 3.83823,0.71593" />
    <path
       inkscape:connector-curvature="0"
       id="path3391"
       style="font-size:15px;font-style:normal;font-variant:normal;font-weight:bold;font-stretch:normal;text-align:center;line-height:125%;letter-spacing:0px;word-spacing:0px;text-anchor:middle;fill:#ffffff;fill-opacity:1;stroke:none;font-family:Droid Serif;-inkscape-font-specification:Droid Serif Bold"
       d="m 219.6014,506.03652 c -3e-5,2.2406 -0.30496,4.28236 -0.9148,6.1252 -0.59665,1.8429 -1.48494,3.42059 -2.66488,4.73315 -1.16672,1.31255 -2.60523,2.32677 -4.31549,3.04271 -1.69706,0.71595 -3.65261,1.0739 -5.8667,1.0739 -2.32016,0 -4.34865,-0.35795 -6.08545,-1.0739 -1.72356,-0.71594 -3.15543,-1.73016 -4.29561,-3.04271 -1.14019,-1.31256 -1.99533,-2.89025 -2.56543,-4.73315 -0.57012,-1.85612 -0.85517,-3.9111 -0.85513,-6.16498 -4e-5,-2.25387 0.28501,-4.2956 0.85513,-6.12523 0.5701,-1.84286 1.42524,-3.41394 2.56543,-4.71323 1.15344,-1.29928 2.59195,-2.30026 4.31551,-3.00296 1.73678,-0.71591 3.77189,-1.07388 6.10533,-1.07391 2.20081,3e-5 4.14974,0.358 5.8468,1.07391 1.71028,0.7027 3.14877,1.71031 4.31551,3.02283 1.16667,1.29933 2.04833,2.8704 2.64498,4.71324 0.60984,1.82965 0.91477,3.878 0.9148,6.14513 m -20.72234,0 c -3e-5,1.94893 0.12599,3.68573 0.37786,5.2104 0.25197,1.5247 0.65624,2.81735 1.21308,3.87798 0.55685,1.04741 1.27278,1.84952 2.14782,2.40634 0.88828,0.55685 1.96218,0.83526 3.22171,0.83526 1.27276,0 2.34665,-0.27841 3.22172,-0.83526 0.88827,-0.55682 1.6042,-1.35893 2.14779,-2.40634 0.54357,-1.06063 0.93467,-2.35328 1.17334,-3.87798 0.25198,-1.52467 0.37783,-3.26147 0.37786,-5.2104 -3e-5,-1.94892 -0.12599,-3.68574 -0.37786,-5.21043 -0.23867,-1.52467 -0.62977,-2.81069 -1.17334,-3.8581 -0.54359,-1.0606 -1.2529,-1.86272 -2.12791,-2.40634 -0.87505,-0.55682 -1.94233,-0.83523 -3.20182,-0.83526 -1.27278,3e-5 -2.35331,0.27844 -3.24161,0.83526 -0.88829,0.54362 -1.61085,1.34574 -2.1677,2.40634 -0.55684,1.04741 -0.96119,2.33343 -1.21308,3.8581 -0.25198,1.52469 -0.37789,3.26151 -0.37786,5.21043" />
    <path
       inkscape:connector-curvature="0"
       id="path3393"
       style="font-size:15px;font-style:normal;font-variant:normal;font-weight:bold;font-stretch:normal;text-align:center;line-height:125%;letter-spacing:0px;word-spacing:0px;text-anchor:middle;fill:#ffffff;fill-opacity:1;stroke:none;font-family:Droid Serif;-inkscape-font-specification:Droid Serif Bold"
       d="m 245.71315,520.61375 -15.88978,-22.43264 0,17.61997 c 0,0.58334 0.0529,1.04738 0.15911,1.39209 0.1192,0.34472 0.27179,0.60986 0.45741,0.79548 0.18572,0.18573 0.40436,0.31157 0.65628,0.37785 0.26528,0.0529 0.53694,0.0796 0.81535,0.0796 l 1.71032,0 0,2.16769 -10.63961,0 0,-2.16769 1.71029,0 c 0.29167,0 0.56347,-0.0272 0.81539,-0.0796 0.25197,-0.0663 0.47063,-0.19224 0.65624,-0.37785 0.19903,-0.18572 0.35136,-0.45076 0.45742,-0.79548 0.10617,-0.34471 0.15911,-0.80875 0.15911,-1.39209 l 0,-19.62858 c -2e-5,-0.54354 -0.0597,-0.97442 -0.17893,-1.29265 -0.10617,-0.33142 -0.2585,-0.58334 -0.45741,-0.75571 -0.18573,-0.17241 -0.40439,-0.28502 -0.65628,-0.33807 -0.25198,-0.0663 -0.51707,-0.0994 -0.79549,-0.0994 l -1.71028,0 0,-2.14782 9.04863,0 14.37836,20.32461 0,-15.69092 c -2e-5,-0.54355 -0.0597,-0.97443 -0.17893,-1.29266 -0.10616,-0.33142 -0.25849,-0.58334 -0.45741,-0.7557 -0.18572,-0.17242 -0.40439,-0.28502 -0.65628,-0.33808 -0.25198,-0.0663 -0.51706,-0.0994 -0.79545,-0.0994 l -1.71031,0 0,-2.14782 10.6396,0 0,2.14782 -1.71028,0 c -0.27846,2e-5 -0.54363,0.0331 -0.79549,0.0994 -0.25198,0.0529 -0.47732,0.17242 -0.67615,0.35796 -0.18573,0.18572 -0.33151,0.45081 -0.43754,0.79548 -0.10616,0.34473 -0.15912,0.80877 -0.15912,1.39211 l 0,24.28214 -3.75866,0" />
    <path
       inkscape:connector-curvature="0"
       id="path3395"
       style="font-size:15px;font-style:normal;font-variant:normal;font-weight:bold;font-stretch:normal;text-align:center;line-height:125%;letter-spacing:0px;word-spacing:0px;text-anchor:middle;fill:#ffffff;fill-opacity:1;stroke:none;font-family:Droid Serif;-inkscape-font-specification:Droid Serif Bold"
       d="m 270.51235,515.80108 c 0,0.58334 0.0529,1.04738 0.15912,1.39209 0.10589,0.34472 0.25197,0.60986 0.43751,0.79548 0.19875,0.18573 0.42422,0.31157 0.67614,0.37785 0.25198,0.0529 0.5237,0.0796 0.8154,0.0796 l 1.71028,0 0,2.16769 -14.06017,0 0,-2.16769 1.71028,0 c 0.30493,0 0.58335,-0.0272 0.83527,-0.0796 0.25197,-0.0663 0.47063,-0.19224 0.65625,-0.37785 0.18572,-0.18572 0.33145,-0.45076 0.43754,-0.79548 0.10616,-0.34471 0.15911,-0.80875 0.15911,-1.39209 l 0,-21.77637 -3.26148,0 c -0.60987,3e-5 -1.12032,0.0663 -1.53132,0.19876 -0.41098,0.1325 -0.74908,0.32485 -1.01423,0.57672 -0.25197,0.23866 -0.44416,0.53696 -0.57671,0.89492 -0.11948,0.35801 -0.20556,0.76236 -0.2585,1.21312 l -0.27842,2.52564 -2.74442,0 0.21886,-7.89517 25.37592,0 0.19875,7.89517 -2.72454,0 -0.29829,-2.52564 c -0.0529,-0.45076 -0.14581,-0.85511 -0.27842,-1.21312 -0.1192,-0.35796 -0.31158,-0.65626 -0.57672,-0.89492 -0.25197,-0.25198 -0.58337,-0.44411 -0.99436,-0.57672 -0.41103,-0.13251 -0.92144,-0.19876 -1.53131,-0.19876 l -3.26148,0 0,21.77637" />
    <path
       inkscape:connector-curvature="0"
       id="path3397"
       style="font-size:15px;font-style:normal;font-variant:normal;font-weight:bold;font-stretch:normal;text-align:center;line-height:125%;letter-spacing:0px;word-spacing:0px;text-anchor:middle;fill:#ffffff;fill-opacity:1;stroke:none;font-family:Droid Serif;-inkscape-font-specification:Droid Serif Bold"
       d="m 291.95065,518.12786 8.1537,0 c 0.41098,0 0.76232,-0.0728 1.05401,-0.21885 0.29168,-0.15911 0.54356,-0.37785 0.75571,-0.65628 0.21206,-0.27839 0.37785,-0.60322 0.49719,-0.97445 0.1325,-0.38447 0.23188,-0.80211 0.2983,-1.2529 l 0.3182,-1.90914 2.82397,0 -0.29831,7.49743 -23.86452,0 0,-2.16769 1.71031,0 c 0.29167,0 0.56343,-0.0272 0.81536,-0.0796 0.25197,-0.0529 0.47066,-0.15911 0.65628,-0.3182 0.19875,-0.17242 0.35132,-0.41761 0.45741,-0.7358 0.10616,-0.33145 0.15911,-0.76234 0.15911,-1.29268 l 0,-19.68821 c 0,-0.58334 -0.0529,-1.04737 -0.15911,-1.39211 -0.10617,-0.34467 -0.25198,-0.60984 -0.43754,-0.79549 -0.18572,-0.18572 -0.40436,-0.30489 -0.65628,-0.35794 -0.25197,-0.0663 -0.53031,-0.0994 -0.83523,-0.0994 l -1.71031,0 0,-2.14781 22.61163,0 0.15911,7.49744 -2.84384,0 -0.19876,-1.92906 c -0.10617,-0.99432 -0.358,-1.75665 -0.7557,-2.287 -0.39776,-0.53031 -1.01426,-0.79546 -1.8495,-0.79549 l -6.86106,0 0,10.18219 9.66513,0 0,2.44612 -9.66513,0 0,11.47485" />
    <path
       inkscape:connector-curvature="0"
       id="path3399"
       style="font-size:15px;font-style:normal;font-variant:normal;font-weight:bold;font-stretch:normal;text-align:center;line-height:125%;letter-spacing:0px;word-spacing:0px;text-anchor:middle;fill:#ffffff;fill-opacity:1;stroke:none;font-family:Droid Serif;-inkscape-font-specification:Droid Serif Bold"
       d="m 330.98901,520.61375 -15.88979,-22.43264 0,17.61997 c 0,0.58334 0.0529,1.04738 0.15911,1.39209 0.1192,0.34472 0.2718,0.60986 0.45741,0.79548 0.18573,0.18573 0.40436,0.31157 0.65628,0.37785 0.26501,0.0529 0.53694,0.0796 0.81537,0.0796 l 1.71031,0 0,2.16769 -10.63961,0 0,-2.16769 1.71028,0 c 0.29167,0 0.56347,-0.0272 0.81539,-0.0796 0.25197,-0.0663 0.47064,-0.19224 0.65625,-0.37785 0.19876,-0.18572 0.35136,-0.45076 0.45741,-0.79548 0.10617,-0.34471 0.15911,-0.80875 0.15911,-1.39209 l 0,-19.62858 c -2e-5,-0.54354 -0.0597,-0.97442 -0.17893,-1.29265 -0.10616,-0.33142 -0.25849,-0.58334 -0.45741,-0.75571 -0.18572,-0.17241 -0.40438,-0.28502 -0.65628,-0.33807 -0.25197,-0.0663 -0.51706,-0.0994 -0.79548,-0.0994 l -1.71028,0 0,-2.14782 9.04862,0 14.37838,20.32461 0,-15.69092 c -3e-5,-0.54355 -0.0598,-0.97443 -0.17895,-1.29266 -0.10616,-0.33142 -0.25848,-0.58334 -0.45741,-0.7557 -0.18572,-0.17242 -0.40437,-0.28502 -0.65627,-0.33808 -0.25197,-0.0663 -0.51706,-0.0994 -0.79546,-0.0994 l -1.71031,0 0,-2.14782 10.6396,0 0,2.14782 -1.71028,0 c -0.27844,2e-5 -0.54362,0.0331 -0.79549,0.0994 -0.25198,0.0529 -0.47731,0.17242 -0.67615,0.35796 -0.18572,0.18572 -0.3315,0.45081 -0.43753,0.79548 -0.10617,0.34473 -0.15911,0.80877 -0.15911,1.39211 l 0,24.28214 -3.75868,0" />
    <path
       inkscape:connector-curvature="0"
       id="path3401"
       style="font-size:15px;font-style:normal;font-variant:normal;font-weight:bold;font-stretch:normal;text-align:center;line-height:125%;letter-spacing:0px;word-spacing:0px;text-anchor:middle;fill:#ffffff;fill-opacity:1;stroke:none;font-family:Droid Serif;-inkscape-font-specification:Droid Serif Bold"
       d="m 355.78821,515.80108 c 0,0.58334 0.0529,1.04738 0.15911,1.39209 0.1059,0.34472 0.25198,0.60986 0.43751,0.79548 0.19875,0.18573 0.42423,0.31157 0.67616,0.37785 0.25197,0.0529 0.52368,0.0796 0.81538,0.0796 l 1.71028,0 0,2.16769 -14.06016,0 0,-2.16769 1.71027,0 c 0.30493,0 0.58335,-0.0272 0.83527,-0.0796 0.25198,-0.0663 0.47064,-0.19224 0.65626,-0.37785 0.18572,-0.18572 0.33145,-0.45076 0.43753,-0.79548 0.10617,-0.34471 0.15911,-0.80875 0.15911,-1.39209 l 0,-21.77637 -3.26147,0 c -0.60988,3e-5 -1.12031,0.0663 -1.53133,0.19876 -0.41098,0.1325 -0.74908,0.32485 -1.01422,0.57672 -0.25198,0.23866 -0.44417,0.53696 -0.57672,0.89492 -0.1192,0.35801 -0.20554,0.76236 -0.2585,1.21312 l -0.27841,2.52564 -2.74441,0 0.21884,-7.89517 25.37592,0 0.19876,7.89517 -2.72454,0 -0.29829,-2.52564 c -0.0529,-0.45076 -0.14581,-0.85511 -0.27843,-1.21312 -0.1192,-0.35796 -0.31157,-0.65626 -0.57672,-0.89492 -0.25197,-0.25198 -0.58337,-0.44411 -0.99435,-0.57672 -0.41104,-0.13251 -0.92145,-0.19876 -1.53132,-0.19876 l -3.26148,0 0,21.77637" />
    <path
       inkscape:connector-curvature="0"
       id="path3403"
       style="font-size:18.15624237000000107px;font-style:normal;font-variant:normal;font-weight:normal;font-stretch:normal;text-align:center;line-height:125%;letter-spacing:0px;word-spacing:0px;text-anchor:middle;fill:#ffffff;fill-opacity:1;stroke:none;font-family:Droid Serif;-inkscape-font-specification:Droid Serif"
       d="m 170.3046,547.32938 0,14.25042 11.89141,0 0,2.40716 -11.89141,0 0,10.47117 c 0,0.77032 0.10426,1.38814 0.31293,1.85352 0.22455,0.46539 0.51354,0.82646 0.8666,1.08324 0.36908,0.24085 0.80236,0.40118 1.29987,0.48142 0.49746,0.0801 1.01901,0.12029 1.56464,0.12029 l 1.63689,0 0,2.07016 -15.33365,0 0,-2.07016 0.62586,0 c 0.54561,0 1.05915,-0.0321 1.54059,-0.0964 0.49746,-0.0803 0.93075,-0.23269 1.29987,-0.45735 0.36908,-0.22482 0.65796,-0.55367 0.86657,-0.98694 0.22455,-0.44935 0.33699,-1.03508 0.33702,-1.75723 l 0,-24.40867 c -3e-5,-0.72212 -0.11241,-1.29984 -0.33702,-1.73317 -0.20853,-0.44929 -0.49749,-0.79432 -0.86657,-1.03509 -0.36912,-0.24057 -0.80241,-0.39314 -1.29987,-0.45735 -0.48144,-0.0801 -0.99498,-0.12029 -1.54059,-0.12029 l -0.62586,0 0,-2.07016 24.84195,0 0.24083,8.61766 -2.55159,0 -0.24085,-2.1183 c -0.0641,-0.56164 -0.19251,-1.08319 -0.38513,-1.56466 -0.19252,-0.49743 -0.47344,-0.92273 -0.84252,-1.27579 -0.35306,-0.36908 -0.80241,-0.65793 -1.34801,-0.8666 -0.54563,-0.22455 -1.20359,-0.33696 -1.97388,-0.33699 l -8.08808,0" />
    <path
       inkscape:connector-curvature="0"
       id="path3405"
       style="font-size:18.15624237000000107px;font-style:normal;font-variant:normal;font-weight:normal;font-stretch:normal;text-align:center;line-height:125%;letter-spacing:0px;word-spacing:0px;text-anchor:middle;fill:#ffffff;fill-opacity:1;stroke:none;font-family:Droid Serif;-inkscape-font-specification:Droid Serif"
       d="m 221.62539,562.42232 c -5e-5,2.71208 -0.33704,5.18344 -1.01101,7.41405 -0.67404,2.23066 -1.66899,4.14035 -2.98488,5.72907 -1.31595,1.58872 -2.93679,2.8164 -4.86248,3.68297 -1.92576,0.86657 -4.13234,1.29987 -6.61972,1.29987 -2.6158,0 -4.89457,-0.4333 -6.83635,-1.29987 -1.94179,-0.86657 -3.55459,-2.09425 -4.83839,-3.68297 -1.28383,-1.58872 -2.2467,-3.49841 -2.88859,-5.72907 -0.64192,-2.24665 -0.96288,-4.73406 -0.96288,-7.46219 0,-2.72812 0.32096,-5.19946 0.96288,-7.41407 0.64189,-2.23064 1.60476,-4.13229 2.88859,-5.70499 1.2838,-1.57265 2.90464,-2.78428 4.86247,-3.63482 1.9578,-0.86655 4.24462,-1.29985 6.86041,-1.29988 2.48739,3e-5 4.68592,0.43333 6.59565,1.29988 1.90966,0.85054 3.52246,2.07019 4.83841,3.65887 1.31589,1.57274 2.31084,3.47439 2.98488,5.70499 0.67397,2.21462 1.01096,4.69399 1.01101,7.43816 m -25.54002,0 c -3e-5,2.43927 0.17649,4.62176 0.52955,6.54748 0.36912,1.90969 0.95485,3.53053 1.75726,4.86246 0.80236,1.31593 1.83744,2.32695 3.10524,3.03305 1.2838,0.69005 2.84042,1.03508 4.66988,1.03508 1.82943,0 3.37804,-0.34503 4.64585,-1.03508 1.28379,-0.7061 2.31887,-1.71712 3.10524,-3.03305 0.80236,-1.33193 1.38008,-2.95277 1.73314,-4.86246 0.35304,-1.92572 0.52956,-4.10821 0.52959,-6.54748 -3e-5,-2.43925 -0.1765,-4.61372 -0.52959,-6.52342 -0.35306,-1.92571 -0.93078,-3.54655 -1.73314,-4.86249 -0.78637,-1.31587 -1.81344,-2.31886 -3.08119,-3.00897 -1.25173,-0.69 -2.79233,-1.03503 -4.62176,-1.03508 -1.82945,5e-5 -3.38608,0.34508 -4.66988,1.03508 -1.28385,0.69011 -2.33498,1.6931 -3.15338,3.00897 -0.80241,1.31594 -1.38814,2.93678 -1.75726,4.86249 -0.35304,1.9097 -0.52958,4.08417 -0.52955,6.52342" />
    <path
       inkscape:connector-curvature="0"
       id="path3407"
       style="font-size:18.15624237000000107px;font-style:normal;font-variant:normal;font-weight:normal;font-stretch:normal;text-align:center;line-height:125%;letter-spacing:0px;word-spacing:0px;text-anchor:middle;fill:#ffffff;fill-opacity:1;stroke:none;font-family:Droid Serif;-inkscape-font-specification:Droid Serif"
       d="m 251.76311,574.04892 c 0.83445,1.31592 1.64484,2.30285 2.43124,2.96082 0.78631,0.65796 1.70102,0.98694 2.74417,0.98694 l 0.14444,0 0,2.07016 -0.69809,0 c -1.5406,0 -2.80838,-0.0562 -3.8033,-0.16862 -0.97896,-0.11241 -1.81344,-0.32898 -2.50347,-0.64993 -0.69008,-0.32096 -1.28385,-0.77028 -1.78128,-1.34801 -0.48147,-0.57772 -1.00301,-1.33196 -1.56467,-2.26275 l -6.66786,-11.09701 -4.09218,0 0,10.15824 c 0,0.72215 0.10426,1.30788 0.31292,1.75723 0.22456,0.43327 0.52155,0.76225 0.89067,0.98694 0.36908,0.22455 0.79434,0.37712 1.27581,0.45735 0.49746,0.0641 1.01901,0.0964 1.56463,0.0964 l 0.64996,0 0,2.07016 -14.34671,0 0,-2.07016 0.62586,0 c 0.5456,0 1.05914,-0.0321 1.54058,-0.0964 0.49749,-0.0804 0.93076,-0.23269 1.29987,-0.45735 0.36909,-0.22482 0.65797,-0.55367 0.86657,-0.98694 0.22456,-0.44935 0.33699,-1.03508 0.33702,-1.75723 l 0,-24.40867 c -3e-5,-0.72212 -0.11241,-1.29984 -0.33702,-1.73317 -0.20852,-0.44929 -0.49748,-0.79432 -0.86657,-1.03509 -0.36911,-0.24057 -0.80238,-0.39313 -1.29987,-0.45735 -0.48144,-0.0801 -0.99498,-0.12029 -1.54058,-0.12029 l -0.62586,0 0,-2.07016 13.26348,0 c 4.26868,6e-5 7.44614,0.7944 9.53238,2.3831 2.08618,1.57272 3.12927,3.94779 3.1293,7.12522 -3e-5,1.31595 -0.21668,2.47137 -0.64992,3.46632 -0.41729,0.97893 -0.97092,1.82946 -1.66095,2.55161 -0.69008,0.72214 -1.46841,1.32395 -2.33495,1.80536 -0.8666,0.48144 -1.73317,0.8666 -2.59975,1.15542 l 6.76416,10.68783 m -15.79103,-11.81919 3.46634,0 c 1.44426,3e-5 2.64785,-0.16047 3.61074,-0.48141 0.96286,-0.32094 1.73314,-0.80239 2.31087,-1.44433 0.57769,-0.64188 0.98691,-1.44426 1.22767,-2.40715 0.25659,-0.96286 0.3851,-2.08618 0.38513,-3.37004 -3e-5,-1.31588 -0.1363,-2.4312 -0.40921,-3.34594 -0.27283,-0.93076 -0.71414,-1.685 -1.32393,-2.26275 -0.60984,-0.59372 -1.40422,-1.01901 -2.38309,-1.27579 -0.96289,-0.27278 -2.14242,-0.40919 -3.53855,-0.40921 l -3.34597,0 0,14.99662" />
    <path
       inkscape:connector-curvature="0"
       id="path3409"
       style="font-size:18.15624237000000107px;font-style:normal;font-variant:normal;font-weight:normal;font-stretch:normal;text-align:center;line-height:125%;letter-spacing:0px;word-spacing:0px;text-anchor:middle;fill:#ffffff;fill-opacity:1;stroke:none;font-family:Droid Serif;-inkscape-font-specification:Droid Serif"
       d="m 287.14845,574.45813 c -3e-5,0.77032 0.10427,1.38814 0.31294,1.85352 0.22455,0.46539 0.51351,0.82646 0.86657,1.08324 0.36908,0.24085 0.80236,0.40118 1.29987,0.48142 0.49746,0.0801 1.019,0.12029 1.56466,0.12029 l 1.13136,0 0,2.07016 -15.33364,0 0,-2.07016 1.13136,0 c 0.54563,0 1.05914,-0.0321 1.54058,-0.0964 0.49749,-0.0803 0.93076,-0.23269 1.29988,-0.45735 0.36908,-0.22482 0.65795,-0.55367 0.86659,-0.98694 0.22456,-0.44935 0.337,-1.03508 0.337,-1.75723 l 0,-27.36949 -4.71805,0 c -0.72215,3e-5 -1.33197,0.11241 -1.82946,0.33699 -0.48144,0.20881 -0.88262,0.49751 -1.20356,0.8666 -0.30492,0.36911 -0.53762,0.80241 -0.69809,1.29988 -0.14445,0.48143 -0.24872,0.99497 -0.31294,1.54057 l -0.26473,2.1183 -2.55158,0 0.24057,-8.61766 27.75462,0 0.24085,8.61766 -2.55158,0 -0.24084,-2.1183 c -0.0641,-0.5456 -0.17649,-1.05914 -0.33699,-1.54057 -0.16048,-0.49747 -0.3932,-0.93077 -0.69809,-1.29988 -0.30492,-0.36909 -0.70613,-0.65794 -1.20357,-0.8666 -0.49751,-0.22455 -1.11535,-0.33696 -1.85353,-0.33699 l -4.79026,0 0,27.12875" />
    <path
       inkscape:connector-curvature="0"
       id="path3411"
       style="font-size:18.15624237000000107px;font-style:normal;font-variant:normal;font-weight:normal;font-stretch:normal;text-align:center;line-height:125%;letter-spacing:0px;word-spacing:0px;text-anchor:middle;fill:#ffffff;fill-opacity:1;stroke:none;font-family:Droid Serif;-inkscape-font-specification:Droid Serif"
       d="m 322.70228,580.06684 0,-2.07016 0.64994,0 c 0.56163,0 1.0832,-0.0402 1.56465,-0.12029 0.49745,-0.0801 0.92272,-0.24084 1.27581,-0.48141 0.36905,-0.25687 0.65793,-0.61786 0.86657,-1.08325 0.22455,-0.46537 0.33697,-1.0832 0.33699,-1.85352 l 0,-11.5544 -16.03171,0 0,11.5544 c 0,0.77032 0.10426,1.38815 0.31293,1.85352 0.22455,0.46539 0.51351,0.82646 0.86657,1.08325 0.36909,0.24084 0.80238,0.40118 1.29988,0.48141 0.49746,0.0801 1.01903,0.12029 1.56466,0.12029 l 0.64992,0 0,2.07016 -14.34671,0 0,-2.07016 0.62587,0 c 0.56167,0 1.08322,-0.0402 1.56466,-0.12029 0.49749,-0.0801 0.93076,-0.24084 1.29988,-0.48141 0.36908,-0.25687 0.65795,-0.61786 0.86657,-1.08325 0.20853,-0.46537 0.31293,-1.0832 0.31293,-1.85352 l 0,-24.16793 c 0,-0.72212 -0.11241,-1.29985 -0.33699,-1.73317 -0.20853,-0.44929 -0.49748,-0.79432 -0.8666,-1.03508 -0.36908,-0.24057 -0.80239,-0.39314 -1.29984,-0.45736 -0.48145,-0.0801 -0.99498,-0.12028 -1.54061,-0.12028 l -0.62587,0 0,-2.07016 14.34671,0 0,2.07016 -0.64992,0 c -0.54563,5e-5 -1.0672,0.0402 -1.56466,0.12028 -0.4975,0.0804 -0.93079,0.24872 -1.29988,0.5055 -0.35306,0.24084 -0.64191,0.5938 -0.86657,1.05916 -0.20853,0.46542 -0.31293,1.08325 -0.31293,1.85351 l 0,9.96569 16.03171,0 0,-9.96569 c -2e-5,-0.77026 -0.11241,-1.38809 -0.33699,-1.85351 -0.20854,-0.46536 -0.49752,-0.8184 -0.86657,-1.05916 -0.35309,-0.25686 -0.77836,-0.42524 -1.27581,-0.5055 -0.48145,-0.0801 -1.00302,-0.12028 -1.56465,-0.12028 l -0.64994,0 0,-2.07016 14.34671,0 0,2.07016 -0.62587,0 c -0.5617,5e-5 -1.09129,0.0402 -1.58872,0.12028 -0.48147,0.0804 -0.90674,0.24872 -1.27579,0.5055 -0.36914,0.24084 -0.65802,0.5938 -0.8666,1.05916 -0.20853,0.46542 -0.31296,1.08325 -0.31294,1.85351 l 0,24.21611 c -2e-5,0.72215 0.10427,1.30788 0.31294,1.75723 0.22456,0.43327 0.52152,0.76225 0.89065,0.98693 0.36907,0.22456 0.79433,0.37713 1.2758,0.45736 0.49746,0.0641 1.019,0.0964 1.56466,0.0964 l 0.62587,0 0,2.07017 -14.34671,0" />
    <path
       inkscape:connector-curvature="0"
       id="path3413"
       style="font-size:18.15624237000000107px;font-style:normal;font-variant:normal;font-weight:normal;font-stretch:normal;text-align:center;line-height:125%;letter-spacing:0px;word-spacing:0px;text-anchor:middle;fill:#ffffff;fill-opacity:1;stroke:none;font-family:Droid Serif;-inkscape-font-specification:Droid Serif"
       d="m 350.45689,577.61152 9.50832,0 c 0.78631,0 1.45229,-0.10427 1.99794,-0.31293 0.56165,-0.22456 1.02704,-0.52155 1.39615,-0.89064 0.36909,-0.3691 0.65794,-0.79437 0.86658,-1.27581 0.20853,-0.49746 0.35304,-1.01904 0.4333,-1.56466 l 0.33699,-2.11831 2.57569,0 -0.33702,8.61767 -26.43069,0 0,-2.07016 0.62587,0 c 0.54562,0 1.05916,-0.0321 1.5406,-0.0964 0.49746,-0.0804 0.93076,-0.23269 1.29987,-0.45735 0.36909,-0.22482 0.65794,-0.55367 0.86657,-0.98694 0.22456,-0.44935 0.33699,-1.03508 0.33699,-1.75723 l 0,-24.2161 c 0,-0.77026 -0.10426,-1.38809 -0.31293,-1.85351 -0.20853,-0.46537 -0.49749,-0.8184 -0.86657,-1.05917 -0.36911,-0.25686 -0.80238,-0.42524 -1.29987,-0.5055 -0.48144,-0.0801 -1.00299,-0.12029 -1.56466,-0.12029 l -0.62587,0 0,-2.07016 24.84197,0 0.24084,8.61766 -2.5516,0 -0.24084,-2.11829 c -0.0641,-0.54561 -0.19251,-1.05914 -0.38514,-1.54058 -0.17649,-0.49747 -0.44134,-0.93076 -0.79437,-1.29988 -0.33702,-0.36908 -0.77032,-0.65793 -1.29987,-0.8666 -0.51356,-0.22455 -1.1394,-0.33696 -1.8776,-0.33699 l -8.28065,0 0,13.11907 11.89142,0 0,2.40714 -11.89142,0 0,14.75593" />
    <path
       inkscape:connector-curvature="0"
       id="path3415"
       style="font-size:29.13453484000000060px;font-style:normal;font-variant:normal;font-weight:bold;font-stretch:normal;text-align:center;line-height:125%;letter-spacing:0px;word-spacing:0px;text-anchor:middle;fill:#ffffff;fill-opacity:1;stroke:none;font-family:Droid Serif;-inkscape-font-specification:Droid Serif Bold"
       d="m 215.49982,601.28412 -3.39914,0 c -0.54083,5e-5 -1.05586,0.0643 -1.54509,0.19305 -0.48932,0.10291 -0.9271,0.33482 -1.31331,0.69527 -0.36056,0.36058 -0.64382,0.87559 -0.84977,1.54509 -0.20609,0.66958 -0.30907,1.57085 -0.30902,2.70386 l 0,30.86278 c -5e-5,2.65236 -0.38633,5.03434 -1.15881,7.14594 -0.74683,2.11159 -1.93139,3.9013 -3.55364,5.3691 -1.59663,1.46785 -3.64384,2.6009 -6.14166,3.39917 -2.49792,0.77253 -5.47215,1.15879 -8.92278,1.15879 -3.4507,0 -6.54082,-0.32189 -9.27043,-0.96565 -2.70388,-0.66952 -4.99573,-1.72533 -6.87556,-3.16739 -1.87985,-1.44207 -3.32192,-3.29615 -4.32619,-5.56228 -0.97854,-2.29183 -1.46783,-5.06008 -1.46783,-8.30473 l 0,-30.24474 c 0,-1.05574 -0.11595,-1.89267 -0.34764,-2.51074 -0.20608,-0.64374 -0.50216,-1.133 -0.88839,-1.46781 -0.36054,-0.33471 -0.78542,-0.55362 -1.27471,-0.65666 -0.46352,-0.1287 -0.96565,-0.19305 -1.50642,-0.19305 l -3.39917,0 0,-4.17169 27.27049,0 0,4.17169 -3.32189,0 c -0.5408,5e-5 -1.05583,0.0643 -1.54509,0.19305 -0.48929,0.10291 -0.92707,0.33482 -1.31331,0.69527 -0.36054,0.36058 -0.64379,0.87559 -0.84977,1.54509 -0.20609,0.66958 -0.30904,1.57085 -0.30902,2.70386 l 0,30.55375 c -2e-5,2.21462 0.27044,4.08157 0.81115,5.60089 0.56651,1.49358 1.3648,2.70387 2.39485,3.63091 1.03003,0.9013 2.2661,1.55796 3.7082,1.96997 1.44201,0.38627 3.06435,0.57941 4.86695,0.57938 1.75104,3e-5 3.33474,-0.21885 4.75109,-0.65662 1.41627,-0.46353 2.61371,-1.17169 3.5923,-2.1245 1.00424,-0.95278 1.77678,-2.16308 2.31761,-3.63092 0.54071,-1.46778 0.81109,-3.206 0.81115,-5.21461 l 0,-31.01726 c -6e-5,-1.05574 -0.10291,-1.89267 -0.30902,-2.51074 -0.20609,-0.64374 -0.50219,-1.133 -0.88841,-1.46781 -0.36055,-0.33471 -0.78546,-0.55362 -1.2747,-0.65666 -0.48928,-0.1287 -1.00432,-0.19305 -1.54506,-0.19305 l -3.32188,0 0,-4.17169 20.70392,0 0,4.17169" />
    <path
       inkscape:connector-curvature="0"
       id="path3417"
       style="font-size:29.13453484000000060px;font-style:normal;font-variant:normal;font-weight:bold;font-stretch:normal;text-align:center;line-height:125%;letter-spacing:0px;word-spacing:0px;text-anchor:middle;fill:#ffffff;fill-opacity:1;stroke:none;font-family:Droid Serif;-inkscape-font-specification:Droid Serif Bold"
       d="m 237.74883,654.35726 c -3.55369,0 -6.51506,-0.33476 -8.88417,-1.00429 -2.36911,-0.66953 -4.2747,-1.53219 -5.71674,-2.58799 -1.41633,-1.0558 -2.43349,-2.24036 -3.05151,-3.55367 -0.59228,-1.31331 -0.88843,-2.61373 -0.88843,-3.9013 0,-1.36479 0.24464,-2.51073 0.73391,-3.43778 0.51502,-0.92701 1.18455,-1.68668 2.0086,-2.27899 0.84977,-0.59224 1.80258,-1.01713 2.85837,-1.27467 1.08154,-0.25741 2.20172,-0.38625 3.36054,-0.38628 -3e-5,2.26613 0.27044,4.26183 0.81115,5.98716 0.54077,1.69959 1.28754,3.12878 2.24035,4.28757 0.95278,1.13305 2.08583,1.99571 3.39917,2.58799 1.33903,0.56654 2.79397,0.84979 4.36482,0.84979 1.54504,0 2.92272,-0.21884 4.13305,-0.65666 1.21027,-0.43774 2.24033,-1.04293 3.09015,-1.81544 0.84976,-0.77254 1.49352,-1.67385 1.93133,-2.70387 0.43775,-1.0558 0.65662,-2.18885 0.65665,-3.39917 -3e-5,-1.33905 -0.27043,-2.52361 -0.81115,-3.55367 -0.5408,-1.05576 -1.36485,-2.02145 -2.47213,-2.89701 -1.08156,-0.90124 -2.45925,-1.75104 -4.13305,-2.54934 -1.6481,-0.82404 -3.57943,-1.69956 -5.79402,-2.62663 -2.75537,-1.13302 -5.08585,-2.29184 -6.99144,-3.47642 -1.87985,-1.21027 -3.39914,-2.51068 -4.55796,-3.9013 -1.15878,-1.3905 -1.99571,-2.89696 -2.51074,-4.51932 -0.48926,-1.62228 -0.7339,-3.39911 -0.7339,-5.33049 0,-2.42057 0.48926,-4.60942 1.46781,-6.56655 0.97855,-1.95703 2.33047,-3.63085 4.05583,-5.02147 1.72532,-1.39051 3.77251,-2.45918 6.14165,-3.20603 2.36908,-0.74672 4.9442,-1.1201 7.72535,-1.12018 2.90985,8e-5 5.42059,0.24464 7.53221,0.73393 2.11154,0.46358 3.84977,1.10734 5.21461,1.93134 1.39052,0.82407 2.42057,1.80262 3.09013,2.93562 0.6695,1.10736 1.00426,2.30478 1.00432,3.5923 -6e-5,0.92707 -0.2061,1.78973 -0.61805,2.58799 -0.3863,0.79833 -0.99145,1.49361 -1.81545,2.08582 -0.79833,0.59234 -1.8155,1.05586 -3.0515,1.39057 -1.21036,0.33482 -2.62666,0.50221 -4.24896,0.50215 -3e-5,-1.10725 -0.15451,-2.2918 -0.46352,-3.55366 -0.28328,-1.28752 -0.75968,-2.47205 -1.42918,-3.55367 -0.66958,-1.10725 -1.54512,-2.02139 -2.62662,-2.74248 -1.05583,-0.72098 -2.34338,-1.08152 -3.86269,-1.08154 -1.0558,2e-5 -2.06009,0.1545 -3.01287,0.46352 -0.95281,0.30905 -1.78973,0.77257 -2.51074,1.39056 -0.6953,0.61808 -1.24896,1.39059 -1.66095,2.31761 -0.41204,0.90132 -0.61804,1.94425 -0.61804,3.12875 0,1.10733 0.18029,2.15026 0.54077,3.12876 0.3605,0.9786 1.01716,1.94425 1.96997,2.89701 0.97852,0.92709 2.30473,1.86701 3.97858,2.81976 1.69953,0.92706 3.88837,1.93136 6.56653,3.0129 2.70385,1.1073 5.00858,2.24038 6.91419,3.39914 1.90554,1.15884 3.4635,2.40775 4.67382,3.74679 1.23604,1.31335 2.12444,2.76826 2.66526,4.36483 0.56648,1.57082 0.84974,3.32192 0.8498,5.25322 -6e-5,2.54938 -0.50221,4.89275 -1.50645,7.03009 -1.00435,2.1116 -2.44642,3.92704 -4.32621,5.44635 -1.87985,1.51932 -4.14598,2.70388 -6.79832,3.55367 -2.62662,0.8498 -5.58801,1.27468 -8.88413,1.27468" />
    <path
       inkscape:connector-curvature="0"
       id="path3419"
       style="font-size:29.13453484000000060px;font-style:normal;font-variant:normal;font-weight:bold;font-stretch:normal;text-align:center;line-height:125%;letter-spacing:0px;word-spacing:0px;text-anchor:middle;fill:#ffffff;fill-opacity:1;stroke:none;font-family:Droid Serif;-inkscape-font-specification:Droid Serif Bold"
       d="m 285.33697,648.75637 15.83698,0 c 0.79826,3e-5 1.48065,-0.14147 2.04722,-0.42488 0.56648,-0.30899 1.05574,-0.7339 1.4678,-1.27467 0.41199,-0.54077 0.73388,-1.17169 0.96568,-1.89272 0.25741,-0.74678 0.4506,-1.55794 0.57941,-2.4335 l 0.61802,-3.70816 5.485,0 -0.57941,14.5623 -46.35208,0 0,-4.21032 3.32189,0 c 0.56651,0 1.09441,-0.0516 1.5837,-0.1545 0.48926,-0.10291 0.91415,-0.309 1.27467,-0.61801 0.38628,-0.33477 0.6824,-0.81116 0.88844,-1.42918 0.20608,-0.64378 0.30899,-1.48071 0.30899,-2.51076 l 0,-38.24046 c 0,-1.13302 -0.10291,-2.03429 -0.30899,-2.70388 -0.20609,-0.6695 -0.48929,-1.18449 -0.8498,-1.54509 -0.36053,-0.36044 -0.78544,-0.59221 -1.2747,-0.69526 -0.48926,-0.12871 -1.03003,-0.19305 -1.62231,-0.19305 l -3.32189,0 0,-4.17169 43.91859,0 0.30902,14.56227 -5.52363,0 -0.38624,-3.7468 c -0.2061,-1.93128 -0.69533,-3.41196 -1.46784,-4.44207 -0.77258,-1.03 -1.97,-1.545 -3.59228,-1.54506 l -13.32624,0 0,19.77689 18.7726,0 0,4.75109 -18.7726,0 0,22.28762" />
    <path
       inkscape:connector-curvature="0"
       id="path3421"
       style="font-size:29.13453484000000060px;font-style:normal;font-variant:normal;font-weight:bold;font-stretch:normal;text-align:center;line-height:125%;letter-spacing:0px;word-spacing:0px;text-anchor:middle;fill:#ffffff;fill-opacity:1;stroke:none;font-family:Droid Serif;-inkscape-font-specification:Droid Serif Bold"
       d="m 317.01089,649.37442 3.32193,0 c 0.54077,0 1.05579,-0.0516 1.54505,-0.1545 0.48926,-0.10291 0.91417,-0.309 1.27467,-0.61801 0.38628,-0.33477 0.6824,-0.81116 0.88844,-1.42918 0.23188,-0.64378 0.34763,-1.48071 0.34763,-2.51076 l 0,-38.54949 c 0,-1.05574 -0.11594,-1.89266 -0.34763,-2.51073 -0.20609,-0.64374 -0.50216,-1.133 -0.88844,-1.46782 -0.3605,-0.33471 -0.78541,-0.5536 -1.27467,-0.65665 -0.48926,-0.12871 -1.00428,-0.19305 -1.54505,-0.19305 l -3.32193,0 0,-4.17169 25.49365,0 c 7.46782,6e-5 12.93994,1.24898 16.41639,3.74678 3.50211,2.49792 5.25319,6.12883 5.25322,10.89274 -3e-5,2.08589 -0.30905,3.93997 -0.92704,5.56228 -0.61807,1.62233 -1.44209,3.03866 -2.4721,4.24892 -1.00434,1.21033 -2.15026,2.24039 -3.43778,3.09016 -1.2876,0.82405 -2.60091,1.50644 -3.93993,2.04721 l 9.42493,16.22322 c 0.66947,1.13307 1.31326,2.1116 1.93133,2.93565 0.64373,0.79828 1.27465,1.4678 1.89272,2.00857 0.64373,0.51504 1.30039,0.90131 1.96997,1.15882 0.66947,0.23162 1.37761,0.34764 2.12447,0.34764 l 0.30899,0 0,4.21031 -2.58798,0 c -2.36914,0 -4.44213,-0.0901 -6.21891,-0.27043 -1.75112,-0.18029 -3.29617,-0.52787 -4.6352,-1.0429 -1.31334,-0.54077 -2.45929,-1.2747 -3.43778,-2.20175 -0.95284,-0.92703 -1.84124,-2.12446 -2.66524,-3.59227 l -9.38629,-17.42068 -5.25325,0 0,15.60521 c -4e-5,1.03006 0.1029,1.86698 0.30901,2.51076 0.23161,0.61802 0.52788,1.09441 0.88841,1.42918 0.38624,0.30902 0.82403,0.51502 1.31331,0.61802 0.48926,0.1029 1.00427,0.15449 1.54506,0.15449 l 3.39917,0 0,4.21032 -27.30913,0 0,-4.21032 m 19.85417,-24.91425 4.44206,0 c 1.82832,3e-5 3.34763,-0.24464 4.55796,-0.7339 1.23603,-0.48926 2.21459,-1.2103 2.93564,-2.16311 0.74675,-0.97852 1.27466,-2.18882 1.5837,-3.63091 0.33471,-1.46779 0.50211,-3.16737 0.50213,-5.09873 -2e-5,-2.00855 -0.18029,-3.70813 -0.54077,-5.09872 -0.36055,-1.39053 -0.92707,-2.52358 -1.69958,-3.39917 -0.77257,-0.90125 -1.77686,-1.54501 -3.01287,-1.93133 -1.23609,-0.41198 -2.72966,-0.61799 -4.48071,-0.61804 l -4.28756,0 0,22.67391" />
  </g>
</svg>
